<?xml version="1.0" standalone="no"?>
<!DOCTYPE svg PUBLIC "-//W3C//DTD SVG 1.1//EN" "http://www.w3.org/Graphics/SVG/1.1/DTD/svg11.dtd" >
<svg xmlns="http://www.w3.org/2000/svg" xmlns:xlink="http://www.w3.org/1999/xlink" version="1.1">
<metadata>
Created by FontForge 20170924 at Sun Feb 25 20:34:25 2007
 By root
Copyright (c) Irmug.org, 2007. All rights reserved.
</metadata>
<defs>
<font id="XPVosta" horiz-adv-x="1" >
  <font-face 
    font-family="XP Vosta"
    font-weight="400"
    font-stretch="normal"
    units-per-em="2048"
    panose-1="2 0 5 3 3 0 0 2 0 4"
    ascent="1638"
    descent="-410"
    x-height="1084"
    cap-height="1474"
    bbox="-340 -1555 2975 2402"
    underline-thickness="60"
    underline-position="-600"
    unicode-range="U+000D-FEFC"
  />
<missing-glyph horiz-adv-x="1122" 
d="M624 299q0 -30 -22 -52.5t-54 -22.5q-30 0 -51.5 22.5t-21.5 52.5q0 32 21.5 53.5t54.5 21.5q30 0 51.5 -21.5t21.5 -53.5zM732 780q0 -43 -23.5 -70t-60.5 -27q-32 0 -51 18.5t-19 47.5q0 26 15.5 43.5t29.5 28.5q8 6 14 11.5t6 10.5q0 20 -19.5 32t-49.5 12
q-38 0 -62 -21t-24 -53q0 -13 6.5 -32t15.5 -38.5t19 -38t17 -32.5q5 -10 8.5 -16t4.5 -8q11 -29 17.5 -64.5t6.5 -70.5q0 -21 -1.5 -42.5t-3.5 -46.5h-39v18l4 30q0 33 -45 72q-73 65 -82 76q-45 53 -45 120q0 41 15 75.5t40.5 60t60 39.5t73.5 14q35 0 66.5 -10.5t55 -30
t37 -47t13.5 -61.5zM132 31h860v1091h-860v-1091zM100 0v1154h922v-1154h-922z" />
    <glyph glyph-name="fi" unicode="fi" horiz-adv-x="1251" 
d="M840 1483h264v-244h-264v244zM840 1081h269v-1081h-269v1081zM642 1267h-9q-15 1 -31 1.5t-36 0.5q-76 0 -93 -42q-15 -39 -13 -122v-29h191v-186h-191v-890h-269v890h-161v186h158v79q0 88 19.5 151.5t56.5 106.5q66 76 278 76q23 0 46.5 -1.5t49.5 -3.5v6l9 -9
q-4 0 -7 1l4 -213h7l-9 -9v7z" />
    <glyph glyph-name="fl" unicode="fl" horiz-adv-x="1251" 
d="M840 1474h269v-1474h-269v1474zM642 1267h-9q-15 1 -31 1.5t-36 0.5q-76 0 -93 -42q-15 -39 -13 -122v-29h191v-186h-191v-890h-269v890h-161v186h158v79q0 88 19.5 151.5t56.5 106.5q66 76 278 76q23 0 46.5 -1.5t49.5 -3.5v6l9 -9q-4 0 -7 1l4 -213h7l-9 -9v7z" />
    <glyph glyph-name="uni06BE" unicode="&#xfeeb;&#x200d;" horiz-adv-x="1347" 
d="M903 713q-45 -90 -85.5 -167.5t-75.5 -142.5q51 -19 124.5 -39.5t163.5 -42.5q54 65 54 148q0 78 -47 140.5t-134 103.5zM803 760q-69 26 -140 53.5t-140 53.5q-1 7 -9 7q-18 0 -34.5 -16t-29 -40t-20.5 -52t-8 -52q0 -80 56.5 -147t163.5 -121zM304 581q7 61 14.5 98.5
t15.5 56.5l103 188q87 23 166 57t152 80l178 -63q19 36 38.5 74t39.5 74l131 28l-123 -229q88 -67 133 -157.5t45 -203.5q0 -165 -108 -290q-23 -16 -79.5 -40.5t-137.5 -55.5q-62 -23 -99 -48h-409l-322 123l-42 32l43 41l139 -27q102 -42 180 -42q45 0 45 26q0 4 -1 6v-1
q-102 116 -102 273z" />
    <glyph glyph-name="uniFBAB" unicode="&#xfbad;&#x200d;" horiz-adv-x="1330" arabic-form="final" 
d="M898 713q-45 -90 -85.5 -167t-75.5 -143q51 -19 124.5 -39.5t163.5 -42.5q21 26 34 55.5t18 59.5q-3 6 -6 13t-5 13l7 61q-14 61 -58 109.5t-117 80.5zM798 760q-69 26 -140 53.5t-140 53.5q-1 7 -9 7q-17 0 -33.5 -15.5t-29.5 -39t-21 -51.5t-8 -54q0 -79 56.5 -146.5
t163.5 -121.5zM300 581q6 64 13.5 100.5t15.5 54.5l103 188q174 47 318 137l178 -63q20 36 39.5 74t39.5 74l130 28l-122 -229q68 -52 111.5 -122t58.5 -153q35 -79 72.5 -163t72.5 -162v-73l-70 13l-110 60l-17 15q-11 -17 -23 -33t-26 -33q-23 -17 -79.5 -41.5
t-137.5 -54.5q-30 -11 -56 -24t-43 -24h-409l-322 123l-37 30l38 43l139 -27q104 -42 180 -42q45 0 45 26q0 4 -1 5q-101 114 -101 273z" />
    <glyph glyph-name="uni06C0" unicode="&#x647;&#x654;" horiz-adv-x="838" 
d="M485 1369q-10 5 -36.5 13t-62.5 18q-17 5 -36 16t-37 28q-1 -10 -2 -18.5t-1 -16.5q0 -10 4 -19t15 -17.5t32 -17t54 -19.5q56 -20 86 -43.5t30 -69.5t-32 -80t-76.5 -56t-91.5 -33t-76 -11q-25 0 -54.5 10.5t-55 25.5t-43 32t-17.5 30q0 20 10 28t27 8q16 0 36.5 -6
t41.5 -13.5t40.5 -15.5t32.5 -11q18 -3 38 -3t39 3.5t33.5 10.5t24 17.5t9.5 25.5q-28 16 -65 28t-70 28t-56 39t-23 61t6 65.5t25 49t55 38.5t97 34q5 0 18 -5.5t23 -10.5h1q12 -4 25 -9.5t29 -10.5t35.5 -9t43.5 -4q-58 -44 -59 -103zM390 636q-13 17 -24.5 31.5
t-22.5 28.5q-48 -60 -98.5 -123.5t-98.5 -123.5q123 -70 196 -70q26 0 62.5 10t95.5 36q-30 69 -55 118.5t-55 92.5zM665 646q23 -55 23 -106q0 -54 -17.5 -104.5t-48 -94t-70.5 -80t-85.5 -62t-93.5 -40t-94 -14.5q-58 0 -109 13t-88.5 37t-59.5 57.5t-22 74.5q0 31 17 63
l455 581z" />
    <glyph glyph-name="uniFBA5" unicode="&#xfeea;&#x654;" horiz-adv-x="689" arabic-form="final" 
d="M483 780q-65 -27 -139 -58.5t-139 -58.5q42 -87 113 -138t165 -61v316zM727 150h-288l44 58v82q-36 -5 -68.5 -8t-61.5 -3q-45 0 -129 31q-50 26 -66 37q-30 20 -58 44.5t-46 42.5q-26 17 -40 47t-14 69q0 108 70 137l620 247v-726zM485 1369q-10 5 -36.5 13t-62.5 18
q-17 5 -36 16t-37 28q-1 -10 -2 -18.5t-1 -16.5q0 -10 4 -19t15 -17.5t32 -17t54 -19.5q56 -20 86 -43.5t30 -69.5t-32 -80t-76.5 -56t-91.5 -33t-76 -11q-25 0 -54.5 10.5t-55 25.5t-43 32t-17.5 30q0 20 10 28t27 8q16 0 36.5 -6t41.5 -13.5t40.5 -15.5t32.5 -11
q18 -3 38 -3t39 3.5t33.5 10.5t24 17.5t9.5 25.5q-28 16 -65 28t-70 28t-56 39t-23 61t6 65.5t25 49t55 38.5t97 34q5 0 18 -5.5t23 -10.5h1q12 -4 25 -9.5t29 -10.5t35.5 -9t43.5 -4q-58 -44 -59 -103z" />
    <glyph glyph-name="uni06C2" unicode="&#x6c1;&#x654;" horiz-adv-x="838" 
d="M485 1369q-10 5 -36.5 13t-62.5 18q-17 5 -36 16t-37 28q-1 -10 -2 -18.5t-1 -16.5q0 -10 4 -19t15 -17.5t32 -17t54 -19.5q56 -20 86 -43.5t30 -69.5t-32 -80t-76.5 -56t-91.5 -33t-76 -11q-25 0 -54.5 10.5t-55 25.5t-43 32t-17.5 30q0 20 10 28t27 8q16 0 36.5 -6
t41.5 -13.5t40.5 -15.5t32.5 -11q18 -3 38 -3t39 3.5t33.5 10.5t24 17.5t9.5 25.5q-28 16 -65 28t-70 28t-56 39t-23 61t6 65.5t25 49t55 38.5t97 34q5 0 18 -5.5t23 -10.5h1q12 -4 25 -9.5t29 -10.5t35.5 -9t43.5 -4q-58 -44 -59 -103zM390 636q-13 17 -24.5 31.5
t-22.5 28.5q-48 -60 -98.5 -123.5t-98.5 -123.5q123 -70 196 -70q26 0 62.5 10t95.5 36q-30 69 -55 118.5t-55 92.5zM665 646q23 -55 23 -106q0 -54 -17.5 -104.5t-48 -94t-70.5 -80t-85.5 -62t-93.5 -40t-94 -14.5q-58 0 -109 13t-88.5 37t-59.5 57.5t-22 74.5q0 31 17 63
l455 581z" />
    <glyph glyph-name="uni06C2.fin" unicode="&#xfba7;&#x654;" horiz-adv-x="718" 
d="M718 272q-198 36 -263 190q-21 62 -52 62q-17 0 -40.5 -20t-50.5 -53.5t-55.5 -77t-55 -90.5t-50 -94.5t-39.5 -88.5q-30 -78 -55 -78q-37 0 -57 171q0 51 3.5 83.5t14.5 44.5q117 126 243 256.5t241 254.5q34 -57 59.5 -127t44.5 -154q37 -166 112 -206v-73zM485 1369
q-10 5 -36.5 13t-62.5 18q-17 5 -36 16t-37 28q-1 -10 -2 -18.5t-1 -16.5q0 -10 4 -19t15 -17.5t32 -17t54 -19.5q56 -20 86 -43.5t30 -69.5t-32 -80t-76.5 -56t-91.5 -33t-76 -11q-25 0 -54.5 10.5t-55 25.5t-43 32t-17.5 30q0 20 10 28t27 8q16 0 36.5 -6t41.5 -13.5
t40.5 -15.5t32.5 -11q18 -3 38 -3t39 3.5t33.5 10.5t24 17.5t9.5 25.5q-28 16 -65 28t-70 28t-56 39t-23 61t6 65.5t25 49t55 38.5t97 34q5 0 18 -5.5t23 -10.5h1q12 -4 25 -9.5t29 -10.5t35.5 -9t43.5 -4q-58 -44 -59 -103z" />
    <glyph glyph-name="uni06CC_uni0659" unicode="&#x6cc;&#x659;" horiz-adv-x="1405" 
d="M703 1066q-5 1 -13 1.5t-19 2.5q-17 2 -38.5 4t-44.5 6l-114 18q-10 1 -20 2.5t-20 2.5q-2 1 -22 1h-25q-20 0 -37.5 -0.5t-34.5 -1.5q-9 -1 -18.5 -1.5t-17.5 -0.5q-6 0 -11 -4l-38 -10q-4 -1 -12 -3.5t-21 -7.5l-45 87q2 0 3 1l13 5l6 1q29 8 57 11.5t54 3.5
q9 0 18 -0.5t18 -1.5q63 -8 123.5 -12t120.5 -4q15 0 29.5 0.5t28.5 1.5t27.5 1h27.5q85 0 85 -39q0 -24 -29 -58zM1107 358q-31 17 -91 35.5t-147 40.5q-42 11 -90 40t-96 75q-23 -2 -35.5 -15t-12.5 -39q0 -28 8.5 -46t28.5 -31.5t54 -26t85 -29t120.5 -40.5t161.5 -61
q78 -32 120 -83.5t42 -115.5q0 -59 -26.5 -123.5t-74 -126t-113.5 -116.5t-145.5 -96.5t-169 -66t-184.5 -24.5q-103 0 -201 39t-173.5 113t-121.5 180.5t-46 241.5q0 130 91.5 291.5t267.5 350.5l-7 21q-15 1 -33.5 1.5t-33.5 1.5q-45 -12 -92.5 -25t-92.5 -25l62 123h398
l-186 -280v1q-73 -155 -73 -296q0 -88 20 -163.5t53 -136.5t75.5 -108t87 -79t88 -48.5t77.5 -16.5q69 0 131 21t109 58.5t75 88t29 110.5q-14 24 -22 35t-21.5 19t-39.5 16.5t-76 27.5q-55 21 -111 43t-101.5 40t-74 29t-28.5 10q-124 76 -124 197q0 47 23 84t74 70
t131 65.5t194 70.5q170 -127 317 -127q-37 -32 -57 -77.5t-22 -117.5h-1z" />
    <glyph glyph-name="uni06CC_uni0659.fin" unicode="&#xfbfd;&#x659;" horiz-adv-x="1079" 
d="M703 860q-5 1 -13 1.5t-19 2.5q-17 2 -38.5 4.5t-44.5 6.5l-114 18q-10 1 -20 2.5t-20 2.5q-2 1 -22 1h-25q-20 0 -37.5 -0.5t-34.5 -1.5q-9 -1 -18.5 -1.5t-17.5 -0.5q-6 0 -11 -4l-38 -10q-7 -1 -33 -12l-45 88q2 0 3 1l13 5l6 1q29 8 57 11.5t54 3.5q9 0 18 -0.5
t18 -1.5q63 -8 123.5 -12t120.5 -4q15 0 29.5 0.5t28.5 1.5t27.5 1h27.5q85 0 85 -39q0 -24 -29 -59zM1079 271q-17 10 -48 10q-45 0 -151 -25q-2 0 -4 -0.5t-4 -0.5q-29 0 -90 38h1q-30 17 -55.5 35t-44.5 35q-47 -3 -47 -50q0 -23 16 -46t46 -47q39 -28 120 -56
q8 -3 48.5 -15t112.5 -33q38 -11 68 -21t50 -18q66 -30 103 -68.5t53 -91.5q3 -18 3 -41q0 -57 -23.5 -119t-68.5 -129q-39 -52 -93 -98.5t-118.5 -84.5t-138 -66t-150.5 -42q-66 -12 -121 -12q-155 0 -274 76t-198 215q-34 63 -52.5 135t-18.5 146q0 130 91.5 292.5
t267.5 351.5q-2 5 -3.5 10t-3.5 10q-14 0 -33 1t-33 1q-45 -12 -92 -24.5t-92 -24.5l60 121h400l-187 -278v1q-73 -152 -73 -297q0 -57 13.5 -118.5t36.5 -121.5q59 -136 134 -213t165 -90q24 -7 53 -7q128 0 225 70q57 38 86 90t31 115q-13 23 -28.5 40.5t-29.5 24.5
q-9 2 -34.5 10.5t-66.5 23.5l-198 78q-46 17 -79 29.5t-38 14.5q-124 79 -124 200q0 57 39.5 103t114.5 80q30 15 71 32t87 35q8 3 18 7.5t22 9.5q14 5 30.5 12t36.5 15q11 -8 63.5 -52t148.5 -125v-53z" />
    <glyph glyph-name="uni06CC_uni0659.ini" unicode="&#xfbfe;&#x659;" horiz-adv-x="788" 
d="M553 925q-3 1 -6 1t-7 1q-15 2 -37.5 6.5l-47.5 9.5l-98 21q-8 2 -17 3t-17 3q-2 1 -19 1h-21q-17 0 -32.5 -0.5t-29.5 -1.5q-7 -1 -15 -1.5t-15 -0.5q-6 0 -10 -4l-33 -13q-2 -1 -8.5 -4t-19.5 -11l-38 106q1 0 2 1l11 5l5 1q50 18 95 18q8 0 15 -0.5t17 -1.5
q54 -9 105.5 -14t102.5 -5q12 0 24 0.5t24 1.5t24 1h24q73 0 73 -46q0 -29 -25 -70zM480 -187q-10 -9 -21 -19t-22 -19q-32 -28 -64 -58h-9q-35 20 -67.5 38.5t-65.5 37.5q-13 8 -27.5 16.5t-27.5 15.5v11q22 29 57 65t83 79l173 -101q24 32 48 58.5t50 47.5q29 -18 55 -35
l52 -34l46 -30t48 -31q-16 -15 -30 -28.5t-28 -26.5l-38 -36t-41 -39zM546 340q0 -72 -67 -130q-34 -29 -67.5 -44t-68.5 -15q-4 0 -7 0.5t-7 0.5q-5 1 -16 1q-39 16 -78.5 31t-78.5 31t-78.5 32t-77.5 30l-8 5q-9 5 -20.5 12t-21.5 12q13 5 18.5 7t10.5 4q3 1 6.5 2t9.5 3
l122 -27h15q56 0 103 28q56 44 56 101v121q-6 12 -14.5 30t-13.5 30h305l-22 -62v-203z" />
    <glyph glyph-name="uni06CC_uni0659.med" unicode="&#xfbff;&#x659;" horiz-adv-x="547" 
d="M553 925q-3 1 -6 1t-7 1q-15 2 -37.5 6.5l-47.5 9.5l-98 21q-8 2 -17 3t-17 3q-2 1 -19 1h-21q-17 0 -32.5 -0.5t-29.5 -1.5q-7 -1 -15 -1.5t-15 -0.5q-6 0 -10 -4l-33 -13q-2 -1 -8.5 -4t-19.5 -11l-38 106q1 0 2 1l11 5l5 1q50 18 95 18q8 0 15 -0.5t17 -1.5
q54 -8 105.5 -14t102.5 -5q12 0 24 0.5t24 1.5t24 1h24q73 0 73 -46q0 -29 -25 -70zM480 -187q-26 -24 -53.5 -48t-53.5 -48h-9q-35 20 -67.5 38.5t-65.5 37.5q-13 8 -27.5 16.5t-27.5 15.5v11q22 29 57 65t83 79l173 -101q24 32 48 58.5t50 47.5q29 -18 55 -35l52 -34
l46 -30t48 -31q-16 -15 -30 -28.5t-28 -26.5l-38 -36t-41 -39zM546 340q0 -72 -67 -130q-34 -29 -67.5 -44t-68.5 -15q-4 0 -7 0.5t-7 0.5q-5 1 -16 1q-39 16 -78.5 31t-78.5 31t-78.5 32t-77.5 30l-8 5q-9 5 -20.5 12t-21.5 12q13 5 18.5 7t10.5 4q3 1 6.5 2t9.5 3l122 -27
h15q56 0 103 28q56 44 56 101v121q-6 12 -14.5 30t-13.5 30h305l-22 -62v-203z" />
    <glyph glyph-name="afii57448_uni0659" unicode="&#x648;&#x659;" horiz-adv-x="1164" 
d="M748 1066q-5 1 -13 1.5t-19 2.5q-17 2 -38.5 4t-44.5 6l-114 18q-10 1 -20 2.5t-20 2.5q-2 1 -22 1h-25q-20 0 -37.5 -0.5t-34.5 -1.5q-9 -1 -18.5 -1.5t-17.5 -0.5q-5 0 -12 -4l-38 -10q-4 -1 -12 -3.5t-21 -7.5l-45 87q2 0 3 1l13 5l6 1q57 15 112 15q9 0 18 -0.5
t18 -1.5q63 -8 123.5 -12t120.5 -4q15 0 29.5 0.5t28.5 1.5t27.5 1h27.5q85 0 85 -39q0 -24 -29 -58zM515 764q-68 -30 -107 -82t-39 -121q0 -26 8 -63q16 -57 47 -111t73 -94q35 -29 76.5 -52.5t83.5 -36.5q32 -9 75 -9h55q-1 72 -15 142.5t-38.5 135t-59.5 122t-78 105.5
q-24 25 -45.5 45t-29.5 20zM995 199q-24 -112 -78.5 -199.5t-138.5 -153.5q-170 -131 -403 -131q-80 0 -168 17q-120 71 -207 250q73 2 131.5 18.5t112.5 47.5q12 -43 30.5 -83.5t44.5 -75.5q35 -45 77 -74t90 -44q146 38 222.5 134t78.5 244q-14 2 -30 4.5t-30 4.5
q-36 4 -74.5 8t-77 7t-74 4.5t-64.5 1.5q-56 0 -102 -3.5t-84 -10.5q-135 113 -135 350q0 33 75 111q47 47 99.5 88t109.5 73q71 38 144.5 58.5t144.5 20.5q66 0 127 -16q198 -198 198 -484q0 -88 -19 -167z" />
    <glyph glyph-name="afii57448_uni0659.fin" unicode="&#xfeee;&#x659;" horiz-adv-x="1014" 
d="M748 1066q-5 1 -13 1.5t-19 2.5q-17 2 -38.5 4t-44.5 6l-114 18q-10 1 -20 2.5t-20 2.5q-2 1 -22 1h-25q-20 0 -37.5 -0.5t-34.5 -1.5q-9 -1 -18.5 -1.5t-17.5 -0.5q-5 0 -12 -4l-38 -10q-4 -1 -12 -3.5t-21 -7.5l-45 87q2 0 3 1l13 5l6 1q57 15 112 15q9 0 18 -0.5
t18 -1.5q63 -8 123.5 -12t120.5 -4q15 0 29.5 0.5t28.5 1.5t27.5 1h27.5q85 0 85 -39q0 -24 -29 -58zM515 764q-68 -30 -107 -82t-39 -121q0 -26 8 -63q16 -57 47 -111t73 -94q35 -29 76.5 -52.5t83.5 -36.5q32 -9 75 -9h55q-1 72 -15 142.5t-38.5 135t-59.5 122t-78 105.5
q-24 25 -45.5 45t-29.5 20zM995 199q-24 -112 -78.5 -199.5t-138.5 -153.5q-170 -131 -403 -131q-80 0 -168 17q-120 71 -207 250q73 2 131.5 18.5t112.5 47.5q12 -43 30.5 -83.5t44.5 -75.5q35 -45 77 -74t90 -44q146 38 222.5 134t78.5 244q-14 2 -30 4.5t-30 4.5
q-36 4 -74.5 8t-77 7t-74 4.5t-64.5 1.5q-56 0 -102 -3.5t-84 -10.5q-135 113 -135 350q0 33 75 111q47 47 99.5 88t109.5 73q71 38 144.5 58.5t144.5 20.5q66 0 127 -16q198 -198 198 -484q0 -88 -19 -167z" />
    <glyph glyph-name="uniFC5D" unicode="&#x649;&#x670;" horiz-adv-x="1405" arabic-form="isolated" 
d="M405 1380l-7 -384l2.5 -7.5t2.5 -6.5h-103q11 11 12 27v344q-1 5 -3 11.5t-6 14.5zM1107 358q-31 17 -91 35.5t-147 40.5q-42 11 -90 40t-96 75q-23 -2 -35.5 -15t-12.5 -39q0 -28 8.5 -46t28.5 -31.5t54 -26t85 -29t120.5 -40.5t161.5 -61q78 -32 120 -83.5t42 -115.5
q0 -59 -26.5 -123.5t-74 -126t-113.5 -116.5t-145.5 -96.5t-169 -66t-184.5 -24.5q-103 0 -201 39t-173.5 113t-121.5 180.5t-46 241.5q0 130 91.5 291.5t267.5 350.5l-7 21q-15 1 -33.5 1.5t-33.5 1.5q-45 -12 -92.5 -25t-92.5 -25l62 123h398l-186 -280v1
q-73 -155 -73 -296q0 -88 20 -163.5t53 -136.5t75.5 -108t87 -79t88 -48.5t77.5 -16.5q69 0 131 21t109 58.5t75 88t29 110.5q-14 24 -22 35t-21.5 19t-39.5 16.5t-76 27.5q-55 21 -111 43t-101.5 40t-74 29t-28.5 10q-124 76 -124 197q0 47 23 84t74 70t131 65.5t194 70.5
q170 -127 317 -127q-37 -32 -57 -77.5t-22 -117.5h-1z" />
    <glyph glyph-name="uniFC90" unicode="&#xfef0;&#x670;" horiz-adv-x="1079" arabic-form="final" 
d="M407 1188l-7 -27v-357l2.5 -7.5t2.5 -6.5h-103q11 11 12 27v344q-1 5 -3 11.5t-6 14.5zM1079 271q-17 10 -48 10q-45 0 -151 -25q-2 0 -4 -0.5t-4 -0.5q-29 0 -90 38h1q-30 17 -55.5 35t-44.5 35q-47 -3 -47 -50q0 -23 16 -46t46 -47q39 -28 120 -56q8 -3 48.5 -15
t112.5 -33q38 -11 68 -21t50 -18q66 -30 103 -68.5t53 -91.5q3 -18 3 -41q0 -57 -23.5 -119t-68.5 -129q-39 -52 -93 -98.5t-118.5 -84.5t-138 -66t-150.5 -42q-66 -12 -121 -12q-155 0 -274 76t-198 215q-34 63 -52.5 135t-18.5 146q0 130 91.5 292.5t267.5 351.5
q-2 5 -3.5 10t-3.5 10q-14 0 -33 1t-33 1q-45 -12 -92 -24.5t-92 -24.5l60 121h400l-187 -278v1q-73 -152 -73 -297q0 -57 13.5 -118.5t36.5 -121.5q59 -136 134 -213t165 -90q24 -7 53 -7q128 0 225 70q57 38 86 90t31 115q-13 23 -28.5 40.5t-29.5 24.5q-9 2 -34.5 10.5
t-66.5 23.5l-198 78q-46 17 -79 29.5t-38 14.5q-124 79 -124 200q0 57 39.5 103t114.5 80q30 15 71 32t87 35q8 3 18 7.5t22 9.5q14 5 30.5 12t36.5 15q11 -8 63.5 -52t148.5 -125v-53z" />
    <glyph glyph-name="uniFEF5" unicode="&#xe80a;&#xe800;" horiz-adv-x="1277" arabic-form="isolated" 
d="M235 1241q14 -3 26 -5t25 -2q37 0 123 34l62 -76q-123 -55 -196 -63q-21 0 -38 2.5t-36 7.5t-43.5 14t-61.5 21q-35 -11 -69.5 -25t-64.5 -32q-2 4 -7.5 14t-14 22t-19.5 24.5t-23 21.5q36 21 62.5 35t49 23t44 13t46.5 4zM740 556q-85 -32 -129 -78.5t-44 -106.5
q0 -19 1.5 -32.5t8.5 -25t20 -23t35 -27.5q61 -42 93 -44q15 0 15 11v326zM79 893q-28 24 -39 30.5t-14 6.5q-8 5 -15.5 10t-12.5 7l450 87q-10 -12 -10 -36q0 -14 2 -28.5t6 -30.5v1q75 -77 148.5 -152.5t148.5 -152.5q1 5 4.5 30t7 53.5t7 53.5t4.5 30q5 45 8 88.5t3 83.5
q0 194 -66 423h416q-94 -343 -94 -650q0 -148 21.5 -296t64.5 -301h-660q-101 0 -101 55q0 13 4 25t15.5 31.5t32 51.5t54.5 85q34 56 34 82v19z" />
    <glyph glyph-name="uniFEF6" unicode="&#xe80e;&#xe801;" horiz-adv-x="1085" arabic-form="final" 
d="M740 556q-85 -32 -129 -78.5t-44 -106.5q0 -24 16 -51t40 -49.5t51.5 -37t50.5 -14.5q15 0 15 11v326zM79 893q-29 25 -42.5 35t-19 13t-8.5 2.5t-11 3.5l450 87q-10 -12 -10 -36q0 -14 2 -28.5t6 -30.5v1q75 -77 148.5 -152.5t148.5 -152.5q1 6 3.5 32t6.5 61.5t8 76
t7.5 76t6 61.5t2.5 32q0 194 -66 423h416q-94 -343 -94 -650q0 -148 21.5 -296t64.5 -301h-660q-101 0 -101 55q0 9 22 28t48 51.5t48 80.5t22 115v19zM235 1241q14 -3 26 -5t25 -2q37 0 123 34l62 -76q-123 -55 -196 -63q-21 0 -38 2.5t-36 7.5t-43.5 14t-61.5 21
q-35 -11 -69.5 -25t-64.5 -32q-2 4 -7.5 14t-14 22t-19.5 24.5t-23 21.5q36 21 62.5 35t49 23t44 13t46.5 4z" />
    <glyph glyph-name="uniFEF7" unicode="&#xe80a;&#xe802;" horiz-adv-x="1277" arabic-form="isolated" 
d="M740 556q-85 -32 -129 -78.5t-44 -106.5q0 -19 1.5 -32.5t8.5 -25t20 -23t35 -27.5q61 -42 93 -44q15 0 15 11v326zM71 1260q20 6 69 18q0 103 -46 171q68 53 68 129h2q73 -130 132 -130h4l13 1q28 3 28 41q0 20 -7 33q11 6 17 6q31 -6 31 -73q0 -46 -19 -68.5t-44 -22.5
q-28 0 -54.5 23t-43.5 73q-30 -55 -30 -104q0 -20 3 -40v1l5 -14q2 -2 4 -8t4 -9q22 0 43.5 1.5t39 3.5t30 3.5t15.5 2.5v-173l-166 2q-17 0 -37 0.5t-43 1.5h-12q-16 0 -33 -52q-5 20 -64 131q32 32 91 52zM79 893q-29 25 -42.5 35t-19 13t-8.5 2.5t-11 3.5l450 87
q-10 -12 -10 -36q0 -14 2 -28.5t6 -30.5v1q75 -77 148.5 -152.5t148.5 -152.5q1 6 3.5 32t6.5 61.5t8 76t7.5 76t6 61.5t2.5 32q0 194 -66 423h416q-94 -343 -94 -650q0 -148 21.5 -296t64.5 -301h-660q-101 0 -101 55q0 13 4 25t15.5 31.5t32 51.5t54.5 85q34 56 34 82v19z
" />
    <glyph glyph-name="uniFEF8" unicode="&#xe80e;&#xe803;" horiz-adv-x="1085" arabic-form="final" 
d="M740 556q-85 -32 -129 -78.5t-44 -106.5q0 -24 16 -51t40 -49.5t51.5 -37t50.5 -14.5q15 0 15 11v326zM107 1289q5 2 10.5 3t12.5 3q0 100 -45 170q68 53 68 131h2q73 -132 132 -132h4l14 2q28 0 28 40q0 22 -6 34q11 8 17 8q30 -9 30 -75q0 -45 -19 -68.5t-45 -23.5
q-57 0 -98 95q-31 -52 -31 -103q0 -9 0.5 -16t2 -14.5t5 -16.5t9.5 -22h26.5t29.5 0.5t28.5 1.5t23.5 2l19 9v-177l-163 2q-17 -1 -36 0.5t-42 1.5h-15q-16 0 -33 -50q-6 22 -66 131q13 13 27 22t30 16t35.5 13t44.5 13zM79 893q-29 25 -42.5 35t-19 13t-8.5 2.5t-11 3.5
l450 87q-10 -12 -10 -36q0 -14 2 -28.5t6 -30.5v1q75 -77 148.5 -152.5t148.5 -152.5q1 6 3.5 32t6.5 61.5t8 76t7.5 76t6 61.5t2.5 32q0 194 -66 423h416q-94 -343 -94 -650q0 -148 21.5 -296t64.5 -301h-660q-101 0 -101 55q0 9 22 28t48 51.5t48 80.5t22 115v19z" />
    <glyph glyph-name="uniFEF9" unicode="&#xe80a;&#xe804;" horiz-adv-x="1277" arabic-form="isolated" 
d="M740 556q-85 -32 -129 -78.5t-44 -106.5q0 -24 16 -51t40 -49.5t51.5 -37t50.5 -14.5q15 0 15 11v326zM191 -243q20 4 69 21q0 101 -47 169q70 52 70 130h2q72 -131 131 -131h4l13 1q27 1 27 42q0 17 -5 34q10 5 18 5q30 -6 30 -71q0 -48 -19.5 -71.5t-44.5 -23.5
q-26 0 -54.5 24t-45.5 74q-29 -54 -29 -106q0 -9 -0.5 -15t1 -13t5.5 -16t13 -23h95q11 2 15 4l18 7v-174h-166q-19 0 -40 0.5t-44 1.5h-9q-17 0 -34 -45h-2q-3 20 -61 128q35 32 90 48zM79 893q-29 25 -42.5 35t-19 13t-8.5 2.5t-11 3.5l450 87q-10 -12 -10 -36
q0 -14 2 -28.5t6 -30.5v1q75 -77 148.5 -152.5t148.5 -152.5q1 6 3.5 32t6.5 61.5t8 76t7.5 76t6 61.5t2.5 32q0 194 -66 423h416q-94 -343 -94 -650q0 -148 21.5 -296t64.5 -301h-660q-101 0 -101 55q0 13 4 25t15.5 31.5t32 51.5t54.5 85q34 56 34 82v19z" />
    <glyph glyph-name="uniFEFA" unicode="&#xe80e;&#xe805;" horiz-adv-x="1085" arabic-form="final" 
d="M740 556q-85 -32 -129 -78.5t-44 -106.5q0 -43 14 -60q8 -16 51 -48q64 -44 93 -44q15 0 15 11v326zM295 -252q18 7 69 21q0 102 -47 170q71 53 71 131h2q69 -132 130 -132h3l14 1q28 2 28 42q0 11 -2 19.5t-6 16.5q11 3 19 3q31 -7 31 -74q0 -18 -3 -33q-16 -58 -61 -58
t-80 57q-7 13 -20 40q-30 -56 -30 -106q0 -19 6 -38q2 -11 10 -29h99q11 2 15 4l15 5v-171h-165q-19 0 -43 1t-50 3q-16 -3 -32 -54q-4 9 -20 43t-44 89q16 16 39.5 28.5t51.5 20.5zM79 893q-15 13 -26 21t-16 10q-2 1 -6 3.5t-5 2.5q-8 5 -15.5 10t-12.5 7l450 87
q-10 -12 -10 -36q0 -14 2 -28.5t6 -30.5v1q75 -77 148.5 -152.5t148.5 -152.5q5 42 11.5 83.5t11.5 83.5q5 45 8 88.5t3 83.5q0 194 -66 423h416q-94 -343 -94 -650q0 -148 21.5 -296t64.5 -301h-660q-101 0 -101 55q0 23 41 91q8 11 24 37t41 65q34 56 34 82v19z" />
    <glyph glyph-name="uniFEFB" unicode="&#xe80a;&#xe806;" horiz-adv-x="1277" arabic-form="isolated" 
d="M740 556q-85 -32 -129 -78.5t-44 -106.5q0 -24 16 -51t40 -49.5t51.5 -37t50.5 -14.5q15 0 15 11v326zM79 893q-29 25 -42.5 35t-19 13t-8.5 2.5t-11 3.5l450 87q-10 -12 -10 -36q0 -14 2 -28.5t6 -30.5v1q75 -77 148.5 -152.5t148.5 -152.5q1 6 3.5 32t6.5 61.5t8 76
t7.5 76t6 61.5t2.5 32q0 194 -66 423h416q-94 -343 -94 -650q0 -148 21.5 -296t64.5 -301h-660q-101 0 -101 55q0 13 4 25t15.5 31.5t32 51.5t54.5 85q34 56 34 82v19z" />
    <glyph glyph-name="uniFEFC" unicode="&#xe80e;&#xe807;" horiz-adv-x="1085" arabic-form="final" 
d="M740 556q-85 -32 -129 -78.5t-44 -106.5q0 -43 14 -60q8 -16 51 -48q64 -44 93 -44q15 0 15 11v326zM79 893q-15 13 -26 21t-16 10q-2 1 -6 3.5t-5 2.5q-8 5 -15.5 10t-12.5 7l450 87q-10 -12 -10 -36q0 -14 2 -28.5t6 -30.5v1q75 -77 148.5 -152.5t148.5 -152.5
q1 5 4.5 30t7 53.5t7 53.5t4.5 30q5 45 8 88.5t3 83.5q0 194 -66 423h416q-94 -343 -94 -650q0 -148 21.5 -296t64.5 -301h-660q-101 0 -101 55q0 23 41 91q8 11 24 37t41 65q34 56 34 82v19z" />
    <glyph glyph-name="afii57451" unicode="&#xfe70;" arabic-form="isolated" 
d="M453 1801q-221 -21 -439 -92q-1 1 -1 6.5v8.5q-3 5 -4 17v19q-1 2 -3 12q35 14 99.5 35.5t151.5 48.5q15 5 29.5 9t25.5 6q27 5 55.5 10.5t55.5 10.5zM488 1671q-220 -21 -438 -96v15l-3 21q-1 4 -1.5 9t-1.5 8l-2 14l100 36q9 3 21.5 7.5t28.5 10.5q6 1 19 6
q19 6 52 15.5t87 21.5l114 19z" />
    <glyph glyph-name="afii57452" unicode="&#xfe72;" arabic-form="isolated" 
d="M286 1786q11 -10 41 -10q11 0 21 1t20 3l29 -3q8 -2 14 -4t10 -4q2 7 2.5 12t0.5 10q0 33 -28 55q-2 2 -6 4.5t-9 4.5q-28 25 -67 25q-12 -2 -25 -3.5t-25 -3.5h-28q-4 -10 -4 -19t5 -20t13 -24q19 -24 35 -24h1zM301 1714q2 2 5 3t6 3q-12 5 -36 5q-51 38 -59 83
q-1 3 -1 7v9q0 34 14 70q30 17 54 42q5 5 9 10t8 12q29 -26 68 -26q70 -25 70 -95q0 -24 -0.5 -38t-1.5 -20q9 1 11 5q1 1 17 8l34 -76q-95 -29 -182 -68.5t-169 -87.5q-3 9 -8 23.5t-10 33.5q0 29 -6 53.5t-17 42.5q-38 -84 -76 -84q-52 0 -52 86q0 61 27 61h12
q-5 -7 -5 -13q-4 -9 -4 -25q0 -11 7 -19.5t15 -13.5q3 0 7 -2q30 2 60 33t57 93q7 -59 21.5 -101t37.5 -65q6 3 16.5 8.5t17.5 9.5h-1q29 17 54 33z" />
    <glyph glyph-name="afii57453" unicode="&#xfe74;" arabic-form="isolated" 
d="M512 -725q-56 0 -111 -13q-17 -1 -109 -21q-54 -11 -108.5 -26.5t-109.5 -35.5q-1 1 -1.5 5.5t-0.5 8.5q-2 4 -3 8.5t-3 8.5v21l-2 12l25 12l22 8q10 4 21.5 8.5t21.5 8.5l96 31l86 21q29 8 67.5 15.5t82.5 15.5zM477 -598q-73 0 -220 -30q-57 -11 -112.5 -25t-109.5 -34
q-1 3 -1 14l-3 21l-1 19v7q179 82 418 120z" />
    <glyph glyph-name="afii57454" unicode="&#xfe76;" arabic-form="isolated" 
d="M472 1671q-109 -11 -217.5 -35.5t-218.5 -61.5q-2 9 -5 25.5t-5 40.5q208 82 422 117z" />
    <glyph glyph-name="afii57455" unicode="&#xfe78;" arabic-form="isolated" 
d="M184 1817q39 -33 83 -33q2 0 5 0.5t7 0.5q5 1 11.5 1h9.5q45 0 59 -11q0 10 1 18t1 18q-6 33 -45 55q-40 23 -64 20l-81 -8q-2 -10 -2 -15q0 -23 15 -46zM401 1801l36 -79q-179 -56 -352 -151q0 7 -3 14q-10 29 -15 39q14 7 32.5 17t40.5 22h-1q29 17 56.5 32.5
t54.5 30.5q-8 4 -16 5t-19 1q-63 39 -63 111q0 26 7 47q0 2 2 4v-1q1 2 1.5 3.5t1.5 3.5q49 28 76 64q29 -24 68 -24q21 -11 35 -21t21 -18q4 -5 7 -15t7 -25l-3 -74z" />
    <glyph glyph-name="afii57456" unicode="&#xfe7a;" arabic-form="isolated" 
d="M482 -621q-61 0 -123 -13l-91 -20q-45 -8 -101 -23.5t-123 -37.5q-1 3 -1 15l-1 21v9l-1 8v6q-1 1 -1 4l66 30l66 22l65 18q11 4 23.5 8t28.5 8l51 12q23 4 44.5 8t42.5 8q8 2 16 3t16 3z" />
    <glyph glyph-name="afii57457" unicode="&#xfe7c;" arabic-form="isolated" 
d="M66 1707q-47 -29 -47 -61q0 -5 2.5 -12.5t6.5 -12.5q14 -13 30 -20.5t33 -7.5t37 6.5t39 17.5v105q-5 1 -12.5 1h-16.5q-42 0 -73 -16h1zM555 1726q-27 -7 -29 -20v-90q-9 -23 -41 -38q-35 -11 -67 -9q-6 0 -12.5 1t-12.5 1l-127 24q-51 -31 -110 -31l-29 11q-36 5 -60 9
t-32 7q-26 8 -48.5 19t-35.5 24h1q-7 4 -12 9l-12 12q-3 11 -3 21q0 72 113 81l129 -25q5 4 15.5 10.5t24.5 14.5l103 -26l-29 -15v-99q18 -5 36.5 -10t36.5 -10q12 10 25 20.5t25 20.5v85q7 19 40 34z" />
    <glyph glyph-name="afii57458" unicode="&#xfe7e;" arabic-form="isolated" 
d="M141 1765q0 -4 -1 -9t-1 -8q0 -7 1 -8q0 -7 3 -15l5 -11l1 -4q22 -28 51.5 -43.5t64.5 -15.5q51 -8 73 -28q4 4 7 8.5t3 6.5l2 19q0 14 -6 29t-15 29q-47 54 -100 55h-41q-2 0 -9.5 2t-16.5 4q-4 1 -8 1.5t-6 2.5zM339 1802h-1q8 -4 16 -15v1l15 -15q1 -2 1.5 -6t2.5 -8
l2 -6t2 -7l2 -32q2 -20 -5 -49.5t-24 -65.5h-5l-4 2h-6l-6 6h-4q-11 -3 -26 -10t-29 -16q-4 -5 -8.5 -9.5t-10.5 -8.5q-10 8 -21 15t-25 15h1q-11 4 -22 8.5t-22 8.5q-46 40 -46 108q0 23 6.5 42t22.5 42q51 13 99 58q34 -33 83 -49z" />
    <glyph glyph-name="uniFDFA" unicode="&#xfdfa;" horiz-adv-x="2827" arabic-form="isolated" 
d="M1861 135q8 0 16.5 5t16 12.5t12 18t4.5 20.5q0 28 -14.5 46.5t-41.5 18.5q-16 0 -26 -10t-15.5 -21.5t-7.5 -21.5l-2 -10v2q0 -26 17.5 -43t40.5 -17zM384 309q0 -22 15 -37t35.5 -24t41 -12.5t32.5 -3.5q19 0 26.5 5t7.5 16q-3 14 -16.5 28.5t-31.5 26.5t-38 20t-37 8
q-35 0 -35 -27zM433 -111q14 -21 59 -21q27 0 41.5 4t21 14.5t7.5 28.5t1 45q0 15 -11 15q-9 0 -30.5 -7t-43.5 -17t-39 -21t-17 -19q0 -9 11 -22zM665 988q19 0 35.5 10t16.5 24v40q0 49 -20 49q-6 0 -26 -9.5t-41.5 -23t-38.5 -28.5t-17 -26t10.5 -18t25 -11t30 -5.5
t25.5 -1.5zM2280 326q5 19 7.5 30.5t7 20t13.5 17t27 20.5l279 171q0 -43 -10 -60v1q-10 -19 -48 -43zM2021 1445q5 28 9.5 44t11.5 26t18 16.5t29 15.5q78 40 156.5 83.5t155.5 83.5q0 -22 -1.5 -37.5t-7.5 -26.5t-18 -20.5t-33 -21.5zM854 1633q0 -12 0.5 -29.5t4.5 -34
t12.5 -28.5t24.5 -12q15 0 26.5 14.5t19.5 39.5l3 18q5 29 6.5 46t4.5 25l13 7q3 -22 6.5 -41.5t8.5 -34t11.5 -23t16.5 -8.5q17 0 28 14t18.5 36t10.5 48t3 50h14q14 -33 14 -77q0 -26 -5 -49.5t-14.5 -41t-24 -27.5t-33.5 -10q-24 0 -56 12q-3 -9 -9.5 -19.5t-16 -19.5
t-23.5 -15t-32 -6q-27 0 -45.5 22.5t-18.5 53.5q0 52 15 82zM2252 916q103 0 162.5 8t89.5 18.5t38 20.5t8 15q0 18 -15.5 30.5t-39 20t-50 10.5t-48.5 3q-24 0 -47.5 -8t-44 -20.5t-38 -27t-30 -27t-19.5 -21.5t-7 -10q0 -12 41 -12zM1788 -633l-117 80l80 106l101 -69
q17 20 37 40.5t37 40.5l106 -68l-79 -117l-100 70zM1463 969l-8 246t-8 247q0 39 9.5 67.5t20.5 47.5t20 28.5t8 9.5q1 0 3 -28.5t4.5 -72.5t5.5 -97.5t5 -103t3.5 -88.5t1.5 -54v-94q-5 -40 -5 -73t-2.5 -63t-10.5 -60t-29 -65q-18 9 -18 23v130zM1930 53q0 20 -7 20
q-4 0 -11 -7.5t-17 -16.5t-25 -16.5t-36 -7.5q-38 0 -59.5 16.5t-32.5 36.5t-13.5 37t-2.5 19q0 39 11 70.5t25 54t26 35.5t13 15q21 29 42.5 46t44.5 17q31 0 51.5 -24t33 -56.5t17.5 -66.5t5 -55v-67q0 -14 -5.5 -40.5t-21 -58.5t-42 -65.5t-69 -61t-102 -45t-140.5 -17.5
q-28 0 -62 12t-64 28.5t-50 35t-20 32.5q8 2 13 2q14 0 43 -8.5t77 -8.5q109 0 182 17t116.5 40t61.5 48t18 40zM991 1077q0 34 -4 75t-9.5 78.5t-10.5 67.5l-7 42q0 14 8 32t19 35t21.5 28.5t16.5 11.5l3 -23.5t7.5 -59.5t9.5 -79t10.5 -81.5t10.5 -68t8 -37.5v1
q2 -4 4 -7.5t4 -7.5l21 -41v1q13 -21 31 -35.5t47 -14.5q14 0 31 8.5t32 22.5q-1 56 -5.5 111t-9.5 100.5t-9.5 79t-4.5 46.5q0 82 36 112q8 -3 13.5 -19t9 -39t5.5 -50t3.5 -52t2 -45.5t2.5 -30.5q15 -94 15 -100v-13v-31.5t2 -36.5q0 -41 -6 -82.5t-20.5 -75t-39 -54.5
t-62.5 -21q-27 0 -61 29.5t-64 88.5q-5 9 -9.5 14t-12.5 5q-1 0 -12 -21.5t-34.5 -47.5t-59.5 -47.5t-87 -21.5q-37 0 -57.5 18.5t-32 41.5t-18 42.5t-16.5 21.5q-1 -1 -9 -10t-25.5 -19.5t-45 -19t-68.5 -8.5q-46 0 -71.5 12.5t-25.5 39.5q0 33 18.5 62t46 54.5t59.5 48
t60 43t47 38.5t20 36q1 15 8 32.5t16 32.5t18.5 25t16.5 10q11 0 11 -27q0 -15 -1 -37t-2 -42.5t-2 -34.5l-1 -14v3q0 -81 23.5 -129t69.5 -48q20 0 40.5 5t37.5 15.5t27.5 25.5t10.5 36zM1411 49q-3 5 -5 16.5t-9 13.5q-32 -32 -58 -54.5t-48 -36.5t-39.5 -20.5t-33.5 -6.5
q-19 0 -33 11t-24 24t-17 24t-12 11q-14 0 -35 -8.5t-43.5 -18.5t-43.5 -18.5t-35 -8.5h-35q-22 0 -52 3t-62 14.5t-63.5 33t-56.5 59t-40.5 92.5t-15.5 133q0 53 -8.5 72t-22.5 19q-5 0 -11.5 -4t-12 -9.5t-9.5 -11t-4 -8.5l16 -43q8 -20 9 -40t1 -34q0 -42 -11 -66.5
t-26.5 -37.5t-31.5 -17t-26 -4q-18 0 -32.5 3t-30.5 10t-35.5 18.5t-48.5 27.5h-1q-6 3 -12 3q-20 0 -37.5 -16t-37 -35.5t-43.5 -36t-58 -16.5q-8 0 -21 3t-25.5 9t-21.5 15.5t-9 21.5q61 9 100 22.5t62 30.5t33 36t14 37.5t4.5 35.5t3.5 31q8 33 35 51t58 26.5t57.5 11
t33.5 3.5q18 4 39.5 11t40 17.5t31 26t12.5 37.5q0 17 -0.5 36t-1.5 41v12q0 20 -1 44.5t-1 39.5v63q0 17 3.5 29.5t10.5 23.5t16 23l21 28q4 0 6.5 -27.5t5 -69t4 -91.5t3 -95.5t3 -80t3.5 -45.5q14 -87 30.5 -150.5t50 -105t90.5 -61.5t151 -20q18 0 41 3.5t48 12.5
t50.5 24t47.5 37q0 -8 2 -21t7 -25.5t13 -21.5t19 -9q47 0 82 20.5t59 45t37 45t14 20.5q3 0 7 -15.5t13.5 -33.5t27 -33.5t47.5 -15.5q15 0 24 15v-1q1 2 1 5q0 9 -9.5 22t-9.5 24q0 9 3.5 24.5t9.5 29.5t14.5 24.5t19.5 10.5q6 0 14 -5.5t15.5 -16t12.5 -25.5t5 -33
q0 -34 -13.5 -73t-33.5 -72.5t-44.5 -56t-45.5 -22.5q-24 0 -46.5 16t-38.5 45v-1zM2145 810q-5 -4 -14 -18t-18.5 -31.5t-19 -33t-16.5 -22.5q-12 14 -15 24.5t-3 18.5v11v42q0 5 -14.5 14.5t-32.5 20t-32.5 19.5t-14.5 12q0 2 4 2q-6 0 -17.5 -7t-26.5 -15.5t-32.5 -15.5
t-35.5 -7q-31 0 -55 16.5t-40.5 37.5t-24.5 40.5t-8 25.5l1 2q-4 0 -13 -20.5t-18 -44.5t-16 -44.5t-9 -20.5v1q0 -4 19.5 -11t44.5 -15t48.5 -15.5t31.5 -12.5q50 -31 66.5 -53.5t16.5 -48.5q0 -6 -8 -30t-30 -56t-60 -67.5t-98.5 -65.5t-145.5 -49.5t-201 -19.5
q-18 0 -45 2t-57 10t-60 23.5t-54.5 42t-39.5 66.5t-15 97q1 27 5.5 49.5t8.5 43.5l6 30q10 47 24 68.5t18 21.5q5 0 10 -1.5t5 -6.5l-11 -115q0 -34 18 -66.5t53 -58.5t88 -42t123 -16q18 0 53 3.5t76 9.5t84.5 15.5t78.5 22t57.5 27.5t22.5 32q0 12 -16.5 21t-42 16.5
t-54.5 15t-54.5 16t-42 18t-16.5 21.5q0 7 8.5 25.5t21 44t27 55t27 57t21 50.5t8.5 37v248q0 44 1 90.5t2.5 87t4 71.5t6.5 43q4 14 11.5 33t15 36.5t15 30t11.5 12.5q9 0 9 -40q0 -29 -0.5 -56.5t-0.5 -52.5v-75q0 -111 4 -199t16.5 -149.5t36 -94t61.5 -32.5
q23 0 46.5 11t44 24.5t34.5 24.5t18 11t6 -15.5t9 -33.5t22 -33.5t45 -15.5q19 0 44 18.5t52.5 45t57.5 55.5t60 50q54 37 108 59t102 23q28 0 51.5 -12t40 -33t26 -48.5t9.5 -58.5q0 -41 -27.5 -81t-83.5 -71.5t-142.5 -51t-205.5 -19.5h-59zM1948 -311q-18 18 -22 18
q-15 -7 -61.5 -26.5t-121.5 -40t-176.5 -36.5t-226.5 -16q-15 0 -41.5 1t-59 3t-69 4.5t-70.5 5t-64 4.5t-50 4q-92 8 -158 26t-110 39.5t-70.5 45t-40 42.5t-17.5 32t-5 14v-1q-4 4 -6 12v-1q-3 0 -17 -8t-33.5 -17t-41.5 -17t-42 -8q-16 0 -39 5.5t-44 15.5t-35.5 23.5
t-14.5 28.5q0 30 19 57.5t47.5 51t62 42.5t63.5 32.5t52 20.5t27 7h1q0 -1 -3 -3q1 11 7.5 21.5t15 20t17 18t13.5 14.5q-5 -51 -6.5 -85.5t-1.5 -45.5q0 -15 6 -40t29 -53.5t69 -57t126 -52t199 -38t289 -14.5h212q27 0 54.5 0.5t55.5 0.5h34q45 0 90 14.5t82.5 33.5
t63.5 37t33 25q6 0 14.5 -14t21.5 -30.5t30 -30.5t41 -14q33 0 55 29t23 68l2 112q-2 36 -6 112.5t-4 185.5v126q3 51 11.5 89t17.5 63t17 37.5t11 12.5q6 0 8.5 -30t4 -79.5t2 -112.5t2.5 -128.5t5.5 -128.5t10.5 -112.5t18.5 -79.5t28.5 -30q36 4 36 13q0 1 -9 12.5
t-19.5 28.5t-19.5 37.5t-9 40.5q0 47 20.5 83.5t53.5 62.5t75.5 39.5t85.5 13.5q38 0 68 -16t50.5 -35.5t31.5 -37t11 -20.5q0 -5 -7 -5q-5 0 -19.5 5t-36.5 11.5t-49 11.5t-57 5q-13 0 -37 -3.5t-46.5 -11.5t-39.5 -21.5t-17 -33.5q0 -24 13 -46t35.5 -39.5t52.5 -28
t64 -10.5q35 0 61.5 5t50 12t44.5 14.5t44 12.5q5 0 9 -3.5t4 -9.5q0 -8 -6 -15v1q-8 -25 -35.5 -49t-66 -45.5t-84 -39t-89 -30.5t-81 -20t-61.5 -7q-28 0 -45 10.5t-27.5 23.5t-17.5 23.5t-15 10.5q-3 0 -6.5 -15.5t-9.5 -39.5t-15.5 -51t-24.5 -51t-37.5 -39.5
t-53.5 -15.5q-59 0 -104 57z" />
    <glyph glyph-name="uniFDF7" unicode="&#xfdf7;" horiz-adv-x="3075" arabic-form="isolated" 
d="M1353 1059q22 5 40.5 9.5t34.5 7.5q-3 8 -12.5 15.5t-21.5 13.5t-24 9.5t-21 3.5q-16 0 -24.5 -18.5t-9.5 -49.5q10 2 20 4.5zM780 172q-90 -37 -145 -65t-65 -42q17 -14 109 -14q38 0 67 7t48 19zM655 1212q0 -109 -28 -147l-2 1q1 8 1.5 21t0.5 32q0 32 -9 66.5
t-22.5 67t-29.5 62t-29.5 51.5t-23 35l-9.5 13h-2q0 51 10 70q28 -20 53.5 -52.5t45.5 -70t32 -77t12 -72.5zM737 -270l-318 -115l23 88l326 124zM477 780q0 -5 1 -12.5t1 -12.5q0 -25 -14 -40q-18 64 -45 64q-12 0 -12 -21q0 -12 2.5 -34t5.5 -46.5t5.5 -46t2.5 -32.5
q0 -15 -4 -39t-10 -46t-13.5 -38t-14.5 -16q-13 0 -17 13t-4 38q0 11 1 23.5t1 23.5q0 10 -14 35.5t-32 52t-36.5 48t-27.5 22.5q-3 -3 -7 -6t-7 -6q-77 0 -77 37v47q0 33 36 33q186 -103 187 -274q20 27 20 77q0 11 -3.5 33.5t-7.5 47.5t-7.5 48t-3.5 35q0 62 40 62
q54 0 54 -70zM1916 -458q-60 -97 -90 -97q-32 14 -56.5 24.5t-40.5 18.5q-10 -8 -21 -19t-22 -21.5t-21.5 -19.5t-19.5 -12l-124 62q38 48 61.5 74.5t31.5 34.5l114 -67q26 24 47 45t33 35zM1888 814q0 -100 -59 -100q-27 0 -55 25q-29 -28 -56.5 -45t-48.5 -17
q-85 0 -85 120q15 109 37 109q14 0 14 -22q0 -9 -4.5 -25.5t-4.5 -26.5q0 -51 43 -51q25 0 39 7.5t21 20t8.5 28t1.5 30.5v15v13t1 11q5 0 13.5 -13.5t19.5 -29t22.5 -29t22.5 -13.5q10 0 10 11q-9 17 -14.5 33.5t-5.5 31.5q8 39 21 74q59 -83 59 -157zM1928 1565l-818 -278
l22 79l818 279zM2870 351q0 -47 -6 -95t-16.5 -87.5t-25 -65t-30.5 -28.5v22q0 9 3.5 27.5t7.5 38.5t7.5 38t3.5 27q0 3 -3 32t-8 74t-12 101.5t-13.5 115.5t-13.5 116t-12.5 103t-9 75.5t-4.5 34.5q-26 186 -39 310.5t-15 180.5q0 8 3.5 27.5t10 39.5t15 35t17.5 15
q13 0 13 -36q0 -35 -2 -53t-2 -19l129 -958q1 -17 1.5 -35t0.5 -36zM1421 -171q0 41 -24.5 147t-71.5 272q-23 -2 -41 -3.5t-30 -1.5q-176 0 -270 126q-40 -49 -79 -92.5t-64 -69.5q20 -137 44.5 -222t67 -131.5t111 -62.5t175.5 -16q32 0 77.5 2.5t104.5 7.5v44zM2042 34
q0 75 -5 159t-13 169q-36 8 -58.5 18t-29.5 23q-55 -78 -167 -78q-88 0 -100 28q-22 -17 -41 -28t-46 -21t-69.5 -21t-112.5 -29q29 -124 46 -214t17 -130q0 -5 -1.5 -32.5t-3.5 -80.5q77 20 128.5 42.5t84.5 45t51 42.5t27.5 35.5t14 25t9.5 9.5l3 -15q0 -38 -6 -59
q47 -28 85 -44t59 -16q24 0 47 14.5t41 38t29 54.5t11 64zM2910 -89q-20 -8 -69 -26t-112 -40t-133 -45t-132.5 -42.5t-110 -32t-65.5 -12.5q-49 0 -82.5 6.5t-59 28.5t-47 64t-47.5 112q-6 -44 -22 -81.5t-38 -65t-49 -43t-56 -15.5q-97 0 -156 104q-10 -37 -30 -56.5
t-45.5 -30.5t-56 -18.5t-61.5 -20.5t-62 -36t-58 -65q-4 23 -4 42v11t2 10q-75 -9 -129.5 -13t-91.5 -4q-99 0 -168.5 20t-115 64.5t-70 114t-33.5 168.5q-46 -93 -182 -93q-37 0 -75.5 5.5t-70 14.5t-51.5 21t-20 25q0 45 24 76.5t70.5 58t115 52.5t156.5 60
q-1 30 -2.5 64.5t-1.5 63.5q0 30 43 107l23 -200q48 37 83.5 66.5t55.5 50.5q-6 18 -13 53t-14.5 78t-16.5 90.5t-17.5 90t-17.5 76t-18 48.5q-21 -168 -115 -328v1q-39 -71 -99.5 -125t-132 -92.5t-150 -61t-153.5 -31.5l-1 2q102 74 186 137t144 117t92.5 98t32.5 80
q0 48 -28 102t-71.5 107.5t-95 102.5t-98 86.5t-82.5 59.5t-47 22q-2 0 -8.5 -8.5t-14.5 -10.5q-54 22 -82 35t-40.5 27t-14 34t-1.5 54q0 13 0.5 25.5t3 22.5t7 16.5t11.5 6.5q64 0 133 -35t136 -90.5t127.5 -124.5t106.5 -136.5t73 -126.5t27 -95q0 -23 -3.5 -51.5
t-9.5 -57.5q19 20 42 57.5t43.5 81.5t34.5 87.5t14 74.5v9t-1 8l-51 474q29 101 47 119l30 -219q2 -15 9 -55.5t17.5 -97t23 -124t26 -136.5t26.5 -134.5t24.5 -118t20.5 -87t14 -42.5q38 -49 101.5 -72t154.5 -23q-2 5 -11.5 34t-23.5 72.5t-29.5 97t-29 106.5t-22 100
t-8.5 79q0 27 8.5 54t24 50t37 40t48.5 24q13 106 37.5 161t57.5 55q72 0 238 -151q-2 -27 -2.5 -46t-4.5 -32.5t-15.5 -23.5t-35 -18.5t-63.5 -18t-101 -22.5q-162 -30 -168 -64q4 -13 15 -53t26.5 -92.5t32.5 -111t32 -108.5t25.5 -84.5t12.5 -39.5q72 2 130 17.5t102 37
t74 47t46 47.5l-2 -36q-1 -6 -4 -14q-2 -7 -4.5 -17.5t-7.5 -24.5q33 3 71 3.5t72.5 7t63 24.5t43.5 56q8 21 16 35t14 21q7 -10 7 -18q0 -9 -3.5 -20t-8 -21.5t-8.5 -18.5t-4 -10q11 -2 25 -4t25 -2q-1 36 -6.5 118.5t-16.5 204.5l-38 524q35 119 57 138q2 -18 6 -69.5
t9 -123t10.5 -156.5t11 -172t10.5 -168.5t8.5 -146t6 -105t2.5 -44.5q82 14 103 47v-1q11 23 22 44.5t22 41.5l2 -56q0 -12 13.5 -23t32.5 -19.5t41 -13.5t39 -5q5 0 10.5 3.5t10.5 8.5q-7 25 -15.5 71t-18.5 104.5t-21 125t-21.5 133.5t-20.5 129.5t-18.5 112.5t-15 83.5
t-9.5 41.5q-28 66 -28 78q0 8 5 30t11.5 45.5t13.5 42.5t11 20q3 -3 6.5 -12t11 -25.5t20 -42t33.5 -62.5q48 -85 48 -106q0 -22 -8.5 -52.5t-23.5 -69.5q1 -28 8 -82.5t18 -119.5t23 -132.5t23 -123t19 -91t10 -35.5v2h2q0 -42 -4.5 -80.5t-17 -68t-34 -47t-56.5 -17.5
q-80 0 -129 64q-13 -34 -42.5 -54t-73.5 -26q4 -59 7.5 -121.5t12 -121.5t22.5 -111.5t38.5 -92t60.5 -62.5t87 -23q33 0 45 3h-1q2 1 6 5q-33 39 -54.5 70.5t-34 63t-17.5 67t-5 81.5q0 45 33 97v-1q20 35 47.5 61.5t60.5 44t70 26t75 8.5q32 0 63 -12t58.5 -33.5t51 -51.5
t38.5 -67q-116 56 -197 56q-29 0 -69 -8.5t-76 -21.5t-61.5 -29.5t-25.5 -32.5q0 -36 20 -77t50.5 -75.5t68 -57.5t73.5 -23q165 0 450 129z" />
    <glyph glyph-name="afii57409" unicode="&#x621;" horiz-adv-x="584" arabic-form="isolated" 
d="M112 327q21 7 84 22q0 125 -59 208q87 66 87 160l2 40q46 -85 87 -122.5t80 -37.5h18q29 0 29 52q0 27 -6 42q11 7 22 7q10 -2 17 -15t11.5 -32t7 -41t2.5 -43q0 -29 -6.5 -50t-17.5 -35t-25 -21t-28 -7q-35 0 -65 28.5t-58 90.5q-20 -35 -27.5 -69.5t-7.5 -70.5
q0 -7 0.5 -13.5t2.5 -14t5.5 -18t10.5 -27.5q16 1 34.5 1h37t35.5 1t29 4q2 0 9.5 3.5t11.5 5.5v-215h-200q-25 1 -55 2t-65 1q-17 0 -37 -60q-5 14 -24 54.5t-54 106.5q43 40 112 63z" />
    <glyph glyph-name="afii57410" unicode="&#x622;" horiz-adv-x="548" arabic-form="isolated" 
d="M423 1405l-26 -61v-1160q5 -8 7.5 -15t10.5 -16h-340q9 14 15.5 32t10.5 37v1120q-3 8 -8.5 23.5t-16.5 38.5zM298 1682q14 -3 26 -5t25 -2q37 0 123 34l62 -76q-123 -55 -196 -63q-21 0 -38 2.5t-36 7.5t-43.5 14t-61.5 21q-35 -11 -69.5 -25t-64.5 -32q-1 4 -7 14
t-14.5 22t-19.5 24.5t-23 21.5q36 21 62.5 35t49 23t44 13t46.5 4z" />
    <glyph glyph-name="uniFE82" unicode="&#x622;" horiz-adv-x="396" arabic-form="final" 
d="M402 340q-27 -135 -110 -185q-60 28 -117.5 54.5t-115.5 52.5q13 13 23.5 30t18.5 37v1008q-3 17 -6.5 34t-6.5 34h330l-16 -68v-997zM298 1682q14 -3 26 -5t25 -2q37 0 123 34l62 -76q-123 -55 -196 -63q-21 0 -38 2.5t-36 7.5t-43.5 14t-61.5 21q-35 -11 -69.5 -25
t-64.5 -32q-1 4 -7 14t-14.5 22t-19.5 24.5t-23 21.5q36 21 62.5 35t49 23t44 13t46.5 4z" />
    <glyph glyph-name="afii57411" unicode="&#x623;" horiz-adv-x="548" arabic-form="isolated" 
d="M135 1684q8 2 24.5 6.5t43.5 11.5q0 101 -49 169q71 53 71 129h2q38 -69 71.5 -99.5t65.5 -30.5l12 1q26 2 26 42q0 20 -8 34q13 5 21 5q32 -6 32 -73q0 -48 -19.5 -69.5t-46.5 -21.5t-52.5 24t-47.5 70q-29 -51 -29 -103q0 -7 -0.5 -19t4 -22.5t17 -18.5t39.5 -8
q23 0 43.5 1t23.5 4l17 8v-176l-162 1q-19 0 -40 0.5t-44 1.5h-10q-15 0 -35 -46h-2q-2 17 -62 128q38 32 94 51zM423 1405l-26 -61v-1160q5 -8 7.5 -15t10.5 -16h-340q9 14 15.5 32t10.5 37v1120q-3 8 -8.5 23.5t-16.5 38.5z" />
    <glyph glyph-name="uniFE84" unicode="&#x623;" horiz-adv-x="396" arabic-form="final" 
d="M137 1684q8 2 25 6.5t44 11.5q0 101 -49 169q71 53 71 129h2q71 -130 133 -130h4l12 1q26 2 26 42q0 20 -6 33q12 6 20 6q30 -6 30 -73q0 -17 -3 -34q-18 -57 -63 -57q-42 0 -79 56q-4 5 -8.5 14.5t-11.5 23.5q-29 -51 -29 -103q0 -20 5 -38q1 -3 4.5 -12t7.5 -18
q20 0 50.5 0.5t49.5 0.5q2 1 4.5 1.5t4.5 2.5l20 7v-175l-165 1q-18 0 -38 0.5t-43 1.5h-12q-14 0 -34 -46h-2q-1 14 -62 128q37 32 92 51zM402 340q-27 -135 -110 -185q-60 28 -117.5 54.5t-115.5 52.5q13 13 23.5 30t18.5 37v1008q-3 17 -6.5 34t-6.5 34h330l-16 -68v-997
z" />
    <glyph glyph-name="afii57412" unicode="&#x624;" horiz-adv-x="1164" arabic-form="isolated" 
d="M284 1182q5 2 10.5 3t12.5 3q0 100 -48 169q70 52 70 130h2q75 -133 135 -129h12q30 0 30 38q0 20 -8 36q7 3 12 4t8 1q30 -4 30 -71q0 -18 -6 -35q-14 -58 -58 -58q-22 0 -42.5 15t-37.5 42q-5 8 -10 17.5t-10 22.5q-15 -27 -23 -53t-8 -52q0 -21 5 -39q2 -6 15 -28h22
t26.5 0.5t26 0.5h21.5h7.5t7.5 1q3 2 8 4t8 3v-175l-165 2q-17 0 -36.5 0.5t-42.5 1.5h-15q-15 0 -35 -50q-2 11 -17.5 43.5t-44.5 87.5q36 34 89 52l20 5t29 8zM515 764q-68 -30 -107 -82t-39 -121q0 -26 8 -63q16 -57 47 -111t73 -94q35 -29 76.5 -52.5t83.5 -36.5
q32 -9 75 -9h55q-1 72 -15 142.5t-38.5 135t-59.5 122t-78 105.5q-24 25 -45.5 45t-29.5 20zM995 199q-24 -112 -78.5 -199.5t-138.5 -153.5q-170 -131 -403 -131q-80 0 -168 17q-120 71 -207 250q73 2 131.5 18.5t112.5 47.5q12 -43 30.5 -83.5t44.5 -75.5q35 -45 77 -74
t90 -44q146 38 222.5 134t78.5 244q-14 2 -30 4.5t-30 4.5q-36 4 -74.5 8t-77 7t-74 4.5t-64.5 1.5q-56 0 -102 -3.5t-84 -10.5q-135 113 -135 350q0 33 75 111q47 47 99.5 88t109.5 73q71 38 144.5 58.5t144.5 20.5q66 0 127 -16q198 -198 198 -484q0 -88 -19 -167z" />
    <glyph glyph-name="uniFE86" unicode="&#x624;" horiz-adv-x="1014" arabic-form="final" 
d="M284 1182q5 2 10.5 3t12.5 3q0 100 -48 169q70 52 70 130h2q75 -133 135 -129h12q30 0 30 38q0 20 -8 36q7 3 12 4t8 1q30 -4 30 -71q0 -18 -6 -35q-14 -58 -58 -58q-22 0 -42.5 15t-37.5 42q-5 8 -10 17.5t-10 22.5q-15 -27 -23 -53t-8 -52q0 -21 5 -39q2 -6 15 -28h22
t26.5 0.5t26 0.5h21.5h7.5t7.5 1q3 2 8 4t8 3v-175l-165 2q-17 0 -36.5 0.5t-42.5 1.5h-15q-15 0 -35 -50q-2 11 -17.5 43.5t-44.5 87.5q36 34 89 52l20 5t29 8zM515 764q-68 -30 -107 -82t-39 -121q0 -26 8 -63q16 -57 47 -111t73 -94q35 -29 76.5 -52.5t83.5 -36.5
q32 -9 75 -9h55q-1 72 -15 142.5t-38.5 135t-59.5 122t-78 105.5q-24 25 -45.5 45t-29.5 20zM995 199q-24 -112 -78.5 -199.5t-138.5 -153.5q-170 -131 -403 -131q-80 0 -168 17q-120 71 -207 250q73 2 131.5 18.5t112.5 47.5q12 -43 30.5 -83.5t44.5 -75.5q35 -45 77 -74
t90 -44q146 38 222.5 134t78.5 244q-14 2 -30 4.5t-30 4.5q-36 4 -74.5 8t-77 7t-74 4.5t-64.5 1.5q-56 0 -102 -3.5t-84 -10.5q-135 113 -135 350q0 33 75 111q47 47 99.5 88t109.5 73q71 38 144.5 58.5t144.5 20.5q66 0 127 -16q198 -198 198 -484q0 -88 -19 -167z" />
    <glyph glyph-name="afii57413" unicode="&#x625;" horiz-adv-x="548" arabic-form="isolated" 
d="M97 -286q20 8 70 18q0 103 -45 169q70 55 70 133h2q37 -69 70 -101t65 -32l13 1q27 1 27 42q0 19 -6 33q10 5 18 5q29 -4 29 -71q0 -48 -17.5 -70t-45.5 -22q-17 0 -29.5 5.5t-24 17t-22.5 29.5t-24 44q-30 -56 -30 -107v-20.5t4.5 -22t17 -17.5t36.5 -7q23 0 44.5 0.5
t25.5 2.5l19 8v-172h-164q-20 0 -41.5 0.5t-45.5 1.5h-9q-16 0 -33 -49q-6 23 -64 130q34 31 90 51zM423 1405l-26 -61v-1160q5 -8 7.5 -15t10.5 -16h-340q9 14 15.5 32t10.5 37v1120q-3 8 -8.5 23.5t-16.5 38.5z" />
    <glyph glyph-name="uniFE88" unicode="&#x625;" horiz-adv-x="396" arabic-form="final" 
d="M53 -314q9 3 27.5 7.5t46.5 9.5q0 104 -52 172q73 52 73 131h2q70 -132 128 -132q2 0 3 0.5t3 0.5h13q28 2 28 42q0 20 -11 32q15 6 24 6q31 -7 31 -74q0 -18 -3 -33q-19 -58 -63 -58q-21 0 -42 15t-39 42q-5 6 -9.5 15l-10.5 21q-31 -54 -31 -101q0 -22 6 -41
q1 -2 4 -9.5t8 -17.5q19 0 49 0.5t49 0.5q4 2 9 3t7 3l14 4v-176h-163q-37 1 -95 3q-15 0 -30 -50q-3 11 -20.5 44.5t-47.5 87.5q18 17 42 30.5t50 21.5zM403 340q-27 -135 -110 -185q-60 28 -117.5 54.5t-115.5 52.5q13 13 23.5 30t18.5 37v1008q-3 17 -6.5 34t-6.5 34h330
l-16 -68v-997z" />
    <glyph glyph-name="afii57414" unicode="&#x626;" horiz-adv-x="1405" arabic-form="isolated" 
d="M269 1114q9 2 20.5 5t25.5 6q0 91 -43 153q62 50 62 118h2q67 -118 122 -118h11q25 0 25 39q0 20 -7 30l19 4q28 -6 28 -65q0 -82 -61 -82q-24 0 -47 22.5t-41 60.5q-14 -24 -20.5 -46t-6.5 -45q0 -11 4 -27t11 -35q15 0 31.5 0.5t32.5 1.5t30 3t22 5v-157h-147
q-17 2 -39 2h-47q-17 0 -27 -43q-4 14 -4.5 17.5t-4.5 11.5t-15 27t-38 64q24 15 47.5 26.5t54.5 21.5zM1107 358q-31 17 -91 35.5t-147 40.5q-42 11 -90 40t-96 75q-23 -2 -35.5 -15t-12.5 -39q0 -28 8.5 -46t28.5 -31.5t54 -26t85 -29t120.5 -40.5t161.5 -61
q78 -32 120 -83.5t42 -115.5q0 -59 -26.5 -123.5t-74 -126t-113.5 -116.5t-145.5 -96.5t-169 -66t-184.5 -24.5q-103 0 -201 39t-173.5 113t-121.5 180.5t-46 241.5q0 130 91.5 291.5t267.5 350.5l-7 21q-15 1 -33.5 1.5t-33.5 1.5q-45 -12 -92.5 -25t-92.5 -25l62 123h398
l-186 -280v1q-73 -155 -73 -296q0 -88 20 -163.5t53 -136.5t75.5 -108t87 -79t88 -48.5t77.5 -16.5q69 0 131 21t109 58.5t75 88t29 110.5q-14 24 -22 35t-21.5 19t-39.5 16.5t-76 27.5q-55 21 -111 43t-101.5 40t-74 29t-28.5 10q-124 76 -124 197q0 47 23 84t74 70
t131 65.5t194 70.5q170 -127 317 -127q-37 -32 -57 -77.5t-22 -117.5h-1z" />
    <glyph glyph-name="uniFE8A" unicode="&#x626;" horiz-adv-x="1079" arabic-form="final" 
d="M244 892q9 4 25 8t40 9q0 90 -44 151q64 49 64 118h2q64 -118 119 -118h10q26 0 26 38q0 21 -6 33l18 4q30 -6 30 -66q0 -83 -61 -83q-38 0 -70 48q-4 8 -9 17.5t-12 20.5q-25 -49 -25 -94q0 -11 4 -26t11 -34q17 0 44 0.5t44 0.5q9 1 15.5 3t12.5 4v-154h-148
q-14 0 -31 0.5t-37 1.5h-15q-17 0 -31 -45q-5 19 -15 41v-1q-2 2 -4 6.5t-6 10.5q-6 10 -14 25.5t-19 35.5q16 14 37.5 25.5t44.5 19.5zM1079 271q-17 10 -48 10q-45 0 -151 -25q-2 0 -4 -0.5t-4 -0.5q-29 0 -90 38h1q-30 17 -55.5 35t-44.5 35q-47 -3 -47 -50q0 -23 16 -46
t46 -47q39 -28 120 -56q8 -3 48.5 -15t112.5 -33q38 -12 68 -21.5t50 -17.5q66 -30 103 -68.5t53 -91.5q3 -18 3 -41q0 -57 -23.5 -119t-68.5 -129q-39 -52 -93 -98.5t-118.5 -84.5t-138 -66t-150.5 -42q-66 -12 -121 -12q-155 0 -274 76t-198 215q-34 63 -52.5 135
t-18.5 146q0 130 91.5 292.5t267.5 351.5q-2 5 -3.5 10t-3.5 10q-14 0 -33 1t-33 1q-45 -12 -92 -24.5t-92 -24.5l60 121h400l-187 -278v1q-73 -152 -73 -297q0 -57 13.5 -118.5t36.5 -121.5q59 -136 134 -213t165 -90q24 -7 53 -7q128 0 225 70q57 38 86 90t31 115
q-13 23 -28.5 40.5t-29.5 24.5q-9 2 -34.5 10.5t-66.5 23.5l-198 78q-46 17 -79 29.5t-38 14.5q-124 79 -124 200q0 57 39.5 103t114.5 80q30 15 71 32t87 35q8 3 18 7.5t22 9.5q14 5 30.5 12t36.5 15q11 -8 63.5 -52t148.5 -125v-53z" />
    <glyph glyph-name="uniFE8B" unicode="&#x626;" horiz-adv-x="694" arabic-form="initial" 
d="M270 932q9 4 25.5 8t40.5 9q0 94 -46 153q64 49 64 118h2q65 -119 120 -119h12q26 0 26 40q0 16 -9 28l19 7q28 -7 28 -65q0 -82 -58 -82q-38 0 -73 47q-8 15 -17 37q-26 -48 -26 -90q0 -12 4 -28.5t11 -34.5q17 0 43.5 0.5t43.5 0.5q16 1 28 9v-161h-148q-19 2 -39.5 3
t-43.5 2q-17 0 -31 -42q-2 8 -6 17.5t-11 19.5q-2 4 -7 13t-13 23v-1q-5 9 -11 20t-13 24q36 30 85 44zM547 340q0 -72 -67 -130q-34 -29 -67.5 -44t-68.5 -15q-4 0 -7 0.5t-7 0.5q-5 1 -16 1q-39 16 -78.5 31t-78.5 31t-79 32t-78 30l-8 5q-9 5 -20.5 12t-21.5 12
q13 5 18.5 7t10.5 4q3 1 6.5 2t9.5 3l123 -27h15q56 0 103 28q56 44 56 101v121q-6 12 -14.5 30t-13.5 30h305l-22 -62v-203z" />
    <glyph glyph-name="uniFE8C" unicode="&#x626;" horiz-adv-x="547" arabic-form="medial" 
d="M270 932q9 4 25.5 8t40.5 9q0 94 -46 153q64 49 64 118h2q65 -119 120 -119h12q26 0 26 40q0 16 -9 28l19 7q28 -7 28 -65q0 -82 -58 -82q-38 0 -73 47q-8 15 -17 37q-26 -48 -26 -90q0 -12 4 -28.5t11 -34.5q17 0 43.5 0.5t43.5 0.5q16 1 28 9v-161h-148q-19 2 -39.5 3
t-43.5 2q-17 0 -31 -42q-2 8 -6 17.5t-11 19.5q-2 4 -7 13t-13 23v-1q-5 9 -11 20t-13 24q36 30 85 44zM547 340q0 -72 -67 -130q-34 -29 -67.5 -44t-68.5 -15q-4 0 -7 0.5t-7 0.5q-5 1 -16 1q-39 16 -78.5 31t-78.5 31t-79 32t-78 30l-8 5q-9 5 -20.5 12t-21.5 12
q13 5 18.5 7t10.5 4q3 1 6.5 2t9.5 3l123 -27h15q56 0 103 28q56 44 56 101v121q-6 12 -14.5 30t-13.5 30h305l-22 -62v-203z" />
    <glyph glyph-name="afii57415" unicode="&#x627;" horiz-adv-x="548" arabic-form="isolated" 
d="M423 1405l-26 -61v-1160q5 -8 7.5 -15t10.5 -16h-340q9 14 15.5 32t10.5 37v1120q-3 8 -8.5 23.5t-16.5 38.5z" />
    <glyph glyph-name="uniFE8E" unicode="&#x627;" horiz-adv-x="396" arabic-form="final" 
d="M403 340q-27 -135 -110 -185q-60 28 -117.5 54.5t-115.5 52.5q13 13 23.5 30t18.5 37v1008q-3 17 -6.5 34t-6.5 34h330l-16 -68v-997z" />
    <glyph glyph-name="afii57416" unicode="&#x628;" horiz-adv-x="1360" arabic-form="isolated" 
d="M797 -291v-12q-40 -47 -73 -80t-63 -60q-54 35 -102.5 64.5t-102.5 63.5q39 36 72 65.5t71 65.5zM1187 142q-14 -11 -33 -26.5t-43 -33.5q-52 -39 -117 -74.5t-134 -62t-139 -42t-133 -15.5q-133 0 -242 46.5t-185.5 128.5t-118.5 193t-42 239q0 47 7.5 103t24 112.5
t42.5 110t62.5 94.5t84.5 65.5t109 24.5q32 0 56.5 -11.5t41.5 -30.5t26 -44t9 -51q0 -32 -13 -62.5t-41 -53.5q-38 38 -76 54t-73 16q-46 0 -86 -24t-70 -64t-47 -91.5t-17 -107.5q0 -92 34.5 -157t104 -106t176 -60t250.5 -19q63 1 113.5 3t94 5.5t82.5 10t78 17
t80.5 25.5t91.5 36q12 26 18.5 60t7.5 68l-246 323q-26 -4 -44.5 -17.5t-18.5 -39.5q0 -7 5 -18.5t11.5 -24t11.5 -25.5t5 -24q0 -9 -5 -15.5t-19 -8.5q-38 0 -64.5 20.5t-26.5 65.5q9 14 30.5 45t48.5 71t56.5 84t56 83t46.5 68.5t28 40.5q6 -13 11.5 -23t10.5 -20v1
q3 -5 7.5 -15t12.5 -25v1q12 -17 16.5 -24t8.5 -14t11 -17.5l23 -34.5t45.5 -66.5t77.5 -111.5q-32 -87 -51.5 -182t-25.5 -189z" />
    <glyph glyph-name="uniFE90" unicode="&#x628;" horiz-adv-x="1190" arabic-form="final" 
d="M797 -291v-12q-40 -47 -73 -80t-63 -60q-54 35 -102.5 64.5t-102.5 63.5q39 36 72 65.5t71 65.5zM1187 142q-14 -11 -33 -26.5t-43 -33.5q-52 -39 -117 -74.5t-134 -62t-139 -42t-133 -15.5q-133 0 -242 46.5t-185.5 128.5t-118.5 193t-42 239q0 47 7.5 103t24 112.5
t42.5 110t62.5 94.5t84.5 65.5t109 24.5q32 0 56.5 -11.5t41.5 -30.5t26 -44t9 -51q0 -32 -13 -62.5t-41 -53.5q-38 38 -76 54t-73 16q-46 0 -86 -24t-70 -64t-47 -91.5t-17 -107.5q0 -92 34.5 -157t104 -106t176 -60t250.5 -19q63 1 113.5 3t94 5.5t82.5 10t78 17
t80.5 25.5t91.5 36q12 26 18.5 60t7.5 68l-246 323q-26 -4 -44.5 -17.5t-18.5 -39.5q0 -7 5 -18.5t11.5 -24t11.5 -25.5t5 -24q0 -9 -5 -15.5t-19 -8.5q-38 0 -64.5 20.5t-26.5 65.5q9 14 30.5 45t48.5 71t56.5 84t56 83t46.5 68.5t28 40.5q6 -13 11.5 -23t10.5 -20v1
q3 -5 7.5 -15t12.5 -25v1q12 -17 16.5 -24t8.5 -14t11 -17.5l23 -34.5t45.5 -66.5t77.5 -111.5q-32 -87 -51.5 -182t-25.5 -189z" />
    <glyph glyph-name="uniFE91" unicode="&#x628;" horiz-adv-x="694" arabic-form="initial" 
d="M527 -104v-10q-38 -45 -72.5 -78.5t-64.5 -58.5q-52 33 -102 63t-101 62q20 18 37.5 34t34 31.5t33 31.5t35.5 34zM547 340q0 -35 -19 -69t-48.5 -60.5t-65.5 -43t-70 -16.5q-19 0 -43 7t-49 16.5t-49.5 20.5t-45.5 20q-39 16 -79 32t-78 30l-8 5q-9 5 -20.5 12t-21.5 12
q10 4 15.5 6t9.5 3t8 2.5l12 4.5l123 -27h15q34 0 63 10.5t50.5 28t33.5 41t12 49.5v121q-6 12 -14.5 30t-13.5 30h305l-22 -62v-203z" />
    <glyph glyph-name="uniFE92" unicode="&#x628;" horiz-adv-x="547" arabic-form="medial" 
d="M527 -104v-10q-38 -45 -72.5 -78.5t-64.5 -58.5q-25 16 -49.5 31.5t-48.5 29.5q-26 16 -52.5 31.5t-52.5 32.5q20 18 37 34t33 31q17 16 33.5 32t36.5 34zM547 340q0 -72 -67 -130q-34 -29 -67.5 -44t-68.5 -15q-4 0 -7 0.5t-7 0.5q-5 1 -16 1q-39 16 -78.5 31t-78.5 31
t-79 32t-78 30l-8 5q-9 5 -20.5 12t-21.5 12q13 5 18.5 7t10.5 4q3 1 6.5 2t9.5 3l123 -27h15q56 0 103 28q56 44 56 101v121q-6 12 -14.5 30t-13.5 30h305l-22 -62v-203z" />
    <glyph glyph-name="afii57417" unicode="&#x629;" horiz-adv-x="838" arabic-form="isolated" 
d="M392 1318q24 21 50 44.5t50 44.5h22l193 -110v-27q-20 -29 -56 -67t-89 -85l-170 98q-24 -30 -48 -56t-50 -46l-226 142l160 146zM390 636q-13 17 -24.5 31.5t-22.5 28.5q-48 -60 -98.5 -123.5t-98.5 -123.5q123 -70 196 -70q26 0 62.5 10t95.5 36q-30 69 -55 118.5
t-55 92.5zM665 646q23 -55 23 -106q0 -54 -17.5 -104.5t-48 -94t-70.5 -80t-85.5 -62t-93.5 -40t-94 -14.5q-58 0 -109 13t-88.5 37t-59.5 57.5t-22 74.5q0 31 17 63l455 581z" />
    <glyph glyph-name="uniFE94" unicode="&#x629;" horiz-adv-x="689" arabic-form="final" 
d="M483 780q-65 -27 -139 -58.5t-139 -58.5q42 -87 113 -138t165 -61v316zM407 1318q24 21 50.5 44.5t50.5 44.5h21l191 -110v-27q-20 -29 -55.5 -67t-87.5 -85l-172 98q-23 -30 -47 -56t-49 -46l-227 142l160 146zM727 150h-288l44 58v82q-36 -5 -68.5 -8t-61.5 -3
q-45 0 -129 31q-50 26 -66 37q-30 20 -58 44.5t-46 42.5q-26 17 -40 47t-14 69q0 108 70 137l620 247v-726z" />
    <glyph glyph-name="afii57418" unicode="&#x62a;" horiz-adv-x="1360" arabic-form="isolated" 
d="M336 634l157 -93q26 23 53.5 50t52.5 49h7q48 -27 96 -54.5t97 -54.5l-2 -7q0 -4 1 -6q-32 -42 -67.5 -76.5t-70.5 -61.5q-4 3 -6 5t-7 2l-166 87q-17 -25 -43 -48.5t-55 -52.5l-14 11h1q-21 12 -45 29.5t-49.5 35t-50 32t-46.5 19.5q40 36 74.5 67.5t73.5 66.5h9z
M1187 142q-14 -11 -33 -26.5t-43 -33.5q-52 -39 -117 -74.5t-134 -62t-139 -42t-133 -15.5q-133 0 -242 46.5t-185.5 128.5t-118.5 193t-42 239q0 47 7.5 103t24 112.5t42.5 110t62.5 94.5t84.5 65.5t109 24.5q32 0 56.5 -11.5t41.5 -30.5t26 -44t9 -51q0 -32 -13 -62.5
t-41 -53.5q-38 38 -76 54t-73 16q-46 0 -86 -24t-70 -64t-47 -91.5t-17 -107.5q0 -92 34.5 -157t104 -106t176 -60t250.5 -19q63 1 113.5 3t94 5.5t82.5 10t78 17t80.5 25.5t91.5 36q12 26 18.5 60t7.5 68l-246 323q-26 -4 -44.5 -17.5t-18.5 -39.5q0 -7 5 -18.5t11.5 -24
t11.5 -25.5t5 -24q0 -9 -5 -15.5t-19 -8.5q-38 0 -64.5 20.5t-26.5 65.5q9 14 30.5 45t48.5 71t56.5 84t56 83t46.5 68.5t28 40.5q6 -13 11.5 -23t10.5 -20v1q3 -5 7.5 -15t12.5 -25v1q12 -17 16.5 -24t8.5 -14t11 -17.5l23 -34.5t45.5 -66.5t77.5 -111.5
q-32 -87 -51.5 -182t-25.5 -189z" />
    <glyph glyph-name="uniFE96" unicode="&#x62a;" horiz-adv-x="1190" arabic-form="final" 
d="M436 615q20 18 44 39.5t46 41.5q4 4 9 8.5t9 7.5h14l45 -27q33 -20 67 -40.5t69 -39.5v-13q-22 -29 -54.5 -63.5t-80.5 -76.5l-177 101q-24 -33 -48 -59.5t-47 -45.5q-51 31 -102 62.5t-102 61.5q22 20 43 39.5t41 39.5q14 14 28 26.5t28 26.5zM1187 142
q-14 -11 -33 -26.5t-43 -33.5q-52 -39 -117 -74.5t-134 -62t-139 -42t-133 -15.5q-133 0 -242 46.5t-185.5 128.5t-118.5 193t-42 239q0 47 7.5 103t24 112.5t42.5 110t62.5 94.5t84.5 65.5t109 24.5q32 0 56.5 -11.5t41.5 -30.5t26 -44t9 -51q0 -32 -13 -62.5t-41 -53.5
q-38 38 -76 54t-73 16q-46 0 -86 -24t-70 -64t-47 -91.5t-17 -107.5q0 -92 34.5 -157t104 -106t176 -60t250.5 -19q63 1 113.5 3t94 5.5t82.5 10t78 17t80.5 25.5t91.5 36q12 26 18.5 60t7.5 68l-246 323q-26 -4 -44.5 -17.5t-18.5 -39.5q0 -7 5 -18.5t11.5 -24t11.5 -25.5
t5 -24q0 -9 -5 -15.5t-19 -8.5q-38 0 -64.5 20.5t-26.5 65.5q9 14 30.5 45t48.5 71t56.5 84t56 83t46.5 68.5t28 40.5q6 -13 11.5 -23t10.5 -20v1q3 -5 7.5 -15t12.5 -25v1q12 -17 16.5 -24t8.5 -14t11 -17.5l23 -34.5t45.5 -66.5t77.5 -111.5q-32 -87 -51.5 -182
t-25.5 -189z" />
    <glyph glyph-name="uniFE97" unicode="&#x62a;" horiz-adv-x="694" arabic-form="initial" 
d="M370 994q25 22 54 48t55 49h10q46 -26 93.5 -52t90.5 -55v-15q-20 -28 -53.5 -63t-84.5 -79l-172 103q-26 -33 -51 -60.5t-48 -46.5q-50 32 -100.5 64t-101.5 64q37 33 69.5 64t69.5 66zM546 340q0 -35 -19 -69t-48.5 -60.5t-65.5 -43t-70 -16.5q-36 0 -80 14.5
t-90.5 34.5t-91 41.5t-82.5 35.5l-8 5q-9 5 -20.5 12t-20.5 12q10 5 15 6.5t9 3t8 2.5t12 4l138 -27q34 0 63 10.5t50.5 28t33.5 41t12 49.5v121q-6 12 -14.5 30t-13.5 30h305l-22 -62v-203z" />
    <glyph glyph-name="uniFE98" unicode="&#x62a;" horiz-adv-x="547" arabic-form="medial" 
d="M370 994q25 22 54 48t55 49h10q41 -23 81.5 -47t81.5 -47q11 -6 21 -13v-15q-20 -28 -53.5 -63t-84.5 -79l-172 103q-26 -33 -51 -60.5t-48 -46.5q-21 14 -43 27.5t-43 27.5q-29 17 -58.5 36.5t-57.5 36.5q8 8 16 15.5t16 14.5q26 25 52 49t55 51zM546 340
q0 -72 -67 -130q-34 -29 -67.5 -44t-68.5 -15q-4 0 -7 0.5t-7 0.5q-5 1 -16 1q-39 16 -78.5 31t-78.5 31t-79 32t-78 30l-8 5q-9 5 -20.5 12t-20.5 12q12 5 17.5 7t10.5 4q3 1 6.5 2t9.5 3l123 -27h15q56 0 103 28q56 44 56 101v121q-6 12 -14.5 30t-13.5 30h305l-22 -62
v-203z" />
    <glyph glyph-name="afii57419" unicode="&#x62b;" horiz-adv-x="1360" arabic-form="isolated" 
d="M718 661v-12q-38 -45 -72 -78.5t-63 -58.5q-55 34 -103 62.5t-104 60.5q39 36 71.5 67t70.5 66zM597 419q25 22 53 48t54 48h11q48 -27 93.5 -54t91.5 -53v-14q-43 -58 -136 -141l-175 98q-24 -29 -49.5 -56t-48.5 -47q-51 31 -100.5 65t-101.5 63q38 35 70 65t70 65z
M1187 142q-14 -11 -33 -26.5t-43 -33.5q-52 -39 -117 -74.5t-134 -62t-139 -42t-133 -15.5q-133 0 -242 46.5t-185.5 128.5t-118.5 193t-42 239q0 47 7.5 103t24 112.5t42.5 110t62.5 94.5t84.5 65.5t109 24.5q32 0 56.5 -11.5t41.5 -30.5t26 -44t9 -51q0 -32 -13 -62.5
t-41 -53.5q-38 38 -76 54t-73 16q-46 0 -86 -24t-70 -64t-47 -91.5t-17 -107.5q0 -92 34.5 -157t104 -106t176 -60t250.5 -19q63 1 113.5 3t94 5.5t82.5 10t78 17t80.5 25.5t91.5 36q12 26 18.5 60t7.5 68l-246 323q-26 -4 -44.5 -17.5t-18.5 -39.5q0 -7 5 -18.5t11.5 -24
t11.5 -25.5t5 -24q0 -9 -5 -15.5t-19 -8.5q-38 0 -64.5 20.5t-26.5 65.5q9 14 30.5 45t48.5 71t56.5 84t56 83t46.5 68.5t28 40.5q6 -13 11.5 -23t10.5 -20v1q3 -5 7.5 -15t12.5 -25v1q12 -17 16.5 -24t8.5 -14t11 -17.5l23 -34.5t45.5 -66.5t77.5 -111.5
q-32 -87 -51.5 -182t-25.5 -189z" />
    <glyph glyph-name="uniFE9A" unicode="&#x62b;" horiz-adv-x="1190" arabic-form="final" 
d="M718 661v-12q-38 -45 -72 -78.5t-63 -58.5q-27 17 -52.5 32t-50.5 30t-50.5 30t-53.5 31q20 19 38.5 36t36.5 34q17 15 33 30.5t34 32.5zM597 419q16 14 32.5 29t33.5 31q11 10 21 19t20 17h11q23 -13 45 -25.5t44 -25.5l48 -28l48 -28v-14q-43 -58 -136 -141l-175 98
q-24 -29 -49.5 -56t-48.5 -47q-23 14 -46.5 29.5t-46.5 30.5q-26 17 -54.5 35t-54.5 33q20 18 37.5 34.5t34.5 32.5q17 15 33 30.5t35 32.5zM1187 142q-14 -11 -33 -26.5t-43 -33.5q-52 -39 -117 -74.5t-134 -62t-139 -42t-133 -15.5q-133 0 -242 46.5t-185.5 128.5
t-118.5 193t-42 239q0 47 7.5 103t24 112.5t42.5 110t62.5 94.5t84.5 65.5t109 24.5q32 0 56.5 -11.5t41.5 -30.5t26 -44t9 -51q0 -32 -13 -62.5t-41 -53.5q-38 38 -76 54t-73 16q-46 0 -86 -24t-70 -64t-47 -91.5t-17 -107.5q0 -92 34.5 -157t104 -106t176 -60t250.5 -19
q63 1 113.5 3t94 5.5t82.5 10t78 17t80.5 25.5t91.5 36q12 26 18.5 60t7.5 68l-246 323q-26 -4 -44.5 -17.5t-18.5 -39.5q0 -7 5 -18.5t11.5 -24t11.5 -25.5t5 -24q0 -9 -5 -15.5t-19 -8.5q-38 0 -64.5 20.5t-26.5 65.5q9 14 30.5 45t48.5 71t56.5 84t56 83t46.5 68.5
t28 40.5q6 -13 11.5 -23t10.5 -20v1q3 -5 7.5 -15t12.5 -25v1q12 -17 16.5 -24t8.5 -14t11 -17.5l23 -34.5t45.5 -66.5t77.5 -111.5q-32 -87 -51.5 -182t-25.5 -189z" />
    <glyph glyph-name="uniFE9B" unicode="&#x62b;" horiz-adv-x="695" arabic-form="initial" 
d="M514 1220v-11q-77 -87 -136 -139q-55 32 -102.5 62t-101.5 62l17 17q32 32 61.5 57.5t63.5 58.5zM393 977q26 23 54.5 48.5t53.5 48.5h11q46 -26 92 -52.5t91 -53.5v-16q-19 -28 -52.5 -62.5t-81.5 -76.5l-176 101q-46 -64 -96 -104q-51 31 -103 63.5t-102 61.5
q20 18 37 34t33.5 31.5t34 31.5t36.5 34zM546 340q0 -35 -19 -69t-48.5 -60.5t-65.5 -43t-70 -16.5q-36 0 -80 14.5t-90.5 34.5t-91 41.5t-82.5 35.5l-8 5q-9 5 -20 12t-21 12q10 5 15 6.5t9 3t8 2.5t12 4l138 -27q34 0 63 10.5t50.5 28t33.5 41t12 49.5v121q-6 12 -14.5 30
t-13.5 30h305l-22 -62v-203z" />
    <glyph glyph-name="uniFE9C" unicode="&#x62b;" horiz-adv-x="547" arabic-form="medial" 
d="M514 1220v-11q-77 -87 -136 -139q-55 32 -102.5 62t-101.5 62l17 17q33 31 61.5 57.5t63.5 58.5zM393 977q26 23 54.5 48.5t53.5 48.5h11q46 -26 92 -52.5t91 -53.5v-16q-19 -28 -52.5 -62.5t-81.5 -76.5l-176 101q-46 -64 -96 -104q-27 17 -55 34l-56 34
q-24 14 -47.5 28.5t-46.5 28.5q20 18 37 34t33.5 31.5t34 31.5t36.5 34zM546 340q0 -72 -67 -130q-34 -29 -67.5 -44t-68.5 -15q-4 0 -7 0.5t-7 0.5q-5 1 -16 1q-39 16 -78.5 31t-78.5 31t-79 32t-78 30l-8 5q-9 5 -20 12t-21 12q12 5 17.5 7t10.5 4q3 1 6.5 2t9.5 3
l123 -27h15q56 0 103 28q56 44 56 101v121q-6 12 -14.5 30t-13.5 30h305l-22 -62v-203z" />
    <glyph glyph-name="afii57420" unicode="&#x62c;" horiz-adv-x="908" arabic-form="isolated" 
d="M779 29v-12q-37 -43 -71.5 -79t-63.5 -61q-53 33 -103 64t-103 63q38 35 71 66.5t71 65.5zM784 401q-137 -40 -234.5 -94t-159.5 -114t-91 -122t-29 -119q0 -46 18 -85.5t51 -69t80.5 -46t106.5 -16.5q70 0 153.5 26t178.5 85q-15 -34 -25 -61.5t-17.5 -58t-13.5 -68
t-12 -90.5q-49 -30 -109 -45t-124 -15q-87 0 -174 26.5t-156.5 79t-113 130.5t-43.5 180q0 73 31 133t82 109.5t118 89t138.5 72.5t143 60.5t132.5 52.5l-22 54l-22 54q-125 8 -258 16.5t-259 16.5q19 -48 38 -106.5t38 -109.5q-20 2 -29 3.5t-26 3.5q-13 52 -31 114
t-40 128.5t-48 135t-56 134.5q79 -12 153.5 -23t148.5 -22t148.5 -22t153.5 -23z" />
    <glyph glyph-name="uniFE9E" unicode="&#x62c;" horiz-adv-x="615" arabic-form="final" 
d="M779 29v-12q-37 -43 -71.5 -79t-63.5 -61q-53 33 -103 64t-103 63q38 35 71 66.5t71 65.5zM784 402l-169 -77v-47q-88 -16 -152.5 -50.5t-107 -79.5t-63 -96t-20.5 -101q0 -45 16 -85.5t47 -71t76.5 -49t105.5 -18.5q69 0 154 27.5t187 91.5q-16 -37 -27 -69.5t-19 -65
t-13 -67t-9 -76.5q-66 -31 -130.5 -45t-126.5 -14q-97 0 -182 31t-148 83.5t-99.5 122.5t-36.5 148q0 72 34.5 147.5t112 147t201 136.5t300.5 116l-22 54l-22 54q-125 8 -258 16.5t-259 16.5q19 -48 38 -106.5t38 -109.5q-20 2 -29 3.5t-26 3.5q-13 52 -31 114t-40 128.5
t-48 135t-56 134.5q79 -12 153.5 -23t148.5 -22t148.5 -22t153.5 -23z" />
    <glyph glyph-name="uniFE9F" unicode="&#x62c;" horiz-adv-x="1047" arabic-form="initial" 
d="M842 -16v-11q-38 -45 -70.5 -78t-64.5 -59q-54 33 -102.5 63.5t-102.5 64.5q40 36 73 65t73 64zM764 739q5 -10 20.5 -41.5t36.5 -74t44 -90t43.5 -89.5t35.5 -73t20 -40q-9 -2 -23 -5.5t-40.5 -11.5t-70 -23t-113.5 -39.5t-170.5 -60.5t-239.5 -86q-43 17 -85.5 41.5
t-83.5 49.5t-80.5 47t-75.5 34q-9 8 -16.5 15t-15.5 15q10 6 15 8.5t13 7.5l891 116q-9 13 -18.5 25.5t-18.5 25.5h1q-121 31 -241 62.5t-242 62.5q8 -25 11 -41t11 -42q-18 4 -29.5 6.5t-16.5 4.5q-12 39 -30.5 89.5t-40 105.5t-45.5 110t-46 102z" />
    <glyph glyph-name="uniFEA0" unicode="&#x62c;" horiz-adv-x="788" arabic-form="medial" 
d="M842 -16v-11q-38 -45 -70.5 -78t-64.5 -59q-26 17 -51.5 32.5t-50.5 31.5t-51 31.5t-52 32.5q20 18 38.5 34.5t36.5 31.5q17 14 34.5 30t36.5 33zM764 739q24 -47 52 -104.5t57 -117.5q24 -49 47.5 -98.5t43.5 -87.5q-27 -5 -74.5 -18t-101.5 -32v-41l-481 -135
q-39 16 -82 39.5t-81 46.5q-42 26 -83.5 49t-78.5 37q-5 4 -8 7l-7 7t-8.5 8t-8.5 8q5 3 9.5 5t7.5 4t5 3.5t6 3.5l891 116q-9 13 -18.5 25.5t-18.5 25.5h1q-121 31 -241 62.5t-242 62.5q3 -10 4.5 -18t3.5 -15q3 -11 6 -22.5t8 -27.5q-15 3 -24 5t-16 4q-2 0 -6 2
q-12 39 -30.5 89.5t-40 105.5t-45.5 110t-46 102z" />
    <glyph glyph-name="afii57421" unicode="&#x62d;" horiz-adv-x="908" arabic-form="isolated" 
d="M784 401q-137 -40 -234.5 -94t-159.5 -114t-91 -122t-29 -119q0 -46 18 -85.5t51 -69t80.5 -46t106.5 -16.5q70 0 153.5 26t178.5 85q-15 -34 -25 -61.5t-17.5 -58t-13.5 -68t-12 -90.5q-49 -30 -109 -45t-124 -15q-87 0 -174 26.5t-156.5 79t-113 130.5t-43.5 180
q0 73 31 133t82 109.5t118 89t138.5 72.5t143 60.5t132.5 52.5l-22 54l-22 54q-125 8 -258 16.5t-259 16.5q19 -48 38 -106.5t38 -109.5q-20 2 -29 3.5t-26 3.5q-13 52 -31 114t-40 128.5t-48 135t-56 134.5q79 -12 153.5 -23t148.5 -22t148.5 -22t153.5 -23z" />
    <glyph glyph-name="uniFEA2" unicode="&#x62d;" horiz-adv-x="615" arabic-form="final" 
d="M784 402l-169 -77v-47q-88 -16 -152.5 -50.5t-107 -79.5t-63 -96t-20.5 -101q0 -45 16 -85.5t47 -71t76.5 -49t105.5 -18.5q69 0 154 27.5t187 91.5q-16 -37 -27 -69.5t-19 -65t-13 -67t-9 -76.5q-66 -31 -130.5 -45t-126.5 -14q-97 0 -182 31t-148 83.5t-99.5 122.5
t-36.5 148q0 72 34.5 147.5t112 147t201 136.5t300.5 116l-22 54l-22 54q-125 8 -258 16.5t-259 16.5q19 -48 38 -106.5t38 -109.5q-20 2 -29 3.5t-26 3.5q-13 52 -31 114t-40 128.5t-48 135t-56 134.5q79 -12 153.5 -23t148.5 -22t148.5 -22t153.5 -23z" />
    <glyph glyph-name="uniFEA3" unicode="&#x62d;" horiz-adv-x="1047" arabic-form="initial" 
d="M764 739q5 -10 20.5 -41.5t36.5 -74t44 -90t43.5 -89.5t35.5 -73t20 -40q-9 -2 -23 -5.5t-40.5 -11.5t-70 -23t-113.5 -39.5t-170.5 -60.5t-239.5 -86q-43 17 -85.5 41.5t-83.5 49.5t-80.5 47t-75.5 34q-9 8 -16.5 15t-15.5 15q10 6 15 8.5t13 7.5l891 116
q-9 13 -18.5 25.5t-18.5 25.5h1q-121 31 -241 62.5t-242 62.5q8 -25 11 -41t11 -42q-18 4 -29.5 6.5t-16.5 4.5q-12 39 -30.5 89.5t-40 105.5t-45.5 110t-46 102z" />
    <glyph glyph-name="uniFEA4" unicode="&#x62d;" horiz-adv-x="788" arabic-form="medial" 
d="M764 739q24 -47 52 -104.5t57 -117.5q24 -49 47.5 -98.5t43.5 -87.5q-27 -5 -74.5 -18t-101.5 -32v-41l-481 -135q-39 16 -82 39.5t-81 46.5q-42 26 -83.5 49t-78.5 37q-5 4 -8 7l-7 7t-8.5 8t-8.5 8q5 3 9.5 5t7.5 4t5 3.5t6 3.5l891 116q-9 13 -18.5 25.5t-18.5 25.5h1
q-121 31 -241 62.5t-242 62.5q3 -10 4.5 -18t3.5 -15q3 -11 6 -22.5t8 -27.5q-15 3 -24 5t-16 4q-2 0 -6 2q-12 39 -30.5 89.5t-40 105.5t-45.5 110t-46 102z" />
    <glyph glyph-name="afii57422" unicode="&#x62e;" horiz-adv-x="908" arabic-form="isolated" 
d="M528 1084v-14q-38 -45 -72.5 -78t-63.5 -57q-54 33 -102 62t-103 61q40 36 73.5 66.5t71.5 65.5zM784 401q-137 -40 -234.5 -94t-159.5 -114t-91 -122t-29 -119q0 -46 18 -85.5t51 -69t80.5 -46t106.5 -16.5q70 0 153.5 26t178.5 85q-15 -34 -25 -61.5t-17.5 -58
t-13.5 -68t-12 -90.5q-49 -30 -109 -45t-124 -15q-87 0 -174 26.5t-156.5 79t-113 130.5t-43.5 180q0 73 31 133t82 109.5t118 89t138.5 72.5t143 60.5t132.5 52.5l-22 54l-22 54q-125 8 -258 16.5t-259 16.5q19 -48 38 -106.5t38 -109.5q-20 2 -29 3.5t-26 3.5
q-13 52 -31 114t-40 128.5t-48 135t-56 134.5q79 -12 153.5 -23t148.5 -22t148.5 -22t153.5 -23z" />
    <glyph glyph-name="uniFEA6" unicode="&#x62e;" horiz-adv-x="615" arabic-form="final" 
d="M528 1084v-14q-38 -45 -72.5 -78t-63.5 -57q-54 33 -102 62t-103 61q24 22 46 41.5t43 39.5q14 12 27.5 24.5t28.5 26.5zM784 402l-169 -77v-47q-88 -16 -152.5 -50.5t-107 -79.5t-63 -96t-20.5 -101q0 -45 16 -85.5t47 -71t76.5 -49t105.5 -18.5q69 0 154 27.5t187 91.5
q-16 -37 -27 -69.5t-19 -65t-13 -67t-9 -76.5q-66 -31 -130.5 -45t-126.5 -14q-97 0 -182 31t-148 83.5t-99.5 122.5t-36.5 148q0 72 34.5 147.5t112 147t201 136.5t300.5 116l-22 54l-22 54q-125 8 -258 16.5t-259 16.5q19 -48 38 -106.5t38 -109.5q-20 2 -29 3.5t-26 3.5
q-13 52 -31 114t-40 128.5t-48 135t-56 134.5q79 -12 153.5 -23t148.5 -22t148.5 -22t153.5 -23z" />
    <glyph glyph-name="uniFEA7" unicode="&#x62e;" horiz-adv-x="1047" arabic-form="initial" 
d="M643 1195v-13q-40 -48 -72.5 -80t-64.5 -56q-53 32 -102.5 61.5t-102.5 60.5q20 19 37.5 35.5t34 32t34 31.5t36.5 34zM764 739q5 -10 20.5 -41.5t36.5 -74t44 -90t43.5 -89.5t35.5 -73t20 -40q-9 -2 -23 -5.5t-40.5 -11.5t-70 -23t-113.5 -39.5t-170.5 -60.5t-239.5 -86
q-43 17 -85.5 41.5t-83.5 49.5t-80.5 47t-75.5 34q-9 8 -16.5 15t-15.5 15q10 6 15 8.5t13 7.5l891 116q-9 13 -18.5 25.5t-18.5 25.5h1q-121 31 -241 62.5t-242 62.5q8 -25 11 -41t11 -42q-18 4 -29.5 6.5t-16.5 4.5q-12 39 -30.5 89.5t-40 105.5t-45.5 110t-46 102z" />
    <glyph glyph-name="uniFEA8" unicode="&#x62e;" horiz-adv-x="788" arabic-form="medial" 
d="M659 1195v-13q-40 -48 -72.5 -80t-64.5 -56l-48 28t-47 28q-27 17 -54.5 33t-55.5 33q20 19 37.5 35.5t34 32t34 31.5t36.5 34zM764 739q24 -47 52 -104.5t57 -117.5q24 -49 47.5 -98.5t43.5 -87.5q-27 -5 -74.5 -18t-101.5 -32v-41l-481 -135q-39 16 -82 39.5t-81 46.5
q-42 26 -83.5 49t-78.5 37q-5 4 -8 7l-7 7t-8.5 8t-8.5 8q5 3 9.5 5t7.5 4t5 3.5t6 3.5l891 116q-9 13 -18.5 25.5t-18.5 25.5h1q-121 31 -241 62.5t-242 62.5q3 -10 4.5 -18t3.5 -15q3 -11 6 -22.5t8 -27.5q-15 3 -24 5t-16 4q-2 0 -6 2q-12 39 -30.5 89.5t-40 105.5
t-45.5 110t-46 102z" />
    <glyph glyph-name="afii57423" unicode="&#x62f;" horiz-adv-x="1163" arabic-form="isolated" 
d="M988 691q7 -31 11.5 -67t9.5 -72v-12q0 -3 0.5 -21t1.5 -39.5t1.5 -41t0.5 -25.5q0 -52 -11 -99t-32 -83t-51.5 -57t-69.5 -21h-849q7 10 26.5 36.5t44 60.5t52.5 72t51.5 70.5t41 56.5t21.5 30q3 -3 7 -7.5t4 -6.5q7 -4 64.5 -7t153 -4.5t224 -2t276.5 -0.5
q-1 68 -10 132t-29 114q-15 38 -41.5 74.5t-59.5 65t-70 46t-72 17.5q-57 0 -102 -44q-18 -18 -26.5 -31t-13.5 -26t-10.5 -27.5t-17.5 -36.5q-7 12 -9.5 24.5t-2.5 26.5q0 36 17.5 74t41 70t47 54.5t36.5 26.5q32 24 64.5 37.5t61.5 13.5q46 0 80.5 -23t60 -69t44 -115.5
t33.5 -163.5z" />
    <glyph glyph-name="uniFEAA" unicode="&#x62f;" horiz-adv-x="998" arabic-form="final" 
d="M988 691q7 -31 11.5 -67t9.5 -72v-12q0 -3 0.5 -21t1.5 -39.5t1.5 -41t0.5 -25.5q0 -52 -11 -99t-32 -83t-51.5 -57t-69.5 -21h-849q7 10 26.5 36.5t44 60.5t52.5 72t51.5 70.5t41 56.5t21.5 30q6 -6 52.5 -11t136 -9t223.5 -6t317 -2q-1 81 -18.5 161.5t-52.5 144
t-87.5 103.5t-123.5 40q-41 0 -67.5 -17t-44.5 -41.5t-31 -53.5t-27 -53q-7 12 -9.5 24.5t-2.5 26.5q0 55 18 96.5t46 72.5t61 51.5t62.5 33t52 17.5t28.5 5q46 0 80.5 -23t60 -69t44 -115.5t33.5 -163.5z" />
    <glyph glyph-name="afii57424" unicode="&#x630;" horiz-adv-x="1163" arabic-form="isolated" 
d="M913 1439v-12q-39 -47 -72 -79.5t-63 -56.5q-51 31 -103.5 62.5t-100.5 60.5q20 19 37.5 35t34 32t34 32t37.5 35zM988 691q7 -31 11.5 -67t9.5 -72v-12q0 -3 0.5 -21t1.5 -39.5t1.5 -41t0.5 -25.5q0 -52 -11 -99t-32 -83t-51.5 -57t-69.5 -21h-849q7 10 26.5 36.5
t44 60.5t52.5 72t51.5 70.5t41 56.5t21.5 30q3 -3 7 -7.5t4 -6.5q7 -4 64.5 -7t153 -4.5t224 -2t276.5 -0.5q-1 68 -10 132t-29 114q-15 38 -41.5 74.5t-59.5 65t-70 46t-72 17.5q-41 0 -67.5 -17t-44.5 -41.5t-31 -53.5t-27 -53q-7 12 -9.5 24.5t-2.5 26.5q0 36 17.5 74
t41 70t47 54.5t36.5 26.5q32 24 64.5 37.5t61.5 13.5q46 0 80.5 -23t60 -69t44 -115.5t33.5 -163.5z" />
    <glyph glyph-name="uniFEAC" unicode="&#x630;" horiz-adv-x="998" arabic-form="final" 
d="M913 1439v-12q-39 -47 -72 -79.5t-63 -56.5q-51 31 -103.5 62.5t-100.5 60.5q20 19 37.5 35t34 32t34 32t37.5 35zM988 691q7 -31 11.5 -67t9.5 -72v-12q0 -3 0.5 -21t1.5 -39.5t1.5 -41t0.5 -25.5q0 -52 -11 -99t-32 -83t-51.5 -57t-69.5 -21h-849q7 10 26.5 36.5
t44 60.5t52.5 72t51.5 70.5t41 56.5t21.5 30q6 -6 52.5 -11t136 -9t223.5 -6t317 -2q-1 81 -18.5 161.5t-52.5 144t-87.5 103.5t-123.5 40q-41 0 -67.5 -17t-44.5 -41.5t-31 -53.5t-27 -53q-7 12 -9.5 24.5t-2.5 26.5q0 55 18 96.5t46 72.5t61 51.5t62.5 33t52 17.5t28.5 5
q46 0 80.5 -23t60 -69t44 -115.5t33.5 -163.5z" />
    <glyph glyph-name="afii57425" unicode="&#x631;" horiz-adv-x="971" arabic-form="isolated" 
d="M806 488q17 -83 17 -166q0 -66 -9.5 -132.5t-27 -128t-42.5 -116.5t-57 -99q-43 -59 -96.5 -103.5t-113.5 -73.5t-125 -43.5t-131 -14.5t-131 14t-125.5 42.5t-115 70.5t-99.5 98q37 13 64 20.5t41 7.5q23 0 38.5 -13.5t29.5 -34.5t28.5 -44.5t35.5 -44.5t51 -34.5
t74 -13.5q95 0 172 32.5t131.5 94t84.5 152t30 205.5q0 70 -11.5 168t-31.5 222q-16 63 -23 102t-10 60t-5 28t-8 7t-19 -3.5t-38 -3.5q-17 0 -30.5 6t-23 16t-14.5 21.5t-5 23.5q0 19 13 33t42 14q28 0 61.5 -19.5t70.5 -51t76 -71.5t78.5 -81t78.5 -79.5t75 -66.5z" />
    <glyph glyph-name="uniFEAE" unicode="&#x631;" horiz-adv-x="821" arabic-form="final" 
d="M806 488q17 -83 17 -166q0 -66 -9.5 -132.5t-27 -128t-42.5 -116.5t-57 -99q-43 -59 -96.5 -103.5t-113.5 -73.5t-125 -43.5t-131 -14.5t-131 14t-125.5 42.5t-115 70.5t-99.5 98q37 13 64 20.5t41 7.5q23 0 38.5 -13.5t29.5 -34.5t28.5 -44.5t35.5 -44.5t51 -34.5
t74 -13.5q95 0 172 32.5t131.5 94t84.5 152t30 205.5q0 70 -11.5 168t-31.5 222q-16 63 -23 102t-10 60t-5 28t-8 7t-19 -3.5t-38 -3.5q-17 0 -30.5 6t-23 16t-14.5 21.5t-5 23.5q0 19 13 33t42 14q28 0 61.5 -19.5t70.5 -51t76 -71.5t78.5 -81t78.5 -79.5t75 -66.5z" />
    <glyph glyph-name="afii57426" unicode="&#x632;" horiz-adv-x="971" arabic-form="isolated" 
d="M494 1166v-12q-38 -45 -71 -77t-64 -58q-51 32 -102 63.5t-102 63.5q20 18 37 33.5t33 30.5t33 30.5t37 33.5zM806 488q17 -83 17 -166q0 -66 -9.5 -132.5t-27 -128t-42.5 -116.5t-57 -99q-43 -59 -96.5 -103.5t-113.5 -73.5t-125 -43.5t-131 -14.5t-131 14t-125.5 42.5
t-115 70.5t-99.5 98q37 13 64 20.5t41 7.5q23 0 38.5 -13.5t29.5 -34.5t28.5 -44.5t35.5 -44.5t51 -34.5t74 -13.5q95 0 172 32.5t131.5 94t84.5 152t30 205.5q0 70 -11.5 168t-31.5 222q-16 63 -23 102t-10 60t-5 28t-8 7t-19 -3.5t-38 -3.5q-17 0 -30.5 6t-23 16
t-14.5 21.5t-5 23.5q0 19 13 33t42 14q28 0 61.5 -19.5t70.5 -51t76 -71.5t78.5 -81t78.5 -79.5t75 -66.5z" />
    <glyph glyph-name="uniFEB0" unicode="&#x632;" horiz-adv-x="821" arabic-form="final" 
d="M494 1166v-12q-38 -45 -71 -77t-64 -58q-51 32 -102 63.5t-102 63.5q20 17 36.5 33t32.5 30t33.5 31t37.5 34zM806 488q17 -83 17 -166q0 -66 -9.5 -132.5t-27 -128t-42.5 -116.5t-57 -99q-43 -59 -96.5 -103.5t-113.5 -73.5t-125 -43.5t-131 -14.5t-131 14t-125.5 42.5
t-115 70.5t-99.5 98q37 13 64 20.5t41 7.5q23 0 38.5 -13.5t29.5 -34.5t28.5 -44.5t35.5 -44.5t51 -34.5t74 -13.5q95 0 172 32.5t131.5 94t84.5 152t30 205.5q0 70 -11.5 168t-31.5 222q-16 63 -23 102t-10 60t-5 28t-8 7t-19 -3.5t-38 -3.5q-17 0 -30.5 6t-23 16
t-14.5 21.5t-5 23.5q0 19 13 33t42 14q28 0 61.5 -19.5t70.5 -51t76 -71.5t78.5 -81t78.5 -79.5t75 -66.5z" />
    <glyph glyph-name="afii57427" unicode="&#x633;" horiz-adv-x="2020" arabic-form="isolated" 
d="M845 301q0 -129 -25.5 -241.5t-80.5 -195.5t-142.5 -131t-211.5 -48q-23 31 -60.5 73.5t-80 94t-86.5 111t-79 124t-57 132.5t-22 138q0 164 142 358q66 -56 131.5 -94t135.5 -60q-115 -56 -172 -151t-68 -229q0 -88 44.5 -172t129.5 -162q77 28 138.5 83.5t102.5 132.5
q32 67 51 146.5t19 166.5q0 132 -38 226q79 0 147.5 1t144.5 1q-33 -44 -48.5 -105.5t-15.5 -124.5v-19.5t1 -19.5q26 -18 60 -28t69 -10q30 0 57.5 7.5t49 22.5t34.5 39t13 57v121q-3 10 -10.5 24.5t-15.5 35.5h272l-16 -64v-211q35 -11 74 -24t74 -24q52 2 86.5 31
t47.5 82v385l-18 63h37.5t48 0.5t71 0.5h106.5q-14 -51 -14 -67v-364q0 -257 -229 -260l-295 129q-35 -49 -87 -81.5t-112 -46.5z" />
    <glyph glyph-name="uniFEB2" unicode="&#x633;" horiz-adv-x="1860" arabic-form="final" 
d="M845 301q0 -129 -25.5 -241.5t-80.5 -195.5t-142.5 -131t-211.5 -48q-23 31 -60.5 73.5t-80 94t-86.5 111t-79 124t-57 132.5t-22 138q0 164 142 358q66 -56 131.5 -94t135.5 -60q-115 -56 -172 -151t-68 -229q0 -88 44.5 -172t129.5 -162q77 28 138.5 83.5t102.5 132.5
q32 67 51 146.5t19 166.5q0 132 -38 226q79 0 147.5 1t144.5 1q-33 -44 -48.5 -105.5t-15.5 -124.5v-19.5t1 -19.5q26 -18 60 -28t69 -10q30 0 57.5 7.5t49 22.5t34.5 39t13 57v121q-3 10 -10.5 24.5t-15.5 35.5h272l-16 -64v-211q35 -11 74 -24t74 -24q52 2 86.5 31
t47.5 82v385l-18 63h37.5t48 0.5t71 0.5h106.5q-14 -51 -14 -67v-364q0 -257 -229 -260l-295 129q-35 -49 -87 -81.5t-112 -46.5z" />
    <glyph glyph-name="uniFEB3" unicode="&#x633;" horiz-adv-x="1795" arabic-form="initial" 
d="M127 294q28 0 53 10t49 27q23 19 36.5 43t13.5 50v121q-6 12 -14.5 30t-13.5 30h304l-22 -62q1 -52 2.5 -111.5t2.5 -110.5q12 -2 25.5 -5.5t28.5 -7.5t29 -7t25 -6q3 -1 9 -1h12q56 0 101 36q49 37 49 94v121q-6 13 -13.5 30t-13.5 30h305l-18 -62v-213q41 -12 81.5 -24
t81.5 -24q57 2 94 31t51 82v385q0 13 -5 29t-13 34q39 0 76 0.5t73 0.5h144q-12 -43 -12 -67v-364v-12t-1 -10q0 -9 -1 -22t-1 -21q0 -38 -24 -74.5t-66 -66.5q-39 -26 -81.5 -40t-86.5 -14l-323 128q-40 -48 -97 -80.5t-126 -46.5l-318 128q-11 -29 -35 -55t-51 -43
q-60 -36 -115 -36q-5 0 -9 1t-8 3q-18 8 -36.5 14.5t-37.5 14.5q-60 23 -123 48t-122 48q-6 4 -11.5 8.5t-10.5 9.5q-3 3 -7.5 6.5t-6.5 5.5q3 2 7 4t5 2l10 4t10 5q14 -4 32.5 -8.5t43.5 -9.5q28 -5 46 -7.5t23 -2.5z" />
    <glyph glyph-name="uniFEB4" unicode="&#x633;" horiz-adv-x="1633" arabic-form="medial" 
d="M127 294q28 0 53 10t49 27q23 19 36.5 43t13.5 50v121q-6 12 -14.5 30t-13.5 30h304l-22 -62q1 -52 2.5 -111.5t2.5 -110.5q12 -2 25.5 -5.5t28.5 -7.5t29 -7t25 -6q3 -1 9 -1h12q56 0 101 36q49 37 49 94v121q-6 13 -13.5 30t-13.5 30h305l-18 -62v-213q41 -12 81.5 -24
t81.5 -24q57 2 94 31t51 82v385q0 13 -5 29t-13 34q39 0 76 0.5t73 0.5h144q-12 -43 -12 -67v-364v-12t-1 -10q0 -9 -1 -22t-1 -21q0 -38 -24 -74.5t-66 -66.5q-39 -26 -81.5 -40t-86.5 -14l-323 128q-40 -48 -97 -80.5t-126 -46.5l-318 128q-11 -29 -35 -55t-51 -43
q-60 -36 -115 -36q-5 0 -9 1t-8 3q-18 8 -36.5 14.5t-37.5 14.5q-60 23 -123 48t-122 48q-6 4 -11.5 8.5t-10.5 9.5q-3 3 -7.5 6.5t-6.5 5.5q3 2 7 4t5 2l10 4t10 5q14 -4 32.5 -8.5t43.5 -9.5q28 -5 46 -7.5t23 -2.5z" />
    <glyph glyph-name="afii57428" unicode="&#x634;" horiz-adv-x="2020" arabic-form="isolated" 
d="M1147 1247v-13q-23 -27 -38 -46t-27.5 -34t-25 -28.5t-30.5 -28.5q-48 32 -93 63t-92 63l130 129zM1040 1004l97 97h8q42 -27 82 -51.5t80 -53.5v-17q-10 -17 -20 -31.5t-23 -30t-31 -33.5t-43 -42l-158 95q-24 -32 -45.5 -57t-43.5 -45q-46 32 -91 64.5t-93 62.5
q18 18 34.5 34t31.5 31l63 62zM845 301q0 -129 -25.5 -241.5t-80.5 -195.5t-142.5 -131t-211.5 -48q-23 31 -60.5 73.5t-80 94t-86.5 111t-79 124t-57 132.5t-22 138q0 164 142 358q66 -56 131.5 -94t135.5 -60q-115 -56 -172 -151t-68 -229q0 -88 44.5 -172t129.5 -162
q77 28 138.5 83.5t102.5 132.5q32 67 51 146.5t19 166.5q0 132 -38 226q79 0 147.5 1t144.5 1q-33 -44 -48.5 -105.5t-15.5 -124.5v-19.5t1 -19.5q26 -18 60 -28t69 -10q30 0 57.5 7.5t49 22.5t34.5 39t13 57v121q-3 10 -10.5 24.5t-15.5 35.5h272l-16 -64v-211
q35 -11 74 -24t74 -24q52 2 86.5 31t47.5 82v385l-18 63h37.5t48 0.5t71 0.5h106.5q-14 -51 -14 -67v-364q0 -257 -229 -260l-295 129q-35 -49 -87 -81.5t-112 -46.5z" />
    <glyph glyph-name="uniFEB6" unicode="&#x634;" horiz-adv-x="1860" arabic-form="final" 
d="M1147 1247v-13q-23 -27 -38 -46t-27.5 -34t-25 -28.5t-30.5 -28.5q-48 32 -93 63t-92 63l130 129zM1040 1004l97 97h8q42 -27 82 -51.5t80 -53.5v-17q-10 -17 -20 -31.5t-23 -30t-31 -33.5t-43 -42l-158 95q-24 -32 -45.5 -57t-43.5 -45q-46 32 -91 64.5t-93 62.5
q18 18 34.5 34t31.5 31l63 62zM845 301q0 -129 -25.5 -241.5t-80.5 -195.5t-142.5 -131t-211.5 -48q-23 31 -60.5 73.5t-80 94t-86.5 111t-79 124t-57 132.5t-22 138q0 164 142 358q66 -56 131.5 -94t135.5 -60q-115 -56 -172 -151t-68 -229q0 -88 44.5 -172t129.5 -162
q77 28 138.5 83.5t102.5 132.5q32 67 51 146.5t19 166.5q0 132 -38 226q79 0 147.5 1t144.5 1q-33 -44 -48.5 -105.5t-15.5 -124.5v-19.5t1 -19.5q26 -18 60 -28t69 -10q30 0 57.5 7.5t49 22.5t34.5 39t13 57v121q-3 10 -10.5 24.5t-15.5 35.5h272l-16 -64v-211
q35 -11 74 -24t74 -24q52 2 86.5 31t47.5 82v385l-18 63h37.5t48 0.5t71 0.5h106.5q-14 -51 -14 -67v-364q0 -257 -229 -260l-295 129q-35 -49 -87 -81.5t-112 -46.5z" />
    <glyph glyph-name="uniFEB7" unicode="&#x634;" horiz-adv-x="1795" arabic-form="initial" 
d="M778 1199v-11q-40 -47 -72.5 -80t-63.5 -57q-21 13 -41 24.5t-39 23.5q-29 18 -61 38.5t-62 38.5q20 19 37.5 35t34.5 32q17 15 33.5 30t35.5 32zM659 957q10 9 21 19t22 19q17 14 32.5 28.5t30.5 28.5h12l36 -20l36 -20q29 -16 57.5 -31t57.5 -32v-16q-40 -56 -135 -138
l-176 96q-24 -31 -50 -58t-50 -45q-51 31 -100.5 63t-97.5 63q19 18 35.5 34t32.5 31q14 14 32 31t35 34zM127 294q28 0 53 10t49 27q23 19 36.5 43t13.5 50v121q-6 12 -14.5 30t-13.5 30h304l-22 -62q1 -52 2.5 -111.5t2.5 -110.5q12 -2 25.5 -5.5t28.5 -7.5t29 -7t25 -6
q3 -1 9 -1h12q56 0 101 36q49 37 49 94v121q-6 13 -13.5 30t-13.5 30h305l-18 -62v-213q41 -12 81.5 -24t81.5 -24q57 2 94 31t51 82v385q0 13 -5 29t-13 34q39 0 76 0.5t73 0.5h144q-12 -43 -12 -67v-364v-12t-1 -10q0 -9 -1 -22t-1 -21q0 -38 -24 -74.5t-66 -66.5
q-39 -26 -81.5 -40t-86.5 -14l-323 128q-40 -48 -97 -80.5t-126 -46.5l-318 128q-11 -29 -35 -55t-51 -43q-60 -36 -115 -36q-5 0 -9 1t-8 3q-18 8 -36.5 14.5t-37.5 14.5q-60 23 -123 48t-122 48q-6 4 -11.5 8.5t-10.5 9.5q-3 3 -7.5 6.5t-6.5 5.5q3 2 7 4t5 2l10 4t10 5
q14 -4 32.5 -8.5t43.5 -9.5q28 -5 46 -7.5t23 -2.5z" />
    <glyph glyph-name="uniFEB8" unicode="&#x634;" horiz-adv-x="1633" arabic-form="medial" 
d="M778 1199v-11q-40 -47 -72.5 -80t-63.5 -57q-21 13 -41 24.5t-39 23.5q-29 18 -61 38.5t-62 38.5q20 19 37.5 35t34.5 32q17 15 33.5 30t35.5 32zM659 957q10 9 21 19t22 19q17 14 32.5 28.5t30.5 28.5h12l36 -20l36 -20q29 -16 57.5 -31t57.5 -32v-16q-40 -56 -135 -138
l-176 96q-24 -31 -50 -58t-50 -45q-51 31 -100.5 63t-97.5 63q19 18 35.5 34t32.5 31q14 14 32 31t35 34zM127 294q28 0 53 10t49 27q23 19 36.5 43t13.5 50v121q-6 12 -14.5 30t-13.5 30h304l-22 -62q1 -52 2.5 -111.5t2.5 -110.5q12 -2 25.5 -5.5t28.5 -7.5t29 -7t25 -6
q3 -1 9 -1h12q56 0 101 36q49 37 49 94v121q-6 13 -13.5 30t-13.5 30h305l-18 -62v-213q41 -12 81.5 -24t81.5 -24q57 2 94 31t51 82v385q0 13 -5 29t-13 34q39 0 76 0.5t73 0.5h144q-12 -43 -12 -67v-364v-12t-1 -10q0 -9 -1 -22t-1 -21q0 -38 -24 -74.5t-66 -66.5
q-39 -26 -81.5 -40t-86.5 -14l-323 128q-40 -48 -97 -80.5t-126 -46.5l-318 128q-11 -29 -35 -55t-51 -43q-60 -36 -115 -36q-5 0 -9 1t-8 3q-18 8 -36.5 14.5t-37.5 14.5q-60 23 -123 48t-122 48q-6 4 -11.5 8.5t-10.5 9.5q-3 3 -7.5 6.5t-6.5 5.5q3 2 7 4t5 2l10 4t10 5
q14 -4 32.5 -8.5t43.5 -9.5q28 -5 46 -7.5t23 -2.5z" />
    <glyph glyph-name="afii57429" unicode="&#x635;" horiz-adv-x="1673" arabic-form="isolated" 
d="M982 364q0 39 -2 81.5t-4.5 83.5t-6 78.5t-7.5 68.5q-4 28 -9.5 59.5t-12.5 63t-15 62t-17 55.5q123 175 260 175q43 0 86 -28t80 -68.5t66 -85.5t45 -80q38 -83 58 -170t20 -177q-94 -199 -259 -275q-49 -23 -99 -35.5t-103 -12.5q-167 0 -307 129q-1 -127 -27.5 -237
t-81.5 -191.5t-141.5 -128t-209.5 -46.5q-23 31 -60.5 73.5t-80 94t-86.5 111t-79 124t-57 132.5t-22 138q0 164 142 358q66 -56 131.5 -94t135.5 -60q-115 -56 -172 -151t-68 -229q0 -88 44.5 -172t129.5 -162q77 28 138.5 83.5t102.5 132.5q32 67 51 146.5t19 166.5
q0 132 -38 226q79 0 147.5 1t144.5 1q-33 -44 -48.5 -105.5t-15.5 -124.5v-19.5t1 -19.5v-4q27 -9 53 -15.5t46 -6.5q29 0 60 13t60 30zM1044 421q21 -8 30 -8q29 0 70.5 23.5t108.5 80.5q23 18 52 44.5t54.5 56.5t42.5 62t17 60v11q-9 19 -25 34t-35.5 25t-40 15t-38.5 5
q-62 0 -118.5 -43t-93.5 -128q-16 -35 -25 -71.5t-9 -70.5z" />
    <glyph glyph-name="uniFEBA" unicode="&#x635;" horiz-adv-x="1394" arabic-form="final" 
d="M982 364q0 39 -2 81.5t-4.5 83.5t-6 78.5t-7.5 68.5q-4 28 -9.5 59.5t-12.5 63t-15 62t-17 55.5q123 175 260 175q43 0 86 -28t80 -68.5t66 -85.5t45 -80q38 -83 58 -170t20 -177q-94 -199 -259 -275q-49 -23 -99 -35.5t-103 -12.5q-167 0 -307 129q-1 -127 -27.5 -237
t-81.5 -191.5t-141.5 -128t-209.5 -46.5q-23 31 -60.5 73.5t-80 94t-86.5 111t-79 124t-57 132.5t-22 138q0 164 142 358q66 -56 131.5 -94t135.5 -60q-115 -56 -172 -151t-68 -229q0 -88 44.5 -172t129.5 -162q77 28 138.5 83.5t102.5 132.5q32 67 51 146.5t19 166.5
q0 132 -38 226q79 0 147.5 1t144.5 1q-33 -44 -48.5 -105.5t-15.5 -124.5v-19.5t1 -19.5v-4q27 -9 53 -15.5t46 -6.5q29 0 60 13t60 30zM1044 421q21 -8 30 -8q29 0 70.5 23.5t108.5 80.5q23 18 52 44.5t54.5 56.5t42.5 62t17 60v11q-9 19 -25 34t-35.5 25t-40 15t-38.5 5
q-62 0 -118.5 -43t-93.5 -128q-16 -35 -25 -71.5t-9 -70.5z" />
    <glyph glyph-name="uniFEBB" unicode="&#x635;" horiz-adv-x="1626" arabic-form="initial" 
d="M859 512q0 -10 2 -24t4.5 -28.5t4.5 -26t2 -16.5q16 -8 34 -8q26 0 67 15t88 40.5t95 58t86.5 68t62.5 71t24 65.5q0 14 -4 20q-20 46 -53.5 65t-74.5 19q-43 0 -89 -17t-87 -43.5t-73.5 -57.5t-48.5 -60q-40 -71 -40 -141zM516 257q-31 -50 -81 -77.5t-116 -27.5
q-7 2 -39.5 13t-81 29t-107.5 42t-118 54q-6 4 -12 7.5t-11 7.5q16 8 22.5 10t17.5 7q63 -9 110 -9q49 0 83.5 8.5t56.5 23t32 35t10 44.5v121q-5 11 -11.5 25.5t-16.5 34.5h306l-22 -62v-226q32 -10 56.5 -15t47.5 -5q33 0 67 12.5t84 37.5q-2 156 -23.5 301.5t-64.5 260.5
q66 90 139 128.5t148 38.5q62 0 122 -23.5t114 -64.5t100 -96t79 -118t52 -131t19 -134q0 -10 -0.5 -19t-1.5 -19q-41 -77 -104 -136.5t-140 -100t-163.5 -61.5t-173.5 -21q-97 0 -189 26.5t-170 82.5z" />
    <glyph glyph-name="uniFEBC" unicode="&#x635;" horiz-adv-x="1351" arabic-form="medial" 
d="M859 512q0 -10 2 -24t4.5 -28.5t4.5 -26t2 -16.5q16 -8 34 -8q26 0 67 15t88 40.5t95 58t86.5 68t62.5 71t24 65.5q0 14 -4 20q-20 46 -53.5 65t-74.5 19q-43 0 -89 -17t-87 -43.5t-73.5 -57.5t-48.5 -60q-40 -71 -40 -141zM516 257q-31 -50 -81 -77.5t-116 -27.5
q-7 2 -39.5 13t-81 29t-107.5 42t-118 54q-6 4 -12 7.5t-11 7.5q16 8 22.5 10t17.5 7q63 -9 110 -9q49 0 83.5 8.5t56.5 23t32 35t10 44.5v121q-5 11 -11.5 25.5t-16.5 34.5h306l-22 -62v-226q32 -10 56.5 -15t47.5 -5q33 0 67 12.5t84 37.5q-2 156 -23.5 301.5t-64.5 260.5
q66 90 139 128.5t148 38.5q62 0 122 -23.5t114 -64.5t100 -96t79 -118t52 -131t19 -134q0 -10 -0.5 -19t-1.5 -19q-41 -77 -104 -136.5t-140 -100t-163.5 -61.5t-173.5 -21q-97 0 -189 26.5t-170 82.5z" />
    <glyph glyph-name="afii57430" unicode="&#x636;" horiz-adv-x="1673" arabic-form="isolated" 
d="M1120 1442v-14q-18 -26 -30.5 -42.5t-21.5 -30.5v1q-8 -14 -23.5 -31.5t-31.5 -32.5q-42 32 -81 60.5t-82 60.5q32 37 58 68.5t57 66.5zM982 364q0 39 -2 81.5t-4.5 83.5t-6 78.5t-7.5 68.5q-4 28 -9.5 59.5t-12.5 63t-15 62t-17 55.5q123 175 260 175q43 0 86 -28
t80 -68.5t66 -85.5t45 -80q38 -83 58 -170t20 -177q-94 -199 -259 -275q-49 -23 -99 -35.5t-103 -12.5q-167 0 -307 129q-1 -127 -27.5 -237t-81.5 -191.5t-141.5 -128t-209.5 -46.5q-23 31 -60.5 73.5t-80 94t-86.5 111t-79 124t-57 132.5t-22 138q0 164 142 358
q66 -56 131.5 -94t135.5 -60q-115 -56 -172 -151t-68 -229q0 -88 44.5 -172t129.5 -162q77 28 138.5 83.5t102.5 132.5q32 67 51 146.5t19 166.5q0 132 -38 226q79 0 147.5 1t144.5 1q-33 -44 -48.5 -105.5t-15.5 -124.5v-19.5t1 -19.5v-4q27 -9 53 -15.5t46 -6.5
q29 0 60 13t60 30zM1044 421q21 -8 30 -8q29 0 70.5 23.5t108.5 80.5q23 18 52 44.5t54.5 56.5t42.5 62t17 60v11q-9 19 -25 34t-35.5 25t-40 15t-38.5 5q-62 0 -118.5 -43t-93.5 -128q-16 -35 -25 -71.5t-9 -70.5z" />
    <glyph glyph-name="uniFEBE" unicode="&#x636;" horiz-adv-x="1394" arabic-form="final" 
d="M1120 1442v-14q-18 -26 -30.5 -42.5t-21.5 -30.5v1q-8 -14 -23.5 -31.5t-31.5 -32.5q-42 32 -81 60.5t-82 60.5q32 37 58 68.5t57 66.5zM982 364q0 39 -2 81.5t-4.5 83.5t-6 78.5t-7.5 68.5q-4 28 -9.5 59.5t-12.5 63t-15 62t-17 55.5q123 175 260 175q43 0 86 -28
t80 -68.5t66 -85.5t45 -80q38 -83 58 -170t20 -177q-94 -199 -259 -275q-49 -23 -99 -35.5t-103 -12.5q-167 0 -307 129q-1 -127 -27.5 -237t-81.5 -191.5t-141.5 -128t-209.5 -46.5q-23 31 -60.5 73.5t-80 94t-86.5 111t-79 124t-57 132.5t-22 138q0 164 142 358
q66 -56 131.5 -94t135.5 -60q-115 -56 -172 -151t-68 -229q0 -88 44.5 -172t129.5 -162q77 28 138.5 83.5t102.5 132.5q32 67 51 146.5t19 166.5q0 132 -38 226q79 0 147.5 1t144.5 1q-33 -44 -48.5 -105.5t-15.5 -124.5v-19.5t1 -19.5v-4q27 -9 53 -15.5t46 -6.5
q29 0 60 13t60 30zM1044 421q21 -8 30 -8q29 0 70.5 23.5t108.5 80.5q23 18 52 44.5t54.5 56.5t42.5 62t17 60v11q-9 19 -25 34t-35.5 25t-40 15t-38.5 5q-62 0 -118.5 -43t-93.5 -128q-16 -35 -25 -71.5t-9 -70.5z" />
    <glyph glyph-name="uniFEBF" unicode="&#x636;" horiz-adv-x="1626" arabic-form="initial" 
d="M1012 1380v-11q-38 -45 -72.5 -78t-65.5 -59q-52 32 -102 62t-102 61q21 18 38.5 34.5t34 32.5t33.5 31.5t37 33.5zM859 512q0 -10 2 -24t4.5 -28.5t4.5 -26t2 -16.5q16 -8 34 -8q26 0 67 15t88 40.5t95 58t86.5 68t62.5 71t24 65.5q0 14 -4 20q-20 46 -53.5 65t-74.5 19
q-43 0 -89 -17t-87 -43.5t-73.5 -57.5t-48.5 -60q-40 -71 -40 -141zM516 257q-31 -50 -81 -77.5t-116 -27.5q-7 2 -39.5 13t-81 29t-107.5 42t-118 54q-6 4 -12 7.5t-11 7.5q16 8 22.5 10t17.5 7q63 -9 110 -9q49 0 83.5 8.5t56.5 23t32 35t10 44.5v121q-5 11 -11.5 25.5
t-16.5 34.5h306l-22 -62v-226q32 -10 56.5 -15t47.5 -5q33 0 67 12.5t84 37.5q-2 156 -23.5 301.5t-64.5 260.5q66 90 139 128.5t148 38.5q62 0 122 -23.5t114 -64.5t100 -96t79 -118t52 -131t19 -134q0 -10 -0.5 -19t-1.5 -19q-41 -77 -104 -136.5t-140 -100t-163.5 -61.5
t-173.5 -21q-97 0 -189 26.5t-170 82.5z" />
    <glyph glyph-name="uniFEC0" unicode="&#x636;" horiz-adv-x="1351" arabic-form="medial" 
d="M1012 1380v-11q-38 -45 -72.5 -78t-65.5 -59q-52 32 -102 62t-102 61q21 18 38.5 34.5t34 32.5t33.5 31.5t37 33.5zM859 512q0 -10 2 -24t4.5 -28.5t4.5 -26t2 -16.5q16 -8 34 -8q26 0 67 15t88 40.5t95 58t86.5 68t62.5 71t24 65.5q0 14 -4 20q-20 46 -53.5 65t-74.5 19
q-43 0 -89 -17t-87 -43.5t-73.5 -57.5t-48.5 -60q-40 -71 -40 -141zM516 257q-31 -50 -81 -77.5t-116 -27.5q-7 2 -39.5 13t-81 29t-107.5 42t-118 54q-6 4 -12 7.5t-11 7.5q16 8 22.5 10t17.5 7q63 -9 110 -9q49 0 83.5 8.5t56.5 23t32 35t10 44.5v121q-5 11 -11.5 25.5
t-16.5 34.5h306l-22 -62v-226q32 -10 56.5 -15t47.5 -5q33 0 67 12.5t84 37.5q-2 156 -23.5 301.5t-64.5 260.5q66 90 139 128.5t148 38.5q62 0 122 -23.5t114 -64.5t100 -96t79 -118t52 -131t19 -134q0 -10 -0.5 -19t-1.5 -19q-41 -77 -104 -136.5t-140 -100t-163.5 -61.5
t-173.5 -21q-97 0 -189 26.5t-170 82.5z" />
    <glyph glyph-name="afii57431" unicode="&#x637;" horiz-adv-x="1324" arabic-form="isolated" 
d="M545 367h-1q14 -6 28.5 -8t25.5 -3q123 43 236.5 114t205.5 160q8 14 17.5 28.5t17.5 28.5q-2 30 -15.5 51.5t-33.5 36t-43.5 23t-45 13t-39 5.5t-24.5 1q-186 0 -290 -168v1l-2 -4q-2 -3 -4 -7l-4 -8l-4 -8v1q-23 -35 -34 -75.5t-11 -84.5q0 -47 10 -88v1zM420 702
q6 0 14.5 -1t14.5 -1q12 73 40 140t69 118t93 81.5t112 30.5q57 0 111 -30t101 -78t86 -107.5t66 -119.5q10 -21 18.5 -53.5t15 -70t10 -77t3.5 -75.5q-53 -96 -139 -163.5t-202 -106.5q-49 -18 -102.5 -27.5t-106.5 -9.5q-61 0 -124 12.5t-120 33.5q-55 20 -100 45t-74 53
q-74 69 -126 152t-80 178q9 -4 14 -6.5t9.5 -4.5t11 -5.5t19.5 -8.5q45 -114 197 -216q32 -21 55 -31.5t32 -10.5q21 0 21 22v703q-143 3 -213 78t-70 201q0 30 6 54q54 -27 111.5 -40.5t122.5 -13.5q26 0 53.5 3t50.5 8v-656z" />
    <glyph glyph-name="uniFEC2" unicode="&#x637;" horiz-adv-x="1047" arabic-form="final" 
d="M545 367h-1q14 -6 28.5 -8t25.5 -3q123 43 236.5 114t205.5 160q8 14 17.5 28.5t17.5 28.5q-2 30 -15.5 51.5t-33.5 36t-43.5 23t-45 13t-39 5.5t-24.5 1q-186 0 -290 -168v1l-2 -4q-2 -3 -4 -7l-4 -8l-4 -8v1q-23 -35 -34 -75.5t-11 -84.5q0 -47 10 -88v1zM420 702
q6 0 14.5 -1t14.5 -1q12 73 40 140t69 118t93 81.5t112 30.5q57 0 111 -30t101 -78t86 -107.5t66 -119.5q10 -21 18.5 -53.5t15 -70t10 -77t3.5 -75.5q-53 -96 -139 -163.5t-202 -106.5q-49 -18 -102.5 -27.5t-106.5 -9.5q-61 0 -124 12.5t-120 33.5q-55 20 -100 45t-74 53
q-74 69 -126 152t-80 178q9 -4 14 -6.5t9.5 -4.5t11 -5.5t19.5 -8.5q45 -114 197 -216q32 -21 55 -31.5t32 -10.5q21 0 21 22v703q-143 3 -213 78t-70 201q0 30 6 54q54 -27 111.5 -40.5t122.5 -13.5q26 0 53.5 3t50.5 8v-656z" />
    <glyph glyph-name="uniFEC3" unicode="&#x637;" horiz-adv-x="1279" arabic-form="initial" 
d="M491 363q11 -9 33 -9q32 0 83.5 22.5t108 56t110.5 71.5t89 69q35 34 61.5 67.5t40.5 62.5q-12 37 -31.5 61.5t-44.5 39.5t-55.5 21.5t-64.5 6.5q-66 0 -128.5 -28.5t-111 -77.5t-78.5 -115t-30 -142q0 -49 12 -99v1zM3 326q173 -24 234 -24q26 0 59 1t60 3v762
q-22 1 -43.5 3t-30.5 6l-4 4q-10 9 -20.5 18t-21.5 17q-46 35 -71 92t-25 133q0 37 5 60q11 -5 32 -14t54 -21q45 -10 75 -15t41 -5q12 0 27 1.5t32 5.5q2 0 4.5 1t4.5 1v-388q75 55 141 81.5t126 26.5q54 0 104 -14q119 -67 184 -144q28 -32 54.5 -77.5t50.5 -101.5
q26 -59 40 -125.5t14 -142.5q-45 -91 -136 -165q-76 -61 -195 -105q-73 -26 -138.5 -38t-122.5 -16q-32 0 -64 5.5t-67 14.5t-74.5 20t-85.5 22q-68 14 -112.5 25t-70.5 19t-37 13t-13 7h1q-14 8 -31.5 17.5t-32.5 17.5z" />
    <glyph glyph-name="uniFEC4" unicode="&#x637;" horiz-adv-x="998" arabic-form="medial" 
d="M491 363q11 -9 33 -9q32 0 83.5 22.5t108 56t110.5 71.5t89 69q35 34 61.5 67.5t40.5 62.5q-12 37 -31.5 61.5t-44.5 39.5t-55.5 21.5t-64.5 6.5q-66 0 -128.5 -28.5t-111 -77.5t-78.5 -115t-30 -142q0 -49 12 -99v1zM3 326q173 -24 234 -24q26 0 59 1t60 3v762
q-22 1 -43.5 3t-30.5 6l-4 4q-10 9 -20.5 18t-21.5 17q-46 35 -71 92t-25 133q0 37 5 60q11 -5 32 -14t54 -21q45 -10 75 -15t41 -5q12 0 27 1.5t32 5.5q2 0 4.5 1t4.5 1v-388q75 55 141 81.5t126 26.5q54 0 104 -14q119 -67 184 -144q28 -32 54.5 -77.5t50.5 -101.5
q26 -59 40 -125.5t14 -142.5q-45 -91 -136 -165q-76 -61 -195 -105q-73 -26 -138.5 -38t-122.5 -16q-32 0 -64 5.5t-67 14.5t-74.5 20t-85.5 22q-68 14 -112.5 25t-70.5 19t-37 13t-13 7h1q-14 8 -31.5 17.5t-32.5 17.5z" />
    <glyph glyph-name="afii57432" unicode="&#x638;" horiz-adv-x="1324" arabic-form="isolated" 
d="M835 1362v-11q-38 -47 -72 -79.5t-64 -55.5q-26 16 -51.5 31.5t-51.5 30.5t-51.5 30t-51.5 31q20 18 38 34.5t35 31.5q17 16 34.5 32t38.5 34zM545 367h-1q14 -6 28.5 -8t25.5 -3q123 43 236.5 114t205.5 160q8 14 17.5 28.5t17.5 28.5q-2 30 -15.5 51.5t-33.5 36
t-43.5 23t-45 13t-39 5.5t-24.5 1q-186 0 -290 -168v1l-2 -4q-2 -3 -4 -7l-4 -8l-4 -8v1q-23 -35 -34 -75.5t-11 -84.5q0 -47 10 -88v1zM420 702q6 0 14.5 -1t14.5 -1q12 73 40 140t69 118t93 81.5t112 30.5q57 0 111 -30t101 -78t86 -107.5t66 -119.5q10 -21 18.5 -53.5
t15 -70t10 -77t3.5 -75.5q-53 -96 -139 -163.5t-202 -106.5q-49 -18 -102.5 -27.5t-106.5 -9.5q-61 0 -124 12.5t-120 33.5q-55 20 -100 45t-74 53q-74 69 -126 152t-80 178q9 -4 14 -6.5t9.5 -4.5t11 -5.5t19.5 -8.5q45 -114 197 -216q32 -21 55 -31.5t32 -10.5q21 0 21 22
v703q-143 3 -213 78t-70 201q0 30 6 54q54 -27 111.5 -40.5t122.5 -13.5q26 0 53.5 3t50.5 8v-656z" />
    <glyph glyph-name="uniFEC6" unicode="&#x638;" horiz-adv-x="1047" arabic-form="final" 
d="M835 1362v-11q-38 -47 -72 -79.5t-64 -55.5q-26 16 -51.5 31.5t-51.5 30.5t-51.5 30t-51.5 31q20 18 38 34.5t35 31.5q17 16 34.5 32t38.5 34zM545 367h-1q14 -6 28.5 -8t25.5 -3q123 43 236.5 114t205.5 160q8 14 17.5 28.5t17.5 28.5q-2 30 -15.5 51.5t-33.5 36
t-43.5 23t-45 13t-39 5.5t-24.5 1q-186 0 -290 -168v1l-2 -4q-2 -3 -4 -7l-4 -8l-4 -8v1q-23 -35 -34 -75.5t-11 -84.5q0 -47 10 -88v1zM420 702q6 0 14.5 -1t14.5 -1q12 73 40 140t69 118t93 81.5t112 30.5q57 0 111 -30t101 -78t86 -107.5t66 -119.5q10 -21 18.5 -53.5
t15 -70t10 -77t3.5 -75.5q-53 -96 -139 -163.5t-202 -106.5q-49 -18 -102.5 -27.5t-106.5 -9.5q-61 0 -124 12.5t-120 33.5q-55 20 -100 45t-74 53q-74 69 -126 152t-80 178q9 -4 14 -6.5t9.5 -4.5t11 -5.5t19.5 -8.5q45 -114 197 -216q32 -21 55 -31.5t32 -10.5q21 0 21 22
v703q-143 3 -213 78t-70 201q0 30 6 54q54 -27 111.5 -40.5t122.5 -13.5q26 0 53.5 3t50.5 8v-656z" />
    <glyph glyph-name="uniFEC7" unicode="&#x638;" horiz-adv-x="1279" arabic-form="initial" 
d="M974 1362v-11q-38 -47 -71.5 -79.5t-63.5 -55.5l-46 28q-40 23 -79 46.5t-79 48.5q20 18 37.5 34.5t34.5 31.5q16 15 34 32t37 34zM491 363q11 -9 33 -9q32 0 83.5 22.5t108 56t110.5 71.5t89 69q35 34 61.5 67.5t40.5 62.5q-12 37 -31.5 61.5t-44.5 39.5t-55.5 21.5
t-64.5 6.5q-66 0 -128.5 -28.5t-111 -77.5t-78.5 -115t-30 -142q0 -49 12 -99v1zM3 326q173 -24 234 -24q26 0 59 1t60 3v762q-22 1 -43.5 3t-30.5 6l-4 4q-10 9 -20.5 18t-21.5 17q-46 35 -71 92t-25 133q0 37 5 60q11 -5 32 -14t54 -21q45 -10 75 -15t41 -5q12 0 27 1.5
t32 5.5q2 0 4.5 1t4.5 1v-388q75 55 141 81.5t126 26.5q54 0 104 -14q119 -67 184 -144q28 -32 54.5 -77.5t50.5 -101.5q26 -59 40 -125.5t14 -142.5q-45 -91 -136 -165q-76 -61 -195 -105q-73 -26 -138.5 -38t-122.5 -16q-32 0 -64 5.5t-67 14.5t-74.5 20t-85.5 22
q-68 14 -112.5 25t-70.5 19t-37 13t-13 7h1q-14 8 -31.5 17.5t-32.5 17.5z" />
    <glyph glyph-name="uniFEC8" unicode="&#x638;" horiz-adv-x="998" arabic-form="medial" 
d="M974 1362v-11q-38 -47 -71.5 -79.5t-63.5 -55.5l-46 28q-40 23 -79 46.5t-79 48.5q20 18 37.5 34.5t34.5 31.5q16 15 34 32t37 34zM491 363q11 -9 33 -9q32 0 83.5 22.5t108 56t110.5 71.5t89 69q35 34 61.5 67.5t40.5 62.5q-12 37 -31.5 61.5t-44.5 39.5t-55.5 21.5
t-64.5 6.5q-66 0 -128.5 -28.5t-111 -77.5t-78.5 -115t-30 -142q0 -49 12 -99v1zM3 326q173 -24 234 -24q26 0 59 1t60 3v762q-22 1 -43.5 3t-30.5 6l-4 4q-10 9 -20.5 18t-21.5 17q-46 35 -71 92t-25 133q0 37 5 60q11 -5 32 -14t54 -21q45 -10 75 -15t41 -5q12 0 27 1.5
t32 5.5q2 0 4.5 1t4.5 1v-388q75 55 141 81.5t126 26.5q54 0 104 -14q119 -67 184 -144q28 -32 54.5 -77.5t50.5 -101.5q26 -59 40 -125.5t14 -142.5q-45 -91 -136 -165q-76 -61 -195 -105q-73 -26 -138.5 -38t-122.5 -16q-32 0 -64 5.5t-67 14.5t-74.5 20t-85.5 22
q-68 14 -112.5 25t-70.5 19t-37 13t-13 7h1q-14 8 -31.5 17.5t-32.5 17.5z" />
    <glyph glyph-name="afii57433" unicode="&#x639;" horiz-adv-x="849" arabic-form="isolated" 
d="M682 -582q-83 -66 -221 -66q-81 0 -134 15.5t-88 37.5t-58 46t-45 41q-40 38 -66.5 75t-42 74.5t-21.5 75.5t-6 78q0 77 21 107l213 254q-51 69 -79 143.5t-28 149.5v62q0 54 -8 89.5t-26 58.5q34 23 61 45t47 45t33.5 49t20.5 57q48 -48 93.5 -90t89 -73.5t85 -50
t81.5 -18.5q54 0 90 29.5t36 84.5q0 21 -8 43h8q17 0 30 -8.5t21.5 -22.5t13 -32.5t4.5 -38.5q0 -51 -31 -99l1 3q-85 -79 -138 -79q-145 0 -212 128q-58 -43 -102 -99v1q-2 -11 -2 -15.5v-6.5v-6q0 -63 45 -99h-1q16 -6 29.5 -10t27.5 -6t29 -2.5t34 -0.5q70 0 117.5 7
t85.5 26v-283l-64 16h-331q-12 -24 -26.5 -52t-27.5 -55.5t-22 -53.5t-9 -47q0 -62 27.5 -126t78.5 -115.5t124 -84t165 -32.5q26 0 47 10.5t38 33.5v-213z" />
    <glyph glyph-name="uniFECA" unicode="&#x639;" horiz-adv-x="986" arabic-form="final" 
d="M786 397q7 14 12 24.5t8.5 20.5t5 20.5t1.5 24.5v52q-13 27 -37 52t-55.5 43.5t-69.5 29.5t-80 11q-83 0 -125.5 -54t-48.5 -156q0 -5 1 -9.5t1 -10.5v-4q2 -11 4 -24.5t2 -22.5zM694 -588q-66 -64 -203 -64q-94 0 -167.5 31.5t-128 79t-92 103.5t-60.5 104.5t-33 81.5
t-10 35q0 67 37 118l216 270q23 41 42.5 83t34 82t22.5 75.5t8 63.5q0 100 -11.5 179t-38.5 124l-6 12q82 125 198 125q46 0 99.5 -18.5t105.5 -50.5t97.5 -75.5t75.5 -93.5q-18 -60 -33 -133t-15 -151q57 -36 92.5 -50t61.5 -19v-46q-37 -4 -70 -24t-64 -42.5t-60.5 -40.5
t-59.5 -18h-432q-12 -26 -27 -56t-28.5 -60t-23 -57t-9.5 -46q0 -61 27 -120.5t77 -108.5t122 -84t162 -47q12 0 24.5 4.5t27.5 16.5t32.5 33t39.5 55z" />
    <glyph glyph-name="uniFECB" unicode="&#x639;" horiz-adv-x="1081" arabic-form="initial" 
d="M843 557q-34 4 -70 23.5t-70.5 41t-66.5 38.5t-57 17q-15 0 -27 -8t-21 -26.5t-13.5 -49.5t-4.5 -77q0 -34 9 -65t27 -57h330q7 5 21.5 10.5t25.5 7.5v-270q-20 6 -32 8.5t-22 2.5h-373q-14 -6 -30 -24t-32 -50q-18 -37 -117 -37q-16 9 -35.5 23t-48.5 34l-248 176h1
q-11 5 -19.5 9.5t-19.5 10.5q10 8 14 10.5t14 11.5l3 3l158 -91q27 1 45 1.5t32 4t27.5 12.5t32.5 26q46 48 100 84t102 47q-3 28 -9 51t-18.5 45t-32.5 45t-50 50q-17 17 -37 39t-42 41q25 17 49.5 37t46.5 43.5t38.5 52t25.5 62.5q39 -42 78 -80.5t81 -67t89 -45.5
t102 -17q125 0 125 95q0 13 -0.5 20.5t-5.5 16.5q36 0 54.5 -23.5t18.5 -78.5q0 -38 -13.5 -63.5t-34.5 -41t-47.5 -22t-52.5 -6.5z" />
    <glyph glyph-name="uniFECC" unicode="&#x639;" horiz-adv-x="996" arabic-form="medial" 
d="M842 389q35 -5 104 -46q29 -20 50 -21v-46q-24 -5 -49.5 -16.5t-51.5 -28.5q-1 -1 -2 -1t-3 -2h1q-13 -10 -29 -22t-36 -25q-39 -28 -84 -28h-418q-5 2 -29.5 11t-52.5 19.5t-52 20t-30 11.5q-42 17 -85 33t-81 30q-7 5 -13.5 8.5t-14.5 8.5q-4 2 -8 5.5t-8 5.5
q11 5 16.5 7t10.5 4q2 2 6 3t8 3q1 0 2 -1l6 -2q5 -2 18.5 -6t27.5 -9q8 -2 16 -4.5t16 -4.5q9 -3 19.5 -5.5t19.5 -4.5q34 1 72.5 8t73.5 21q75 29 100 81q6 17 8.5 49t2.5 78q0 88 -14 153t-46 113q30 49 65 80t67 40q17 2 33 4t30 2q108 0 202.5 -59.5t178.5 -177.5
q-11 -33 -18.5 -67t-12.5 -67l-37 -5q-23 50 -81 85t-141 52q-9 3 -16 4t-14 1q-37 0 -69 -19.5t-55 -56.5q-17 -30 -28 -67t-11 -74q0 -6 1 -14.5t3 -16.5q0 -1 0.5 -2t0.5 -2q2 -5 2.5 -15.5t0.5 -19.5z" />
    <glyph glyph-name="afii57434" unicode="&#x63a;" horiz-adv-x="849" arabic-form="isolated" 
d="M635 1229v-11q-38 -45 -71.5 -79t-65.5 -60q-53 35 -102 64.5t-101 63.5q20 18 37 34t33.5 31t33.5 30.5t37 33.5zM682 -582q-83 -66 -221 -66q-77 0 -139 19t-110 49t-83 67t-59 73t-37.5 67t-18.5 49q-14 64 -14 119q0 77 21 107l213 254q-51 69 -79 143.5t-28 149.5
v62q0 54 -8 89.5t-26 58.5q34 23 61 45t47 45t33.5 49t20.5 57q48 -48 93.5 -90t89 -73.5t85 -50t81.5 -18.5q54 0 90 29.5t36 84.5q0 21 -8 43h8q17 0 30 -8.5t21.5 -22.5t13 -32.5t4.5 -38.5q0 -51 -31 -99l1 3q-85 -79 -138 -79q-145 0 -212 128q-58 -43 -102 -99v1
q-2 -11 -2 -15.5v-6.5v-6q0 -63 45 -99h-1q8 -3 24.5 -8t25.5 -11q39 0 78 1t75 4.5t67 10t53 17.5v-283l-64 16h-331q-12 -24 -26.5 -52t-27.5 -55.5t-22 -53.5t-9 -47q0 -62 27.5 -126t78.5 -115.5t124 -84t165 -32.5q26 0 47 10.5t38 33.5v-213z" />
    <glyph glyph-name="uniFECE" unicode="&#x63a;" horiz-adv-x="986" arabic-form="final" 
d="M725 1258v-16q-38 -43 -71 -76t-63 -61q-53 33 -102.5 63.5t-102.5 62.5q20 18 37 34.5t33.5 32.5t34 32t36.5 34zM786 397q7 14 12 24.5t8.5 20.5t5 20.5t1.5 24.5v52q-13 27 -37 52t-55.5 43.5t-69.5 29.5t-80 11q-83 0 -125.5 -54t-48.5 -156q0 -5 1 -9.5t1 -10.5v-4
q2 -11 4 -24.5t2 -22.5zM694 -588q-66 -64 -203 -64q-94 0 -167.5 31.5t-128 79t-92 103.5t-60.5 104.5t-33 81.5t-10 35q0 67 37 118l216 270q23 41 42.5 83t34 82t22.5 75.5t8 63.5q0 100 -11.5 179t-38.5 124l-6 12q82 125 198 125q46 0 99.5 -18.5t105.5 -50.5
t97.5 -75.5t75.5 -93.5q-18 -60 -33 -133t-15 -151q57 -36 92.5 -50t61.5 -19v-46q-37 -4 -70 -24t-64 -42.5t-60.5 -40.5t-59.5 -18h-432q-12 -26 -27 -56t-28.5 -60t-23 -57t-9.5 -46q0 -61 27 -120.5t77 -108.5t122 -84t162 -47q12 0 24.5 4.5t27.5 16.5t32.5 33t39.5 55
z" />
    <glyph glyph-name="uniFECF" unicode="&#x63a;" horiz-adv-x="1081" arabic-form="initial" 
d="M745 1258v-16q-39 -45 -71.5 -78t-61.5 -59q-25 15 -49.5 30.5t-48.5 29.5l-108 66q20 18 37.5 34.5t34 32.5t33.5 31.5t36 33.5zM843 557q-34 4 -70 23.5t-70.5 41t-66.5 38.5t-57 17q-15 0 -27 -8t-21 -26.5t-13.5 -49.5t-4.5 -77q0 -34 9 -65t27 -57h330
q7 5 21.5 10.5t25.5 7.5v-270q-20 6 -32 8.5t-22 2.5h-373q-14 -6 -30 -24t-32 -50q-18 -37 -117 -37q-16 9 -35.5 23t-48.5 34l-248 176h1q-11 5 -19.5 9.5t-19.5 10.5q10 8 14 10.5t14 11.5l3 3l158 -91q27 1 45 1.5t32 4t27.5 12.5t32.5 26q46 48 100 84t102 47
q-3 28 -9 51t-18.5 45t-32.5 45t-50 50q-17 17 -37 39t-42 41q25 17 49.5 37t46.5 43.5t38.5 52t25.5 62.5q39 -42 78 -80.5t81 -67t89 -45.5t102 -17q125 0 125 95q0 13 -0.5 20.5t-5.5 16.5q36 0 54.5 -23.5t18.5 -78.5q0 -38 -13.5 -63.5t-34.5 -41t-47.5 -22t-52.5 -6.5
z" />
    <glyph glyph-name="uniFED0" unicode="&#x63a;" horiz-adv-x="996" arabic-form="medial" 
d="M753 1258v-16q-39 -45 -71.5 -78t-61.5 -59q-53 33 -103.5 63.5t-102.5 62.5q20 18 36.5 34.5t33.5 31.5q16 15 34.5 32t36.5 34zM842 389q35 -5 104 -46q29 -20 50 -21v-46q-24 -5 -49.5 -16.5t-51.5 -28.5q-1 -1 -2 -1t-3 -2h1q-13 -10 -29 -22t-36 -25
q-39 -28 -84 -28h-418q-5 2 -29.5 11t-52.5 19.5t-52 20t-30 11.5q-42 17 -85 33t-81 30q-7 5 -13.5 8.5t-14.5 8.5q-4 2 -8 5.5t-8 5.5q11 5 16.5 7t10.5 4q2 2 6 3t8 3q1 0 2 -1l6 -2q5 -2 18.5 -6t27.5 -9q8 -2 16 -4.5t16 -4.5q9 -3 19.5 -5.5t19.5 -4.5q34 1 72.5 8
t73.5 21q75 29 100 81q6 17 8.5 49t2.5 78q0 88 -14 153t-46 113q30 49 65 80t67 40q17 2 33 4t30 2q108 0 202.5 -59.5t178.5 -177.5q-11 -33 -18.5 -67t-12.5 -67l-37 -5q-23 50 -81 85t-141 52q-9 3 -16 4t-14 1q-37 0 -69 -19.5t-55 -56.5q-17 -30 -28 -67t-11 -74
q0 -6 1 -14.5t3 -16.5q0 -1 0.5 -2t0.5 -2q2 -5 2.5 -15.5t0.5 -19.5z" />
    <glyph glyph-name="afii57441" unicode="&#x641;" horiz-adv-x="1763" arabic-form="isolated" 
d="M1547 1152v-8q-40 -48 -72.5 -82t-63.5 -59q-17 11 -34 21t-33 20l-70 42t-71 44q20 18 38 34.5t35 31.5q16 14 34.5 30t35.5 33zM1353 600q4 -1 13 -1q14 0 24 9t16 24q2 8 4.5 22.5t3.5 36.5q2 23 3 40t1 29q0 50 -10 70q-18 44 -64 44q-14 0 -21 -5q-56 -41 -56 -145
q0 -21 14 -57q10 -20 20.5 -34t24.5 -22q6 -2 11.5 -4t10.5 -4zM1472 153h-1122q-38 0 -150 95q-47 41 -81 75.5t-52 61.5q-32 46 -49.5 90.5t-17.5 82.5q0 60 34 133t97 155q35 32 100 100q32 35 50 59.5t18 36.5q0 17 -11.5 20.5t-27.5 3.5h-57q-36 -9 -79.5 -19.5
t-78.5 -19.5q9 18 15 28.5t11 21.5l16 31h369q-13 -21 -26.5 -41t-25.5 -39q-29 -45 -57 -88t-60 -94q-40 -62 -40 -141q0 -121 85 -247q45 -67 97 -106.5t110 -54.5q14 -3 34 -3l708 1q26 53 47 126l46 126q-15 11 -37 19q-21 3 -36 13q-12 4 -24.5 7.5t-26.5 8.5l-9 3
q-47 14 -82 28.5t-55 28.5q-62 47 -62 140q0 68 42 124q23 29 51 44t58 15q1 -1 3 -2q4 -2 8 -6h-1q108 -23 186.5 -55.5t125.5 -70.5q33 -27 56.5 -70.5t33.5 -93.5q8 -40 8 -120q0 -17 -0.5 -28t-1.5 -17z" />
    <glyph glyph-name="uniFED2" unicode="&#x641;" horiz-adv-x="1524" arabic-form="final" 
d="M1547 1152v-8q-40 -48 -72.5 -82t-63.5 -59q-17 11 -34 21t-33 20l-70 42t-71 44q20 18 38 34.5t35 31.5q16 14 34.5 30t35.5 33zM1472 153h-1122q-38 0 -150 95q-47 41 -81 75.5t-52 61.5q-32 46 -49.5 90.5t-17.5 82.5q0 60 34 133t97 155q35 32 100 100q32 35 50 59.5
t18 36.5q0 17 -11.5 20.5t-27.5 3.5h-57q-36 -9 -79.5 -19.5t-78.5 -19.5q9 18 15 28.5t11 21.5l16 31h369q-13 -21 -26.5 -41t-25.5 -39q-29 -45 -57 -88t-60 -94q-40 -62 -40 -141q0 -121 85 -247q45 -67 97 -106.5t110 -54.5q14 -3 34 -3l708 1q26 53 47 126l46 126
q-15 11 -37 19q-21 3 -36 13q-12 4 -24.5 7.5t-26.5 8.5l-9 3q-47 14 -82 28.5t-55 28.5q-62 47 -62 140q0 68 42 124q23 29 51 44t58 15q1 -1 3 -2q4 -2 8 -6h-1q108 -23 186.5 -55.5t125.5 -70.5q33 -27 56.5 -70.5t33.5 -93.5q8 -40 8 -120q0 -17 -0.5 -28t-1.5 -17z
M1353 600q4 -1 13 -1q14 0 24 9t16 24q2 8 4.5 22.5t3.5 36.5q2 23 3 40t1 29q0 50 -10 70q-18 44 -64 44q-14 0 -21 -5q-56 -41 -56 -145q0 -21 14 -57q10 -20 20.5 -34t24.5 -22q6 -2 11.5 -4t10.5 -4z" />
    <glyph glyph-name="uniFED3" unicode="&#x641;" horiz-adv-x="993" arabic-form="initial" 
d="M776 1157v-10q-38 -49 -71 -83.5t-63 -57.5q-20 12 -39 24.5t-38 23.5q-32 19 -63.5 38.5t-65.5 39.5q20 19 39 35t36 32l34 30t36 32zM538 580q-11 5 -23.5 8.5t-26.5 8.5q-4 2 -10.5 4t-4.5 1q-46 13 -81.5 27.5t-53.5 28.5q-65 48 -65 138q0 35 10.5 68t30.5 59
q48 60 113 60q1 -1 3 -2t3.5 -2.5t4.5 -3.5h-1q109 -26 187 -58.5t122 -69.5q32 -29 56 -70t35 -92q6 -39 6 -122v-26.5t-1 -17.5l-141 -366h-412q-39 16 -77.5 31t-77.5 31t-78 31.5t-78 30.5q-5 4 -8 6.5t-5 4.5l-15 12q6 5 9.5 8t7.5 7q2 2 3.5 3t3.5 3q20 -5 39.5 -9
t37.5 -8l41 -9q25 -7 68.5 -13.5t100.5 -13.5q35 -5 67.5 -7.5t55.5 -2.5q60 0 93 12t40 32q16 35 36 91q12 39 24.5 79t24.5 79q-18 11 -41 20q-13 3 -23 9zM583 600q4 -1 13 -1q14 0 24 9t16 24q2 8 4.5 22.5t3.5 36.5q2 23 3 40t1 29q0 50 -10 70q-18 44 -64 44
q-14 0 -21 -5q-56 -41 -56 -145q0 -21 14 -57q10 -20 20.5 -34t24.5 -22q6 -2 11.5 -4t10.5 -4z" />
    <glyph glyph-name="uniFED4" unicode="&#x641;" horiz-adv-x="759" arabic-form="medial" 
d="M776 1157v-10q-38 -49 -71 -83.5t-63 -57.5q-20 12 -39 24.5t-38 23.5q-32 19 -63.5 38.5t-65.5 39.5q20 19 39 35t36 32l34 30t36 32zM538 580q-11 5 -23.5 8.5t-26.5 8.5q-4 2 -10.5 4t-4.5 1q-46 13 -81.5 27.5t-53.5 28.5q-65 48 -65 138q0 35 10.5 68t30.5 59
q48 60 113 60q1 -1 3 -2t3.5 -2.5t4.5 -3.5h-1q109 -26 187 -58.5t122 -69.5q32 -29 56 -70t35 -92q6 -39 6 -122v-26.5t-1 -17.5l-141 -366h-412q-39 16 -77.5 31t-77.5 31t-78 31.5t-78 30.5q-5 4 -8 6.5t-5 4.5l-15 12q6 5 9.5 8t7.5 7q2 2 3.5 3t3.5 3q20 -5 39.5 -9
t37.5 -8l41 -9q25 -7 68.5 -13.5t100.5 -13.5q35 -5 67.5 -7.5t55.5 -2.5q60 0 93 12t40 32q16 35 36 91q12 39 24.5 79t24.5 79q-18 11 -41 20q-13 3 -23 9zM583 600q4 -1 13 -1q14 0 24 9t16 24q2 8 4.5 22.5t3.5 36.5q2 23 3 40t1 29q0 50 -10 70q-18 44 -64 44
q-14 0 -21 -5q-56 -41 -56 -145q0 -21 14 -57q10 -20 20.5 -34t24.5 -22q6 -2 11.5 -4t10.5 -4z" />
    <glyph glyph-name="afii57442" unicode="&#x642;" horiz-adv-x="1300" arabic-form="isolated" 
d="M808 551h-1q15 -8 30 -13t28 -5q56 0 56 46q0 13 -8 42q-11 55 -26.5 93.5t-33.5 60.5q-31 29 -65 29q-1 0 -3.5 -1.5t-3.5 -2.5q-13 -4 -23 -11q-14 -12 -21.5 -30.5t-7.5 -44.5q0 -23 9.5 -54t26.5 -67zM848 1087l24 22t26 23q15 14 29.5 27t28.5 26h10
q22 -13 42.5 -25.5t41.5 -24.5q25 -14 49.5 -28.5t50.5 -29.5v-15q-20 -26 -53 -61.5t-81 -78.5l-176 100q-47 -62 -97 -103q-24 15 -47 29t-45 28q-26 16 -54 34t-57 35q20 18 37.5 34t34.5 32q17 15 33 30.5t35 32.5zM1147 148q-102 -37 -201 -72.5t-199 -71.5t-199 -71.5
t-202 -72.5q-93 40 -167.5 115.5t-124.5 171.5q-27 52 -40.5 113t-13.5 128q0 87 28.5 175t80.5 171q28 43 72 97t102 117q4 4 6 7q5 5 10.5 11t10.5 13q3 4 9 10q2 2 4 5t4 5q33 38 33 63v22q-13 2 -22 2.5t-18 0.5l-24 1h-16q-36 -10 -80.5 -21t-81.5 -22q10 20 16.5 33.5
t13.5 27.5q2 5 4.5 10.5l7.5 16.5h369l-174 -264v1q-73 -161 -73 -320q0 -23 1.5 -50.5t5.5 -58.5q11 -64 34.5 -125.5t59 -117t82.5 -103t103 -85.5q84 29 171 58.5t171 58.5q2 25 3 71.5t1 101.5q0 63 -1 115t-3 80q-18 1 -38.5 2.5t-38.5 2.5q-32 -5 -62 -8t-57 -3
q-77 0 -128.5 30.5t-76.5 86.5q-8 17 -12.5 39.5t-4.5 44.5q0 52 22 90.5t62 60.5q32 4 71 5.5t85 1.5q116 0 158 -12q66 -14 115 -46t78 -80q2 -5 6.5 -14.5t8.5 -19.5q6 -14 13.5 -33t17.5 -42q1 -2 2 -4.5t2 -4.5q14 -34 14 -41v-403z" />
    <glyph glyph-name="uniFED6" unicode="&#x642;" horiz-adv-x="1147" arabic-form="final" 
d="M848 1087l24 22t26 23q15 14 29.5 27t28.5 26h10q22 -13 42.5 -25.5t41.5 -24.5q25 -14 49.5 -28.5t50.5 -29.5v-15q-20 -26 -53 -61.5t-81 -78.5l-176 100q-47 -62 -97 -103q-24 15 -47 29t-45 28q-26 16 -54 34t-57 35q20 18 37.5 34t34.5 32q17 15 33 30.5t35 32.5z
M1147 148q-102 -37 -201 -72.5t-199 -71.5t-199 -71.5t-202 -72.5q-93 40 -167.5 115.5t-124.5 171.5q-27 52 -40.5 113t-13.5 128q0 87 28.5 175t80.5 171q28 43 72 97t102 117q4 4 6 7q5 5 10.5 11t10.5 13q3 4 9 10q2 2 4 5t4 5q33 38 33 63v22q-13 2 -22 2.5t-18 0.5
l-24 1h-16q-36 -10 -80.5 -21t-81.5 -22q10 20 16.5 33.5t13.5 27.5q2 5 4.5 10.5l7.5 16.5h369l-174 -264v1q-73 -161 -73 -320q0 -23 1.5 -50.5t5.5 -58.5q11 -64 34.5 -125.5t59 -117t82.5 -103t103 -85.5q84 29 171 58.5t171 58.5q2 25 3 71.5t1 101.5q0 63 -1 115
t-3 80q-18 1 -38.5 2.5t-38.5 2.5q-32 -5 -62 -8t-57 -3q-77 0 -128.5 30.5t-76.5 86.5q-8 17 -12.5 39.5t-4.5 44.5q0 52 22 90.5t62 60.5q32 4 71 5.5t85 1.5q116 0 158 -12q66 -14 115 -46t78 -80q2 -5 6.5 -14.5t8.5 -19.5q6 -14 13.5 -33t17.5 -42q1 -2 2 -4.5t2 -4.5
q14 -34 14 -41v-403zM808 551h-1q15 -8 30 -13t28 -5q56 0 56 46q0 13 -8 42q-11 55 -26.5 93.5t-33.5 60.5q-31 29 -65 29q-1 0 -3.5 -1.5t-3.5 -2.5q-13 -4 -23 -11q-14 -12 -21.5 -30.5t-7.5 -44.5q0 -23 9.5 -54t26.5 -67z" />
    <glyph glyph-name="uniFED7" unicode="&#x642;" horiz-adv-x="993" arabic-form="initial" 
d="M501 1373q26 22 54.5 47.5t53.5 48.5h12q20 -11 39 -22.5t38 -22.5q26 -16 51 -31.5t52 -30.5v-13q-21 -29 -53.5 -64.5t-79.5 -77.5l-177 100q-23 -30 -47.5 -57t-51.5 -47q-35 22 -70.5 44.5t-70.5 44.5l-61 40q23 20 44 39.5t42 39.5q14 13 27.5 25.5t27.5 25.5z
M538 580q-11 5 -23.5 8.5t-26.5 8.5q-4 2 -10.5 4t-4.5 1q-46 13 -81.5 27.5t-53.5 28.5q-65 48 -65 138q0 35 10.5 68t30.5 59q48 60 113 60q1 -1 3 -2t3.5 -2.5t4.5 -3.5h-1q109 -26 187 -58.5t122 -69.5q32 -29 56 -70t35 -92q6 -39 6 -122v-26.5t-1 -17.5l-141 -366
h-412q-39 16 -77.5 31t-77.5 31t-78 31.5t-78 30.5q-5 4 -8 6.5t-5 4.5l-15 12q6 5 9.5 8t7.5 7q2 2 3.5 3t3.5 3q20 -5 39.5 -9t37.5 -8l41 -9q25 -7 68.5 -13.5t100.5 -13.5q35 -5 67.5 -7.5t55.5 -2.5q60 0 93 12t40 32q16 35 36 91q12 39 24.5 79t24.5 79q-18 11 -41 20
q-13 3 -23 9zM583 600q4 -1 13 -1q14 0 24 9t16 24q2 8 4.5 22.5t3.5 36.5q2 23 3 40t1 29q0 50 -10 70q-18 44 -64 44q-14 0 -21 -5q-56 -41 -56 -145q0 -21 14 -57q10 -20 20.5 -34t24.5 -22q6 -2 11.5 -4t10.5 -4z" />
    <glyph glyph-name="uniFED8" unicode="&#x642;" horiz-adv-x="759" arabic-form="medial" 
d="M501 1373q26 22 54.5 47.5t53.5 48.5h12q20 -11 39 -22.5t38 -22.5q26 -16 51 -31.5t52 -30.5v-13q-21 -29 -53.5 -64.5t-79.5 -77.5l-177 100q-23 -30 -47.5 -57t-51.5 -47q-35 22 -70.5 44.5t-70.5 44.5l-61 40q23 20 44 39.5t42 39.5q14 13 27.5 25.5t27.5 25.5z
M538 580q-11 5 -23.5 8.5t-26.5 8.5q-4 2 -10.5 4t-4.5 1q-46 13 -81.5 27.5t-53.5 28.5q-65 48 -65 138q0 35 10.5 68t30.5 59q48 60 113 60q1 -1 3 -2t3.5 -2.5t4.5 -3.5h-1q109 -26 187 -58.5t122 -69.5q32 -29 56 -70t35 -92q6 -39 6 -122v-26.5t-1 -17.5l-141 -366
h-412q-39 16 -77.5 31t-77.5 31t-78 31.5t-78 30.5q-5 4 -8 6.5t-5 4.5l-15 12q6 5 9.5 8t7.5 7q2 2 3.5 3t3.5 3q20 -5 39.5 -9t37.5 -8l41 -9q25 -7 68.5 -13.5t100.5 -13.5q35 -5 67.5 -7.5t55.5 -2.5q60 0 93 12t40 32q16 35 36 91q12 39 24.5 79t24.5 79q-18 11 -41 20
q-13 3 -23 9zM583 600q4 -1 13 -1q14 0 24 9t16 24q2 8 4.5 22.5t3.5 36.5q2 23 3 40t1 29q0 50 -10 70q-18 44 -64 44q-14 0 -21 -5q-56 -41 -56 -145q0 -21 14 -57q10 -20 20.5 -34t24.5 -22q6 -2 11.5 -4t10.5 -4z" />
    <glyph glyph-name="afii57443" unicode="&#x643;" horiz-adv-x="1757" arabic-form="isolated" 
d="M696 668q0 4 -88 13q-89 9 -89 45q0 26 17.5 50t47.5 41q31 17 74 36t95 37l25 -62q-91 -11 -115 -21q-25 -9 -25 -21q0 -20 101 -31q103 -10 103 -55q0 -40 -61 -80q-59 -40 -146 -40q-54 0 -94 10q-20 5 -47 12.5t-60 17.5v2q43 5 86 9t88 8q42 5 65 12t23 17zM359 295
q96 -6 169 -9.5t103 -3.5q177 0 293 5t168 14q52 12 80.5 30.5t30.5 39.5q-22 126 -43.5 253t-44.5 252q-23 127 -44.5 252t-44.5 253q36 -2 70.5 -2.5t67.5 -2.5q35 -2 72 -3t74 -3q132 -11 196.5 -34t47.5 -58q-8 -31 -11.5 -60t-3.5 -57q0 -19 1.5 -37.5t6.5 -35.5h-14
q-52 0 -100 31q-19 15 -25 9q-20 16 -43.5 34t-52.5 38l28 -140l28 -140q59 -146 119 -293.5t120 -292.5v-181h-1382q-10 -9 -41 -24l-5 -2q-1 0 -5 -2l-6 -3h1q-2 -2 -2.5 -1.5t-0.5 6.5q0 31 -14 63.5t-37 61.5q-17 21 -48 51t-67 60q39 23 70 42t48 35q23 20 42.5 45.5
t33.5 54.5q7 -10 12.5 -17.5t11.5 -15t13.5 -16t17.5 -20.5h-1q20 -11 41.5 -23.5t41.5 -26.5q28 -45 28 -89v-37z" />
    <glyph glyph-name="uniFEDA" unicode="&#x643;" horiz-adv-x="1614" arabic-form="final" 
d="M705 668q0 4 -88 13q-89 9 -89 45q0 26 17.5 50t47.5 41q31 17 74 36t95 37l25 -62q-91 -11 -115 -21q-25 -9 -25 -21q0 -20 101 -31q103 -10 103 -55q0 -40 -61 -80q-59 -40 -146 -40q-54 0 -94 10q-20 5 -47 12.5t-60 17.5v2q43 5 86 9t88 8q42 5 65 12t23 17zM392 318
q94 -6 158 -9t94 -3q176 0 287.5 4.5t160.5 14.5q94 19 97 50q-43 251 -88 504.5t-89 503.5l297 -12q146 -11 208 -38.5t45 -68.5q-8 -29 -11 -57.5t-3 -54.5q0 -48 10 -84q-8 -1 -15.5 -1.5t-15.5 -0.5q-40 0 -76 15q4 -3 7.5 -5.5t8.5 -5.5q14 -11 22.5 -16.5t8.5 -7.5
t-42 25t-125 85q12 -60 24.5 -118t24.5 -118q58 -143 117 -287.5t117 -287.5v-195h-1361q-3 -2 -15 -8.5t-31 -16.5q-15 -6 -23.5 -11t-12.5 -9l-2 1q4 13 4 33q0 56 -47 114q-35 48 -126 119q48 26 80.5 47t50.5 38q28 23 48 53.5t34 66.5q14 -22 30.5 -44t36.5 -45h-1
q19 -10 40 -23t43 -29q30 -46 30 -96v-22z" />
    <glyph glyph-name="uniFEDB" unicode="&#x643;" horiz-adv-x="1589" arabic-form="initial" 
d="M127 1112q13 3 21.5 6.5t13.5 5.5q4 2 8 3.5t10 3.5l262 76t263 76q88 26 175 50.5t175 50.5q2 -23 6 -52.5t10 -65.5q19 -52 45.5 -95t59.5 -73q-53 -39 -114 -39q-68 0 -139 50q-35 26 -61 59t-40 72q-77 -20 -154 -41t-154 -41q48 -47 99 -95t99 -95
q42 -37 88.5 -77.5t93 -81.5t93 -81.5t88.5 -78.5q92 -81 182.5 -160t181.5 -158v-178h-1135q-44 16 -86 32t-85 33q-37 14 -75.5 29t-75.5 29q-7 7 -12 11.5t-11 9.5l-5 5q-2 2 -4 3q5 4 6.5 5t13.5 7l6 4q17 -3 33.5 -5.5t33.5 -5.5t32.5 -6t32.5 -6q27 -5 95.5 -7.5
t179.5 -2.5q175 0 305 8t214 23q52 12 81.5 29t31.5 40z" />
    <glyph glyph-name="uniFEDC" unicode="&#x643;" horiz-adv-x="1439" arabic-form="medial" 
d="M127 1112q13 3 21.5 6.5t13.5 5.5q4 2 8 3.5t10 3.5l262 76t263 76q88 26 175 50.5t175 50.5q2 -23 6 -52.5t10 -65.5q19 -52 45.5 -95t59.5 -73q-53 -39 -114 -39q-68 0 -139 50q-35 26 -61 59t-40 72q-77 -20 -154 -41t-154 -41q48 -47 99 -95t99 -95
q42 -37 88.5 -77.5t93 -81.5t93 -81.5t88.5 -78.5q92 -81 182.5 -160t181.5 -158v-178h-1135q-44 16 -86 32t-85 33q-37 14 -75.5 29t-75.5 29q-7 7 -12 11.5t-11 9.5l-5 5q-2 2 -4 3q5 4 6.5 5t13.5 7l6 4q17 -3 33.5 -5.5t33.5 -5.5t32.5 -6t32.5 -6q27 -5 95.5 -7.5
t179.5 -2.5q175 0 305 8t214 23q52 12 81.5 29t31.5 40z" />
    <glyph glyph-name="afii57444" unicode="&#x644;" horiz-adv-x="1000" arabic-form="isolated" 
d="M879 1154q-28 -47 -28 -72v-1117q-4 -28 -30.5 -60t-61.5 -60q-32 -23 -73 -44.5t-86 -40.5q-10 -2 -20 -4.5t-21 -5.5q-7 -2 -14 -3.5t-15 -3.5q-26 -2 -50.5 -3t-46.5 -1q-197 0 -313 95q-120 100 -120 292q0 95 28 183q115 330 406 509l17 -14l-157 -245v1
q-53 -154 -53 -270q0 -194 129 -292q60 -48 160 -48q36 0 59.5 10.5t32.5 28.5q11 30 17.5 100t8.5 167q1 47 1 103.5v101.5v118q1 16 1 26.5v17.5q0 57 -1.5 105.5t-3.5 89.5q-8 110 -26.5 212.5t-47.5 188.5q29 -11 53 -20t41 -16q56 -16 96 -24t63 -7z" />
    <glyph glyph-name="uniFEDE" unicode="&#x644;" horiz-adv-x="851" arabic-form="final" 
d="M879 1154q-28 -47 -28 -72v-1117q-4 -28 -30.5 -60t-61.5 -60q-32 -23 -73 -44.5t-86 -40.5q-10 -2 -20 -4.5t-21 -5.5q-7 -2 -14 -3.5t-15 -3.5q-26 -2 -50.5 -3t-46.5 -1q-197 0 -313 95q-120 100 -120 292q0 95 28 183q115 330 406 509l17 -14l-157 -245v1
q-53 -154 -53 -270q0 -194 129 -292q60 -48 160 -48q36 0 59.5 10.5t32.5 28.5q11 30 17.5 100t8.5 167q1 47 1 103.5v101.5v118q1 16 1 26.5v17.5q0 57 -1.5 105.5t-3.5 89.5q-8 110 -26.5 212.5t-47.5 188.5q29 -11 53 -20t41 -16q56 -16 96 -24t63 -7z" />
    <glyph glyph-name="uniFEDF" unicode="&#x644;" horiz-adv-x="730" arabic-form="initial" 
d="M592 345q0 -41 -18.5 -77t-49 -62.5t-69.5 -42t-80 -15.5q-6 2 -37 11.5t-74 23t-92 29t-90 28.5q-26 8 -53.5 17t-46.5 16l-32 37l32 36l143 -27q61 2 97.5 31t44.5 80v891q-4 20 -7.5 42.5t-7.5 42.5h357l-17 -85v-976z" />
    <glyph glyph-name="uniFEE0" unicode="&#x644;" horiz-adv-x="592" arabic-form="medial" 
d="M592 345q0 -41 -18.5 -77t-49 -62.5t-69.5 -42t-80 -15.5q-7 2 -35 10.5t-67.5 20.5t-85 26.5t-86.5 28t-73.5 24t-45.5 15.5v73l143 -27q61 2 97.5 31t44.5 80v891q-4 20 -7.5 42.5t-7.5 42.5h357l-17 -85v-976z" />
    <glyph glyph-name="afii57445" unicode="&#x645;" horiz-adv-x="1071" arabic-form="isolated" 
d="M653 474q-22 39 -68 39q-37 0 -56 -19.5t-21 -54.5q22 -63 46.5 -119t49.5 -97t49.5 -65t46.5 -24q10 0 18 2.5t16.5 10t18.5 20.5t24 33q-7 19 -22 55t-33 76.5t-36.5 79.5t-32.5 63zM0 -316v726q0 48 14.5 91.5t40.5 81t62 67.5t80 50q41 15 68 15q36 0 70 -13.5
t63.5 -39.5t52 -63t36.5 -84q9 44 29.5 80.5t50 63t66 41.5t77.5 15q47 0 86 -19t67 -51.5t43 -77t15 -95.5q0 -31 -3.5 -59t-13.5 -61.5t-27 -75.5t-44 -101q-17 -42 -38.5 -90t-38.5 -90q-61 -79 -147 -79q-36 0 -69.5 13t-62.5 36t-52 54t-37 66q-34 90 -68.5 181
t-68.5 179q-38 72 -82 72q-24 0 -45.5 -25t-44.5 -77v-849z" />
    <glyph glyph-name="uniFEE2" unicode="&#x645;" horiz-adv-x="890" arabic-form="final" 
d="M0 -316v726q0 50 20.5 103.5t56 98.5t84 74t104.5 29q36 0 70 -13.5t63.5 -39.5t52 -63t36.5 -84q9 44 29.5 80.5t50 63t66 41.5t77.5 15q47 0 86 -19t67 -51.5t43 -77t15 -95.5q0 -31 -3.5 -59t-13.5 -61.5t-27 -75.5t-44 -101q-19 -47 -38 -93.5t-43.5 -83t-58.5 -59.5
t-84 -23q-36 0 -69.5 13t-62.5 36t-52 54t-37 66q-14 37 -30 83.5t-33.5 94.5t-36 93.5t-38 81.5t-40 57.5t-41.5 21.5q-24 0 -45.5 -25t-44.5 -77v-849zM653 474q-22 39 -68 39q-37 0 -56 -19.5t-21 -54.5q22 -63 46.5 -119t49.5 -97t49.5 -65t46.5 -24q10 0 18 2.5
t16.5 10t18.5 20.5t24 33q-7 19 -22 55t-33 76.5t-36.5 79.5t-32.5 63z" />
    <glyph glyph-name="uniFEE3" unicode="&#x645;" horiz-adv-x="863" arabic-form="initial" 
d="M195 247q15 14 25.5 32t20 47t18.5 73.5t20 111.5q8 45 27.5 82.5t47.5 64.5t62.5 42t73.5 15q38 0 78 -15t72 -45t52.5 -76t20.5 -108q-1 -42 -11 -91t-33 -106l-45 -111q-21 -52 -42 -97.5t-47 -78.5t-60.5 -52t-82.5 -19q-3 2 -32 27t-72 62.5t-93.5 81.5t-95 83
t-77 67.5t-40.5 34.5l-32 38l31 35q13 -7 40 -24t57.5 -34.5t58.5 -31t43 -13.5q10 0 15 5zM456 469q-22 39 -68 39q-37 0 -56 -19.5t-21 -54.5q22 -63 46.5 -119t49.5 -97t49.5 -65t46.5 -24q10 0 18 2.5t16.5 10t18.5 20.5t24 33q-7 19 -22 55t-33 76.5t-36.5 79.5
t-32.5 63z" />
    <glyph glyph-name="uniFEE4" unicode="&#x645;" horiz-adv-x="673" arabic-form="medial" 
d="M195 247q15 14 25.5 32t20 47t18.5 73.5t20 111.5q8 45 27.5 82.5t47.5 64.5t62.5 42t73.5 15q38 0 78 -15t72 -45t52.5 -76t20.5 -108q-1 -42 -11 -91t-33 -106l-45 -111q-21 -52 -42 -97.5t-47 -78.5t-60.5 -52t-82.5 -19q-3 2 -32 27t-72 62.5t-93.5 81.5t-95 83
t-77 67.5t-40.5 34.5l-32 38l31 35q13 -7 40 -24t57.5 -34.5t58.5 -31t43 -13.5q10 0 15 5zM456 469q-22 39 -68 39q-37 0 -56 -19.5t-21 -54.5q22 -63 46.5 -119t49.5 -97t49.5 -65t46.5 -24q10 0 18 2.5t16.5 10t18.5 20.5t24 33q-7 19 -22 55t-33 76.5t-36.5 79.5
t-32.5 63z" />
    <glyph glyph-name="afii57446" unicode="&#x646;" horiz-adv-x="1134" arabic-form="isolated" 
d="M684 878v-25q-43 -50 -80.5 -87t-69.5 -63l-225 140l159 149zM320 634q95 -46 183 -65q-119 -45 -189.5 -121.5t-93.5 -182.5q-2 -17 -3 -36.5t-3 -36.5q2 -80 46.5 -160t127.5 -149q78 24 139.5 74.5t104.5 126.5q37 66 55 145t18 167q0 71 -12 127t-37 97l378 2
q-36 -41 -56.5 -95t-28.5 -122v-237q0 -75 -31 -145.5t-88.5 -128.5t-139 -99t-182.5 -57q-508 295 -508 625q0 186 162 375q56 -42 96 -65.5t63 -38.5h-1z" />
    <glyph glyph-name="uniFEE6" unicode="&#x646;" horiz-adv-x="949" arabic-form="final" 
d="M684 878v-25q-43 -50 -80.5 -87t-69.5 -63l-225 140l159 149zM320 634q95 -46 183 -65q-72 -27 -123.5 -63.5t-86.5 -83.5t-54 -104.5t-25 -125.5q2 -80 46.5 -160t127.5 -149q72 22 130.5 73t100 120t64 152t22.5 168q0 71 -12 127t-37 97l378 2q-36 -41 -56.5 -95
t-28.5 -122v-237q0 -75 -31 -145.5t-88.5 -128.5t-139 -99t-182.5 -57q-508 295 -508 625q0 186 162 375q56 -42 96 -65.5t63 -38.5h-1z" />
    <glyph glyph-name="uniFEE7" unicode="&#x646;" horiz-adv-x="694" arabic-form="initial" 
d="M564 939v-11q-76 -88 -135 -135q-20 12 -40 24.5t-40 23.5q-31 18 -62 36.5t-63 38.5q18 17 34 31.5t30 28.5q19 17 37.5 34.5t41.5 37.5zM547 340q0 -72 -67 -130q-34 -29 -67.5 -44t-68.5 -15q-4 0 -7 0.5t-7 0.5q-5 1 -16 1q-39 16 -78.5 31t-78.5 31t-79 32t-78 30
l-8 5q-9 5 -20.5 12t-21.5 12q13 5 18.5 7t10.5 4q3 1 6.5 2t9.5 3l123 -27h15q56 0 103 28q56 44 56 101v121q-6 12 -14.5 30t-13.5 30h305l-22 -62v-203z" />
    <glyph glyph-name="uniFEE8" unicode="&#x646;" horiz-adv-x="547" arabic-form="medial" 
d="M564 939v-11q-76 -88 -135 -135q-20 12 -40 24.5t-40 23.5q-31 18 -62 36.5t-63 38.5q18 17 34 31.5t30 28.5q19 17 37.5 34.5t41.5 37.5zM547 340q0 -72 -67 -130q-34 -29 -67.5 -44t-68.5 -15q-4 0 -7 0.5t-7 0.5q-5 1 -16 1q-39 16 -78.5 31t-78.5 31t-79 32t-78 30
l-8 5q-9 5 -20.5 12t-21.5 12q13 5 18.5 7t10.5 4q3 1 6.5 2t9.5 3l123 -27h15q56 0 103 28q56 44 56 101v121q-6 12 -14.5 30t-13.5 30h305l-22 -62v-203z" />
    <glyph glyph-name="afii57470" unicode="&#x647;" horiz-adv-x="838" arabic-form="isolated" 
d="M390 636q-13 17 -24.5 31.5t-22.5 28.5q-48 -60 -98.5 -123.5t-98.5 -123.5q123 -70 196 -70q26 0 62.5 10t95.5 36q-30 69 -55 118.5t-55 92.5zM665 646q23 -55 23 -106q0 -54 -17.5 -104.5t-48 -94t-70.5 -80t-85.5 -62t-93.5 -40t-94 -14.5q-58 0 -109 13t-88.5 37
t-59.5 57.5t-22 74.5q0 31 17 63l455 581z" />
    <glyph glyph-name="uniFEEA" unicode="&#x647;" horiz-adv-x="689" arabic-form="final" 
d="M483 780q-65 -27 -139 -58.5t-139 -58.5q42 -87 113 -138t165 -61v316zM727 150h-288l44 58v82q-36 -5 -68.5 -8t-61.5 -3q-45 0 -129 31q-50 26 -66 37q-30 20 -58 44.5t-46 42.5q-26 17 -40 47t-14 69q0 108 70 137l620 247v-726z" />
    <glyph glyph-name="uniFEEB" unicode="&#x647;" horiz-adv-x="1297" arabic-form="initial" 
d="M853 713q-45 -90 -85.5 -167.5t-75.5 -142.5q51 -19 124.5 -39.5t163.5 -42.5q54 65 54 148q0 78 -47 140.5t-134 103.5zM753 760q-69 26 -140 53.5t-140 53.5q-1 7 -9 7q-18 0 -34.5 -16t-29 -40t-20.5 -52t-8 -52q0 -80 56.5 -147t163.5 -121zM254 581q7 61 14.5 98.5
t15.5 56.5l103 188q87 23 166 57t152 80l178 -63q19 36 38.5 74t39.5 74l131 28l-123 -229q88 -67 133 -157.5t45 -203.5q0 -165 -108 -290q-23 -16 -79.5 -40.5t-137.5 -55.5q-62 -23 -99 -48h-409l-322 123l-42 32l43 41l139 -27q102 -42 180 -42q45 0 45 26q0 4 -1 6v-1
q-102 116 -102 273z" />
    <glyph glyph-name="uniFEEC" unicode="&#x647;" horiz-adv-x="993" arabic-form="medial" 
d="M587 442q84 -52 167 -52q47 0 97.5 18t100.5 52q-10 17 -31.5 50.5t-49 71t-58 73t-59.5 57.5zM376 150q-51 -83 -51 -133q0 -20 8.5 -35.5t26.5 -29t46.5 -27.5t67.5 -31q55 1 99.5 21t77.5 54t54 80t28 101h-357zM992 272q-92 0 -157 -86.5t-93 -266.5q-3 -18 -3.5 -35
t-0.5 -31q0 -44 14 -83q-13 -16 -20.5 -26t-20 -20t-34.5 -23t-63 -35q-34 -14 -66.5 -20.5t-63.5 -6.5q-56 0 -105 20.5t-87.5 58.5t-65.5 91.5t-41 119.5q13 20 25.5 42t26 48.5t29 58.5t35.5 72q-77 30 -154.5 62t-154.5 61l-42 37l43 36l135 -32q96 -28 176 -28
q29 0 51 4t40 13.5t34 26.5t33 43q98 154 199.5 316.5t199.5 316.5l232 -306q0 -104 -25.5 -194t-74.5 -163q1 -6 1 -16v-23v-21q-1 -4 -1 -6.5v-3.5z" />
    <glyph glyph-name="afii57448" unicode="&#x648;" horiz-adv-x="1164" arabic-form="isolated" 
d="M515 764q-68 -30 -107 -82t-39 -121q0 -26 8 -63q16 -57 47 -111t73 -94q35 -29 76.5 -52.5t83.5 -36.5q32 -9 75 -9h55q-1 72 -15 142.5t-38.5 135t-59.5 122t-78 105.5q-24 25 -45.5 45t-29.5 20zM995 199q-24 -112 -78.5 -199.5t-138.5 -153.5q-170 -131 -403 -131
q-80 0 -168 17q-120 71 -207 250q73 2 131.5 18.5t112.5 47.5q12 -43 30.5 -83.5t44.5 -75.5q35 -45 77 -74t90 -44q146 38 222.5 134t78.5 244q-14 2 -30 4.5t-30 4.5q-36 4 -74.5 8t-77 7t-74 4.5t-64.5 1.5q-56 0 -102 -3.5t-84 -10.5q-135 113 -135 350q0 33 75 111
q47 47 99.5 88t109.5 73q71 38 144.5 58.5t144.5 20.5q66 0 127 -16q198 -198 198 -484q0 -88 -19 -167z" />
    <glyph glyph-name="uniFEEE" unicode="&#x648;" horiz-adv-x="1014" arabic-form="final" 
d="M515 764q-68 -30 -107 -82t-39 -121q0 -26 8 -63q16 -57 47 -111t73 -94q35 -29 76.5 -52.5t83.5 -36.5q32 -9 75 -9h55q-1 72 -15 142.5t-38.5 135t-59.5 122t-78 105.5q-24 25 -45.5 45t-29.5 20zM995 199q-24 -112 -78.5 -199.5t-138.5 -153.5q-170 -131 -403 -131
q-80 0 -168 17q-120 71 -207 250q73 2 131.5 18.5t112.5 47.5q12 -43 30.5 -83.5t44.5 -75.5q35 -45 77 -74t90 -44q146 38 222.5 134t78.5 244q-14 2 -30 4.5t-30 4.5q-36 4 -74.5 8t-77 7t-74 4.5t-64.5 1.5q-56 0 -102 -3.5t-84 -10.5q-135 113 -135 350q0 33 75 111
q47 47 99.5 88t109.5 73q71 38 144.5 58.5t144.5 20.5q66 0 127 -16q198 -198 198 -484q0 -88 -19 -167z" />
    <glyph glyph-name="afii57449" unicode="&#x649;" horiz-adv-x="1405" arabic-form="isolated" 
d="M1107 358q-31 17 -91 35.5t-147 40.5q-42 11 -90 40t-96 75q-23 -2 -35.5 -15t-12.5 -39q0 -28 8.5 -46t28.5 -31.5t54 -26t85 -29t120.5 -40.5t161.5 -61q78 -32 120 -83.5t42 -115.5q0 -59 -26.5 -123.5t-74 -126t-113.5 -116.5t-145.5 -96.5t-169 -66t-184.5 -24.5
q-103 0 -201 39t-173.5 113t-121.5 180.5t-46 241.5q0 130 91.5 291.5t267.5 350.5l-7 21q-15 1 -33.5 1.5t-33.5 1.5q-45 -12 -92.5 -25t-92.5 -25l62 123h398l-186 -280v1q-73 -155 -73 -296q0 -88 20 -163.5t53 -136.5t75.5 -108t87 -79t88 -48.5t77.5 -16.5q69 0 131 21
t109 58.5t75 88t29 110.5q-14 24 -22 35t-21.5 19t-39.5 16.5t-76 27.5q-55 21 -111 43t-101.5 40t-74 29t-28.5 10q-124 76 -124 197q0 47 23 84t74 70t131 65.5t194 70.5q170 -127 317 -127q-37 -32 -57 -77.5t-22 -117.5h-1z" />
    <glyph glyph-name="uniFEF0" unicode="&#x649;" horiz-adv-x="1079" arabic-form="final" 
d="M1079 271q-17 10 -48 10q-45 0 -151 -25q-2 0 -4 -0.5t-4 -0.5q-29 0 -90 38h1q-30 17 -55.5 35t-44.5 35q-47 -3 -47 -50q0 -23 16 -46t46 -47q39 -28 120 -56q8 -3 48.5 -15t112.5 -33q38 -12 68 -21.5t50 -17.5q66 -30 103 -68.5t53 -91.5q3 -18 3 -41
q0 -57 -23.5 -119t-68.5 -129q-39 -52 -93 -98.5t-118.5 -84.5t-138 -66t-150.5 -42q-66 -12 -121 -12q-155 0 -274 76t-198 215q-34 63 -52.5 135t-18.5 146q0 130 91.5 292.5t267.5 351.5q-2 5 -3.5 10t-3.5 10q-14 0 -33 1t-33 1q-45 -12 -92 -24.5t-92 -24.5l60 121h400
l-187 -278v1q-73 -152 -73 -297q0 -57 13.5 -118.5t36.5 -121.5q59 -136 134 -213t165 -90q24 -7 53 -7q128 0 225 70q57 38 86 90t31 115q-13 23 -28.5 40.5t-29.5 24.5q-9 2 -34.5 10.5t-66.5 23.5l-198 78q-46 17 -79 29.5t-38 14.5q-124 79 -124 200q0 57 39.5 103
t114.5 80q30 15 71 32t87 35q8 3 18 7.5t22 9.5q14 5 30.5 12t36.5 15q11 -8 63.5 -52t148.5 -125v-53z" />
    <glyph glyph-name="uniFBE8" unicode="&#x649;" horiz-adv-x="694" arabic-form="initial" 
d="M547 340q0 -72 -67 -130q-34 -29 -67.5 -44t-68.5 -15q-4 0 -7 0.5t-7 0.5q-5 1 -16 1q-39 16 -78.5 31t-78.5 31t-79 32t-78 30l-8 5q-9 5 -20.5 12t-21.5 12q13 5 18.5 7t10.5 4q3 1 6.5 2t9.5 3l123 -27h15q56 0 103 28q56 44 56 101v121q-6 12 -14.5 30t-13.5 30h305
l-22 -62v-203z" />
    <glyph glyph-name="uniFBE9" unicode="&#x649;" horiz-adv-x="547" arabic-form="medial" 
d="M546 340q0 -72 -67 -130q-34 -29 -67.5 -44t-68.5 -15q-4 0 -7 0.5t-7 0.5q-5 1 -16 1q-39 16 -78.5 31t-78.5 31t-78.5 32t-77.5 30l-8 5q-9 5 -20.5 12t-21.5 12q13 5 18.5 7t10.5 4q3 1 6.5 2t9.5 3l122 -27h15q56 0 103 28q56 44 56 101v121q-6 12 -14.5 30t-13.5 30
h305l-22 -62v-203z" />
    <glyph glyph-name="afii57450" unicode="&#x64a;" horiz-adv-x="1405" arabic-form="isolated" 
d="M612 -685q25 23 51.5 48t51.5 48h21l192 -114v-26q-20 -31 -56.5 -68.5t-88.5 -83.5l-172 94q-23 -29 -47 -54t-51 -46l-223 140l158 150zM1107 358q-31 17 -91 35.5t-147 40.5q-42 11 -90 40t-96 75q-23 -2 -35.5 -15t-12.5 -39q0 -28 8.5 -46t28.5 -31.5t54 -26t85 -29
t120.5 -40.5t161.5 -61q78 -32 120 -83.5t42 -115.5q0 -59 -26.5 -123.5t-74 -126t-113.5 -116.5t-145.5 -96.5t-169 -66t-184.5 -24.5q-103 0 -201 39t-173.5 113t-121.5 180.5t-46 241.5q0 130 91.5 291.5t267.5 350.5l-7 21q-15 1 -33.5 1.5t-33.5 1.5q-45 -12 -92.5 -25
t-92.5 -25l62 123h398l-186 -280v1q-73 -155 -73 -296q0 -88 20 -163.5t53 -136.5t75.5 -108t87 -79t88 -48.5t77.5 -16.5q69 0 131 21t109 58.5t75 88t29 110.5q-14 24 -22 35t-21.5 19t-39.5 16.5t-76 27.5q-55 21 -111 43t-101.5 40t-74 29t-28.5 10q-124 76 -124 197
q0 47 23 84t74 70t131 65.5t194 70.5q170 -127 317 -127q-37 -32 -57 -77.5t-22 -117.5h-1z" />
    <glyph glyph-name="uniFEF2" unicode="&#x64a;" horiz-adv-x="1079" arabic-form="final" 
d="M624 -866q24 22 51 46t50 46h22l190 -113v-26q-40 -59 -146 -153l-170 99q-23 -30 -47 -55.5t-49 -48.5l-226 143l158 149zM1079 271q-17 10 -48 10q-45 0 -151 -25q-2 0 -4 -0.5t-4 -0.5q-29 0 -90 38h1q-30 17 -55.5 35t-44.5 35q-47 -3 -47 -50q0 -23 16 -46t46 -47
q39 -28 120 -56q8 -3 48.5 -15t112.5 -33q38 -12 68 -21.5t50 -17.5q66 -30 103 -68.5t53 -91.5q3 -18 3 -41q0 -57 -23.5 -119t-68.5 -129q-39 -52 -93 -98.5t-118.5 -84.5t-138 -66t-150.5 -42q-66 -12 -121 -12q-155 0 -274 76t-198 215q-34 63 -52.5 135t-18.5 146
q0 130 91.5 292.5t267.5 351.5q-2 5 -3.5 10t-3.5 10q-14 0 -33 1t-33 1q-45 -12 -92 -24.5t-92 -24.5l60 121h400l-187 -278v1q-73 -152 -73 -297q0 -57 13.5 -118.5t36.5 -121.5q59 -136 134 -213t165 -90q24 -7 53 -7q128 0 225 70q57 38 86 90t31 115q-13 23 -28.5 40.5
t-29.5 24.5q-9 2 -34.5 10.5t-66.5 23.5l-198 78q-46 17 -79 29.5t-38 14.5q-124 79 -124 200q0 57 39.5 103t114.5 80q30 15 71 32t87 35q8 3 18 7.5t22 9.5q14 5 30.5 12t36.5 15q11 -8 63.5 -52t148.5 -125v-53z" />
    <glyph glyph-name="uniFEF3" unicode="&#x64a;" horiz-adv-x="788" arabic-form="initial" 
d="M480 -187q-10 -9 -21 -19t-22 -19q-32 -28 -64 -58h-9q-35 20 -67.5 38.5t-65.5 37.5q-13 8 -27.5 16.5t-27.5 15.5v11q22 29 57 65t83 79l173 -101q24 32 48 58.5t50 47.5q29 -18 55 -35l52 -34l46 -30t48 -31q-16 -15 -30 -28.5t-28 -26.5l-38 -36t-41 -39zM546 340
q0 -72 -67 -130q-34 -29 -67.5 -44t-68.5 -15q-4 0 -7 0.5t-7 0.5q-5 1 -16 1q-39 16 -78.5 31t-78.5 31t-78.5 32t-77.5 30l-8 5q-9 5 -20.5 12t-21.5 12q13 5 18.5 7t10.5 4q3 1 6.5 2t9.5 3l122 -27h15q56 0 103 28q56 44 56 101v121q-6 12 -14.5 30t-13.5 30h305
l-22 -62v-203z" />
    <glyph glyph-name="uniFEF4" unicode="&#x64a;" horiz-adv-x="547" arabic-form="medial" 
d="M480 -187q-26 -24 -53.5 -48t-53.5 -48h-9q-35 20 -67.5 38.5t-65.5 37.5q-13 8 -27.5 16.5t-27.5 15.5v11q22 29 57 65t83 79l173 -101q24 32 48 58.5t50 47.5q29 -18 55 -35l52 -34l46 -30t48 -31q-16 -15 -30 -28.5t-28 -26.5l-38 -36t-41 -39zM546 340
q0 -72 -67 -130q-34 -29 -67.5 -44t-68.5 -15q-4 0 -7 0.5t-7 0.5q-5 1 -16 1q-39 16 -78.5 31t-78.5 31t-78.5 32t-77.5 30l-8 5q-9 5 -20.5 12t-21.5 12q13 5 18.5 7t10.5 4q3 1 6.5 2t9.5 3l122 -27h15q56 0 103 28q56 44 56 101v121q-6 12 -14.5 30t-13.5 30h305
l-22 -62v-203z" />
    <glyph glyph-name="uni0671" unicode="&#x671;" horiz-adv-x="548" arabic-form="isolated" 
d="M410 1776q-17 17 -36.5 37.5t-41.5 45.5q-30 -25 -63 -47t-63 -39q33 -35 74 -35q18 0 36 6q29 -6 48 -6q48 0 50 34zM504 1810q-27 -179 -126 -179q-32 0 -67 17q-19 -18 -39 -29.5t-37 -11.5q-18 0 -38 12.5t-38 28t-31.5 28t-19.5 12.5q-16 0 -31.5 -10t-29 -22.5
t-25 -22.5t-18.5 -10q-24 0 -24 47q0 29 20.5 56t44.5 52.5t44.5 50.5t20.5 50q14 -11 27.5 -22t24.5 -22q64 46 111.5 88.5t76.5 78.5q26 -66 81 -66q3 0 6 0.5t6 0.5q-5 -17 -5 -31q0 -20 8 -40t23 -43h-1zM423 1405l-26 -61v-1160q5 -8 7.5 -15t10.5 -16h-340
q9 14 15.5 32t10.5 37v1120q-3 8 -8.5 23.5t-16.5 38.5z" />
    <glyph glyph-name="uniFB51" unicode="&#x671;" horiz-adv-x="396" arabic-form="final" 
d="M371 1738q49 0 50 34q-19 18 -39 39.5t-43 47.5q-30 -25 -63 -47t-63 -39q33 -35 73 -35q18 0 36 6q29 -6 49 -6zM510 1810q-27 -179 -125 -179q-32 0 -67 17q-19 -18 -39.5 -29.5t-37.5 -11.5q-29 0 -53 24q-55 57 -74 57q-32 0 -61 -33q-29 -32 -43 -32q-24 0 -24 47
q0 31 43 99q87 38 87 102v8q31 -24 53 -44q63 46 111.5 88.5t77.5 78.5q24 -66 78 -66q3 0 6 0.5t6 0.5q-4 -12 -4 -29q0 -41 31 -85h-1zM402 340q-27 -135 -110 -185q-60 28 -117.5 54.5t-115.5 52.5q13 13 23.5 30t18.5 37v1008q-3 17 -6.5 34t-6.5 34h330l-16 -68v-997z
" />
    <glyph glyph-name="afii57511" unicode="&#x679;" horiz-adv-x="1360" arabic-form="isolated" 
d="M591 332q3 -2 7.5 -3t7.5 -1q21 7 44.5 18.5t46 26t41 31.5t29.5 35q0 3 -10 20h1q-22 12 -31.5 14.5t-24.5 2.5t-34.5 -6.5t-37.5 -20t-30 -33.5t-12 -48v-9q0 -11 3 -28v1zM551 453q6 25 16 47t24.5 38.5t33 26.5t39.5 10q26 0 47.5 -12.5t38 -32.5t28.5 -44.5t20 -49
t11.5 -45.5t3.5 -34q-12 -23 -32 -43t-46 -35t-56.5 -24t-62.5 -9q-51 0 -90 16.5t-66.5 42t-44.5 57.5t-24 63l33 -14q3 -9 14.5 -23.5t25.5 -29t28.5 -24.5t24.5 -10q2 0 2 2v236q-47 2 -73 30t-26 73q0 17 5 27q38 -21 85 -21q9 0 21 1t20 5v-224zM1187 142
q-14 -11 -33 -26.5t-43 -33.5q-52 -39 -117 -74.5t-134 -62t-139 -42t-133 -15.5q-133 0 -242 46.5t-185.5 128.5t-118.5 193t-42 239q0 47 7.5 103t24 112.5t42.5 110t62.5 94.5t84.5 65.5t109 24.5q32 0 56.5 -11.5t41.5 -30.5t26 -44t9 -51q0 -32 -13 -62.5t-41 -53.5
q-38 38 -76 54t-73 16q-46 0 -86 -24t-70 -64t-47 -91.5t-17 -107.5q0 -92 34.5 -157t104 -106t176 -60t250.5 -19q63 1 113.5 3t94 5.5t82.5 10t78 17t80.5 25.5t91.5 36q12 26 18.5 60t7.5 68l-246 323q-26 -4 -44.5 -17.5t-18.5 -39.5q0 -7 5 -18.5t11.5 -24t11.5 -25.5
t5 -24q0 -9 -5 -15.5t-19 -8.5q-38 0 -64.5 20.5t-26.5 65.5q9 14 30.5 45t48.5 71t56.5 84t56 83t46.5 68.5t28 40.5q6 -13 11.5 -23t10.5 -20v1q3 -5 7.5 -15t12.5 -25v1q12 -17 16.5 -24t8.5 -14t11 -17.5l23 -34.5t45.5 -66.5t77.5 -111.5q-32 -87 -51.5 -182
t-25.5 -189z" />
    <glyph glyph-name="uniFB67" unicode="&#x679;" horiz-adv-x="1190" arabic-form="final" 
d="M591 332q3 -2 7.5 -3t7.5 -1q39 14 78.5 38.5t70.5 53.5q2 4 6 9.5t6 9.5q0 3 -10 20h1q-22 12 -31.5 14.5t-24.5 2.5q-37 0 -62.5 -20t-47.5 -62q-4 -7 -4 -26v-9q0 -11 3 -28v1zM551 453q6 25 16 47t24.5 38.5t33 26.5t39.5 10q27 0 51 -16.5t43.5 -41.5t32.5 -54.5
t17 -54.5q2 -14 3.5 -27t1.5 -24q-12 -23 -32 -43t-46 -35t-56.5 -24t-62.5 -9q-51 0 -90 16.5t-66.5 42t-44.5 57.5t-24 63l33 -14q6 -19 23.5 -37.5t43.5 -35.5q11 -6 17.5 -10t8.5 -4t2 2v236q-47 2 -73 30t-26 73q0 17 5 27q38 -21 85 -21q9 0 21 1t20 5v-224zM1187 142
q-14 -11 -33 -26.5t-43 -33.5q-52 -39 -117 -74.5t-134 -62t-139 -42t-133 -15.5q-133 0 -242 46.5t-185.5 128.5t-118.5 193t-42 239q0 47 7.5 103t24 112.5t42.5 110t62.5 94.5t84.5 65.5t109 24.5q32 0 56.5 -11.5t41.5 -30.5t26 -44t9 -51q0 -32 -13 -62.5t-41 -53.5
q-38 38 -76 54t-73 16q-46 0 -86 -24t-70 -64t-47 -91.5t-17 -107.5q0 -92 34.5 -157t104 -106t176 -60t250.5 -19q63 1 113.5 3t94 5.5t82.5 10t78 17t80.5 25.5t91.5 36q12 26 18.5 60t7.5 68l-246 323q-26 -4 -44.5 -17.5t-18.5 -39.5q0 -7 5 -18.5t11.5 -24t11.5 -25.5
t5 -24q0 -9 -5 -15.5t-19 -8.5q-38 0 -64.5 20.5t-26.5 65.5q9 14 30.5 45t48.5 71t56.5 84t56 83t46.5 68.5t28 40.5q6 -13 11.5 -23t10.5 -20v1q3 -5 7.5 -15t12.5 -25v1q12 -17 16.5 -24t8.5 -14t11 -17.5l23 -34.5t45.5 -66.5t77.5 -111.5q-32 -87 -51.5 -182
t-25.5 -189z" />
    <glyph glyph-name="uniFB68" unicode="&#x679;" horiz-adv-x="694" arabic-form="initial" 
d="M364 887q3 -2 7.5 -3t7.5 -1q21 7 44.5 18.5t46 26.5t41 32t29.5 35q0 3 -10 20h1q-22 12 -31.5 14.5t-24.5 2.5t-34.5 -6.5t-37.5 -20t-30 -33.5t-12 -48v-9q0 -12 3 -29v1zM324 1009q6 25 16 47t24.5 38.5t33 26t39.5 9.5q40 0 68 -26.5t46 -62.5t26.5 -72.5t8.5 -56.5
q-12 -23 -32 -43t-46 -35t-56.5 -24t-62.5 -9q-51 0 -90 16.5t-66.5 42t-44.5 58t-24 63.5l33 -14q3 -9 14.5 -23.5t25.5 -29t28.5 -25t24.5 -10.5q2 0 2 2v236q-47 2 -73 30t-26 73q0 17 5 27q38 -21 85 -21q9 0 21 1t20 5v-223zM547 340q0 -35 -19 -69t-48.5 -60.5
t-65.5 -43t-70 -16.5q-36 0 -80 14.5t-90.5 34.5t-91 41.5t-82.5 35.5l-8 5q-9 5 -20.5 12t-21.5 12q10 4 15.5 6t9.5 3t8 2.5l12 4.5l138 -27q34 0 63 10.5t50.5 28t33.5 41t12 49.5v121q-6 12 -14.5 30t-13.5 30h305l-22 -62v-203z" />
    <glyph glyph-name="uniFB69" unicode="&#x679;" horiz-adv-x="547" arabic-form="medial" 
d="M364 887q3 -2 7.5 -3t7.5 -1q39 14 78.5 39t70.5 54q2 4 6 9.5t6 9.5q0 3 -10 20h1q-22 12 -31.5 14.5t-24.5 2.5q-37 0 -62.5 -20t-47.5 -62q-4 -7 -4 -26v-9q0 -12 3 -29v1zM324 1009q6 25 16 47t24.5 38.5t33 26t39.5 9.5q27 0 51 -16.5t43.5 -41.5t32.5 -54t17 -54
q2 -14 3.5 -27t1.5 -25q-12 -23 -32 -43t-46 -35t-56.5 -24t-62.5 -9q-51 0 -90 16.5t-66.5 42t-44.5 58t-24 63.5l33 -14q6 -19 23.5 -38t43.5 -36q11 -7 18 -10t8 -4q2 0 2 2v236q-47 2 -73 30t-26 73q0 17 5 27q38 -21 85 -21q9 0 21 1t20 5v-223zM547 340
q0 -72 -67 -130q-34 -29 -67.5 -44t-68.5 -15q-4 0 -7 0.5t-7 0.5q-5 1 -16 1q-39 16 -78.5 31t-78.5 31t-79 32t-78 30l-8 5q-9 5 -20.5 12t-21.5 12q13 5 18.5 7t10.5 4q3 1 6.5 2t9.5 3l123 -27h15q56 0 103 28q56 44 56 101v121q-6 12 -14.5 30t-13.5 30h305l-22 -62
v-203z" />
    <glyph glyph-name="afii57506" unicode="&#x67e;" horiz-adv-x="1360" arabic-form="isolated" 
d="M585 -587v10q41 45 74 79t61 60q53 -34 100.5 -64.5t102.5 -64.5q-38 -35 -70 -65t-70 -65zM705 -346q-26 -23 -53.5 -49.5t-53.5 -49.5h-9q-50 27 -95 53.5t-93 54.5v12q21 29 55.5 64.5t83.5 78.5l173 -100q24 32 47 57t48 45q54 -32 103 -61.5t103 -62.5
q-38 -37 -69.5 -66.5t-68.5 -65.5zM1187 142q-14 -11 -33 -26.5t-43 -33.5q-52 -39 -117 -74.5t-134 -62t-139 -42t-133 -15.5q-133 0 -242 46.5t-185.5 128.5t-118.5 193t-42 239q0 47 7.5 103t24 112.5t42.5 110t62.5 94.5t84.5 65.5t109 24.5q32 0 56.5 -11.5t41.5 -30.5
t26 -44t9 -51q0 -32 -13 -62.5t-41 -53.5q-38 38 -76 54t-73 16q-46 0 -86 -24t-70 -64t-47 -91.5t-17 -107.5q0 -92 34.5 -157t104 -106t176 -60t250.5 -19q63 1 113.5 3t94 5.5t82.5 10t78 17t80.5 25.5t91.5 36q12 26 18.5 60t7.5 68l-246 323q-26 -4 -44.5 -17.5
t-18.5 -39.5q0 -7 5 -18.5t11.5 -24t11.5 -25.5t5 -24q0 -9 -5 -15.5t-19 -8.5q-38 0 -64.5 20.5t-26.5 65.5q9 14 30.5 45t48.5 71t56.5 84t56 83t46.5 68.5t28 40.5q6 -13 11.5 -23t10.5 -20v1q3 -5 7.5 -15t12.5 -25v1q12 -17 16.5 -24t8.5 -14t11 -17.5l23 -34.5
t45.5 -66.5t77.5 -111.5q-32 -87 -51.5 -182t-25.5 -189z" />
    <glyph glyph-name="uniFB57" unicode="&#x67e;" horiz-adv-x="1190" arabic-form="final" 
d="M585 -587v10q41 45 74 79t61 60q25 -16 47.5 -31t45.5 -29q26 -16 53.5 -34t56.5 -35q-20 -18 -37.5 -34.5t-34.5 -32.5q-17 -15 -33 -30.5t-35 -32.5zM705 -346q-5 -5 -12 -10.5t-12 -10.5q-20 -20 -41.5 -40t-41.5 -38h-9q-50 27 -95 53.5t-93 54.5v12q21 29 55.5 64.5
t83.5 78.5l173 -100q24 32 47 57t48 45q20 -11 39 -22t36 -22q31 -19 64.5 -39.5t66.5 -40.5q-38 -37 -69.5 -66.5t-68.5 -65.5zM1187 142q-14 -11 -33 -26.5t-43 -33.5q-52 -39 -117 -74.5t-134 -62t-139 -42t-133 -15.5q-133 0 -242 46.5t-185.5 128.5t-118.5 193t-42 239
q0 47 7.5 103t24 112.5t42.5 110t62.5 94.5t84.5 65.5t109 24.5q32 0 56.5 -11.5t41.5 -30.5t26 -44t9 -51q0 -32 -13 -62.5t-41 -53.5q-38 38 -76 54t-73 16q-46 0 -86 -24t-70 -64t-47 -91.5t-17 -107.5q0 -92 34.5 -157t104 -106t176 -60t250.5 -19q63 1 113.5 3t94 5.5
t82.5 10t78 17t80.5 25.5t91.5 36q12 26 18.5 60t7.5 68l-246 323q-26 -4 -44.5 -17.5t-18.5 -39.5q0 -7 5 -18.5t11.5 -24t11.5 -25.5t5 -24q0 -9 -5 -15.5t-19 -8.5q-38 0 -64.5 20.5t-26.5 65.5q9 14 30.5 45t48.5 71t56.5 84t56 83t46.5 68.5t28 40.5q6 -13 11.5 -23
t10.5 -20v1q3 -5 7.5 -15t12.5 -25v1q12 -17 16.5 -24t8.5 -14t11 -17.5l23 -34.5t45.5 -66.5t77.5 -111.5q-32 -87 -51.5 -182t-25.5 -189z" />
    <glyph glyph-name="uniFB58" unicode="&#x67e;" horiz-adv-x="788" arabic-form="initial" 
d="M362 -428v11q38 45 72 79t62 57q49 -30 101.5 -62t102.5 -60q-38 -34 -71.5 -66.5t-68.5 -65.5zM480 -187q-26 -24 -53.5 -48t-53.5 -48h-9q-49 28 -94.5 55t-93.5 53v11q22 29 57 65t83 79l173 -101q24 32 48 58.5t50 47.5q55 -35 102 -66t99 -64q-38 -36 -68.5 -65
t-68.5 -65zM546 340q0 -35 -19 -69t-48.5 -60.5t-65.5 -43t-70 -16.5q-19 0 -43 7t-49 16.5t-49.5 20.5t-45.5 20q-39 16 -78.5 32t-77.5 30l-8 5q-9 5 -20.5 12t-21.5 12q10 4 15.5 6t9.5 3t8 2.5l12 4.5l122 -27h15q34 0 63 10.5t50.5 28t33.5 41t12 49.5v121
q-6 12 -14.5 30t-13.5 30h305l-22 -62v-203z" />
    <glyph glyph-name="uniFB59" unicode="&#x67e;" horiz-adv-x="547" arabic-form="medial" 
d="M362 -428v11q38 45 72 79t62 57q21 -13 43.5 -26t44.5 -27q29 -17 59 -35.5t57 -33.5q-23 -21 -45 -42t-43 -41q-13 -12 -26 -24.5t-26 -24.5zM480 -187q-26 -24 -53.5 -48t-53.5 -48h-9q-35 20 -67.5 38.5t-65.5 37.5q-13 8 -27.5 16.5t-27.5 15.5v11q22 29 57 65t83 79
l173 -101q24 32 48 58.5t50 47.5q29 -18 55 -35l52 -34l46 -30t48 -31q-16 -15 -30 -28.5t-28 -26.5l-38 -36t-41 -39zM546 340q0 -72 -67 -130q-34 -29 -67.5 -44t-68.5 -15q-4 0 -7 0.5t-7 0.5q-5 1 -16 1q-39 16 -78.5 31t-78.5 31t-78.5 32t-77.5 30l-8 5q-9 5 -20.5 12
t-21.5 12q13 5 18.5 7t10.5 4q3 1 6.5 2t9.5 3l122 -27h15q56 0 103 28q56 44 56 101v121q-6 12 -14.5 30t-13.5 30h305l-22 -62v-203z" />
    <glyph glyph-name="afii57507" unicode="&#x686;" horiz-adv-x="908" arabic-form="isolated" 
d="M498 -121v7q31 35 58 62.5t50 47.5q43 -27 80.5 -49.5t80.5 -48.5q-16 -14 -29.5 -26.5t-26 -24.5t-26 -24.5t-28.5 -26.5zM591 80q-9 -9 -21 -20.5l-24 -23t-23 -21.5t-19 -16h-8q-37 23 -72 44.5t-73 44.5v5q31 49 107 111l144 -77q20 26 39.5 46.5t38.5 34.5
q42 -24 80 -48t77 -50q-15 -14 -28 -26.5t-25.5 -24.5t-25.5 -24.5t-27 -26.5zM784 401q-137 -40 -234.5 -94t-159.5 -114t-91 -122t-29 -119q0 -46 18 -85.5t51 -69t80.5 -46t106.5 -16.5q70 0 153.5 26t178.5 85q-15 -34 -25 -61.5t-17.5 -58t-13.5 -68t-12 -90.5
q-49 -30 -109 -45t-124 -15q-87 0 -174 26.5t-156.5 79t-113 130.5t-43.5 180q0 73 31 133t82 109.5t118 89t138.5 72.5t143 60.5t132.5 52.5l-22 54l-22 54q-125 8 -258 16.5t-259 16.5q19 -48 38 -106.5t38 -109.5q-20 2 -29 3.5t-26 3.5q-13 52 -31 114t-40 128.5
t-48 135t-56 134.5q79 -12 153.5 -23t148.5 -22t148.5 -22t153.5 -23z" />
    <glyph glyph-name="uniFB7B" unicode="&#x686;" horiz-adv-x="615" arabic-form="final" 
d="M498 -121v7q31 35 58 62.5t50 47.5q46 -29 86 -52q18 -11 36.5 -22.5t38.5 -23.5q-16 -14 -29.5 -26.5t-26 -24.5t-26 -24.5t-28.5 -26.5zM591 80q-15 -14 -35.5 -33t-36.5 -34l-7.5 -7.5t-7.5 -6.5h-8q-19 11 -36.5 22t-35.5 22q-17 11 -35.5 22.5t-37.5 22.5v5
q31 49 107 111l144 -77q20 26 39.5 46.5t38.5 34.5q27 -16 53 -32.5t52 -32.5q12 -8 25.5 -16.5t26.5 -16.5q-14 -13 -26.5 -24.5t-23.5 -22.5q-13 -13 -27.5 -27t-28.5 -28zM784 402l-169 -77v-47q-88 -16 -152.5 -50.5t-107 -79.5t-63 -96t-20.5 -101q0 -45 16 -85.5
t47 -71t76.5 -49t105.5 -18.5q69 0 154 27.5t187 91.5q-16 -37 -27 -69.5t-19 -65t-13 -67t-9 -76.5q-66 -31 -130.5 -45t-126.5 -14q-97 0 -182 31t-148 83.5t-99.5 122.5t-36.5 148q0 72 34.5 147.5t112 147t201 136.5t300.5 116l-22 54l-22 54q-125 8 -258 16.5
t-259 16.5q19 -48 38 -106.5t38 -109.5q-20 2 -29 3.5t-26 3.5q-13 52 -31 114t-40 128.5t-48 135t-56 134.5q79 -12 153.5 -23t148.5 -22t148.5 -22t153.5 -23z" />
    <glyph glyph-name="uniFB7C" unicode="&#x686;" horiz-adv-x="1047" arabic-form="initial" 
d="M612 -327v11q78 90 134 137q49 -30 100.5 -62.5t102.5 -60.5q-38 -35 -71 -66.5t-68 -64.5zM730 -85q-26 -24 -53.5 -48t-53.5 -48h-9q-49 28 -94.5 55t-93.5 53v11q22 29 57 65t83 79l173 -101q24 32 48 58.5t50 47.5q54 -35 101 -66t100 -64q-19 -18 -36 -34
t-33.5 -31.5l-33 -31t-35.5 -33.5zM764 739q5 -10 20.5 -41.5t36.5 -74t44 -90t43.5 -89.5t35.5 -73t20 -40q-9 -2 -23 -5.5t-40.5 -11.5t-70 -23t-113.5 -39.5t-170.5 -60.5t-239.5 -86q-43 17 -85.5 41.5t-83.5 49.5t-80.5 47t-75.5 34q-9 8 -16.5 15t-15.5 15
q10 6 15 8.5t13 7.5l891 116q-9 13 -18.5 25.5t-18.5 25.5h1q-121 31 -241 62.5t-242 62.5q8 -25 11 -41t11 -42q-18 4 -29.5 6.5t-16.5 4.5q-12 39 -30.5 89.5t-40 105.5t-45.5 110t-46 102z" />
    <glyph glyph-name="uniFB7D" unicode="&#x686;" horiz-adv-x="788" arabic-form="medial" 
d="M612 -327v11q78 90 134 137q21 -13 43.5 -26t44.5 -27q28 -17 58 -36t57 -34q-23 -21 -45 -41.5t-43 -40.5q-12 -12 -25 -24.5t-26 -24.5zM730 -85q-10 -9 -21 -19t-22 -19q-32 -28 -64 -58h-9q-35 20 -67.5 38.5t-65.5 37.5q-13 8 -27.5 16.5t-27.5 15.5v11q22 29 57 65
t83 79l173 -101q24 32 48 58.5t50 47.5q54 -35 101 -66t100 -64q-16 -15 -30 -28.5t-28 -26.5q-20 -18 -39 -36t-41 -39zM764 739q24 -47 52.5 -104.5t56.5 -117.5q24 -49 47.5 -98.5t43.5 -87.5q-27 -5 -74.5 -18t-101.5 -32v-41l-481 -135q-39 16 -82 39.5t-81 46.5
q-42 26 -83.5 49t-78.5 37q-5 4 -8 7l-7 7t-8.5 8t-8.5 8q5 3 9.5 5t7.5 4t5 3.5t6 3.5l891 116l-36 51h1q-122 31 -242 62.5t-242 62.5q3 -10 4.5 -18t3.5 -15q3 -11 6 -22.5t8 -27.5q-15 3 -24 5t-16 4q-2 0 -6 2q-12 39 -30.5 89.5t-40 105.5t-45.5 110t-46 102z" />
    <glyph glyph-name="afii57512" unicode="&#x688;" horiz-adv-x="1163" arabic-form="isolated" 
d="M643 1240q3 -2 7.5 -3t7.5 -1q21 7 44.5 18.5t46 26.5t41 32t29.5 35q0 3 -10 20h1q-22 12 -31.5 14.5t-24.5 2.5t-34.5 -6.5t-37.5 -20t-30 -33.5t-12 -48v-9q0 -12 3 -29v1zM603 1362q6 25 16 47t24.5 38.5t33 26.5t39.5 10q27 0 48 -12.5t37.5 -32.5t28.5 -44.5
t19.5 -49t11 -46t3.5 -34.5q-12 -23 -32 -43t-45.5 -35t-56 -24t-62.5 -9q-51 0 -90 16.5t-66.5 42t-44.5 58t-24 63.5l33 -14q3 -9 14.5 -23.5t25.5 -29t28.5 -25t24.5 -10.5q2 0 2 2v237q-47 2 -73 30t-26 73q0 17 5 27q38 -21 85 -21q9 0 21 1t20 5v-224zM988 691
q7 -31 11.5 -67t9.5 -72v-12q0 -3 0.5 -21t1.5 -39.5t1.5 -41t0.5 -25.5q0 -52 -11 -99t-32 -83t-51.5 -57t-69.5 -21h-849q7 10 26.5 36.5t44 60.5t52.5 72t51.5 70.5t41 56.5t21.5 30q6 -6 52.5 -11t136 -9t223.5 -6t317 -2q-1 81 -18.5 161.5t-52.5 144t-87.5 103.5
t-123.5 40q-41 0 -67.5 -17t-44.5 -41.5t-31 -53.5t-27 -53q-7 12 -9.5 24.5t-2.5 26.5q0 55 18 96.5t46 72.5t61 51.5t62.5 33t52 17.5t28.5 5q46 0 80.5 -23t60 -69t44 -115.5t33.5 -163.5z" />
    <glyph glyph-name="uniFB89" unicode="&#x688;" horiz-adv-x="998" arabic-form="final" 
d="M643 1240q3 -2 7.5 -3t7.5 -1q39 14 78.5 39t70.5 54q2 4 6 9.5t6 9.5q0 3 -10 20h1q-22 12 -31.5 14.5t-24.5 2.5q-37 0 -62.5 -20t-47.5 -62q-4 -7 -4 -26v-9q0 -12 3 -29v1zM603 1362q6 25 16 47t24.5 38.5t33 26.5t39.5 10q27 0 51 -16.5t43.5 -41.5t32.5 -54.5
t17 -54.5q2 -14 3 -27t1 -25q-12 -23 -32 -43t-45.5 -35t-56 -24t-62.5 -9q-51 0 -90 16.5t-66.5 42t-44.5 58t-24 63.5l33 -14q6 -19 23.5 -38t43.5 -36q11 -6 17.5 -10t8.5 -4t2 2v237q-47 2 -73 30t-26 73q0 17 5 27q38 -21 85 -21q9 0 21 1t20 5v-224zM988 691
q7 -31 11.5 -67t9.5 -72v-12q0 -3 0.5 -21t1.5 -39.5t1.5 -41t0.5 -25.5q0 -52 -11 -99t-32 -83t-51.5 -57t-69.5 -21h-849q7 10 26.5 36.5t44 60.5t52.5 72t51.5 70.5t41 56.5t21.5 30q3 -3 7 -7.5t4 -6.5q7 -4 64.5 -7t153 -4.5t224 -2t276.5 -0.5q-1 68 -10 132t-29 114
q-15 38 -41.5 74.5t-59.5 65t-70 46t-72 17.5q-57 0 -102 -44q-18 -18 -26.5 -31t-13.5 -26t-10.5 -27.5t-17.5 -36.5q-7 12 -9.5 24.5t-2.5 26.5q0 36 17.5 74t41 70t47 54.5t36.5 26.5q32 24 64.5 37.5t61.5 13.5q46 0 80.5 -23t60 -69t44 -115.5t33.5 -163.5z" />
    <glyph glyph-name="afii57513" unicode="&#x691;" horiz-adv-x="971" arabic-form="isolated" 
d="M388 1069q3 -2 7.5 -3t7.5 -1q21 7 44.5 18.5t46 26t41 31.5t29.5 35q0 3 -10 20h1q-22 12 -31.5 14.5t-24.5 2.5t-34.5 -6.5t-37.5 -20t-30 -33.5t-12 -48v-9q0 -13 3 -28v1zM348 1190q6 25 16 47t24.5 38.5t33 26.5t39.5 10q40 0 68 -27t46 -63t26.5 -72.5t8.5 -56.5
q-12 -22 -32 -42t-46 -35t-56.5 -24t-62.5 -9q-51 0 -90 16t-66.5 42t-44.5 58t-24 63l33 -14q3 -9 14.5 -23.5t25.5 -29t28.5 -24.5t24.5 -10q2 0 2 2v236q-47 2 -73 30t-26 73q0 17 5 27q38 -21 85 -21q9 0 21 1t20 5v-224zM806 488q17 -83 17 -166q0 -66 -9.5 -132.5
t-27 -128t-42.5 -116.5t-57 -99q-43 -59 -96.5 -103.5t-113.5 -73.5t-125 -43.5t-131 -14.5t-131 14t-125.5 42.5t-115 70.5t-99.5 98q37 13 64 20.5t41 7.5q23 0 38.5 -13.5t29.5 -34.5t28.5 -44.5t35.5 -44.5t51 -34.5t74 -13.5q95 0 172 32.5t131.5 94t84.5 152t30 205.5
q0 70 -11.5 168t-31.5 222q-16 63 -23 102t-10 60t-5 28t-8 7t-19 -3.5t-38 -3.5q-17 0 -30.5 6t-23 16t-14.5 21.5t-5 23.5q0 19 13 33t42 14q28 0 61.5 -19.5t70.5 -51t76 -71.5t78.5 -81t78.5 -79.5t75 -66.5z" />
    <glyph glyph-name="uniFB8D" unicode="&#x691;" horiz-adv-x="821" arabic-form="final" 
d="M388 1069q3 -2 7.5 -3t7.5 -1q39 13 78.5 38t70.5 54q2 4 6 9.5t6 9.5q0 3 -10 20h1q-22 12 -31.5 14.5t-24.5 2.5q-37 0 -62.5 -20t-47.5 -62q-4 -7 -4 -26v-9q0 -13 3 -28v1zM348 1190q6 25 16 47t24.5 38.5t33 26.5t39.5 10q27 0 51 -16.5t43.5 -41.5t32.5 -54.5
t17 -54.5q2 -14 3.5 -27t1.5 -25q-12 -22 -32 -42t-46 -35t-56.5 -24t-62.5 -9q-51 0 -90 16t-66.5 42t-44.5 58t-24 63l33 -14q6 -19 23.5 -37.5t43.5 -35.5q11 -6 17.5 -10t8.5 -4t2 2v236q-47 2 -73 30t-26 73q0 17 5 27q38 -21 85 -21q9 0 21 1t20 5v-224zM806 488
q17 -83 17 -166q0 -66 -9.5 -132.5t-27 -128t-42.5 -116.5t-57 -99q-43 -59 -96.5 -103.5t-113.5 -73.5t-125 -43.5t-131 -14.5t-131 14t-125.5 42.5t-115 70.5t-99.5 98q37 13 64 20.5t41 7.5q23 0 38.5 -13.5t29.5 -34.5t28.5 -44.5t35.5 -44.5t51 -34.5t74 -13.5
q95 0 172 32.5t131.5 94t84.5 152t30 205.5q0 70 -11.5 168t-31.5 222q-16 63 -23 102t-10 60t-5 28t-8 7t-19 -3.5t-38 -3.5q-17 0 -30.5 6t-23 16t-14.5 21.5t-5 23.5q0 19 13 33t42 14q28 0 61.5 -19.5t70.5 -51t76 -71.5t78.5 -81t78.5 -79.5t75 -66.5z" />
    <glyph glyph-name="afii57508" unicode="&#x698;" horiz-adv-x="971" arabic-form="isolated" 
d="M511 1419v-13q-40 -47 -73 -79.5t-63 -56.5q-54 34 -103.5 64.5t-104.5 62.5q20 18 38 34t35.5 31.5t35.5 31t37 33.5zM390 1175q25 22 54.5 49.5t55.5 50.5h9q46 -26 93.5 -55t93.5 -55v-12q-40 -58 -136 -140l-176 97q-49 -62 -99 -103q-54 33 -103 63.5t-100 62.5
q38 35 71.5 66t70.5 65zM806 488q17 -83 17 -166q0 -66 -9.5 -132.5t-27 -128t-42.5 -116.5t-57 -99q-43 -59 -96.5 -103.5t-113.5 -73.5t-125 -43.5t-131 -14.5t-131 14t-125.5 42.5t-115 70.5t-99.5 98q37 13 64 20.5t41 7.5q23 0 38.5 -13.5t29.5 -34.5t28.5 -44.5
t35.5 -44.5t51 -34.5t74 -13.5q95 0 172 32.5t131.5 94t84.5 152t30 205.5q0 70 -11.5 168t-31.5 222q-16 63 -23 102t-10 60t-5 28t-8 7t-19 -3.5t-38 -3.5q-17 0 -30.5 6t-23 16t-14.5 21.5t-5 23.5q0 19 13 33t42 14q28 0 61.5 -19.5t70.5 -51t76 -71.5t78.5 -81
t78.5 -79.5t75 -66.5z" />
    <glyph glyph-name="uniFB8B" unicode="&#x698;" horiz-adv-x="821" arabic-form="final" 
d="M511 1419v-13q-40 -47 -73 -79.5t-63 -56.5q-31 20 -61 37.5t-59 35.5q-21 13 -43 26.5t-45 27.5q20 19 39 35t37 32q17 15 34 30.5t36 32.5zM390 1175q13 11 27 24t29 27q14 13 27.5 25.5t26.5 23.5h9q23 -14 46.5 -27.5t47.5 -27.5t47 -27.5t46 -27.5v-12
q-40 -58 -136 -140l-176 97q-49 -62 -99 -103q-32 20 -63.5 39.5t-61.5 37.5q-19 12 -38.5 24.5t-39.5 24.5q17 15 32.5 29.5t30.5 28.5q19 17 39 36t40 37zM806 488q17 -83 17 -166q0 -66 -9.5 -132.5t-27 -128t-42.5 -116.5t-57 -99q-43 -59 -96.5 -103.5t-113.5 -73.5
t-125 -43.5t-131 -14.5t-131 14t-125.5 42.5t-115 70.5t-99.5 98q37 13 64 20.5t41 7.5q23 0 38.5 -13.5t29.5 -34.5t28.5 -44.5t35.5 -44.5t51 -34.5t74 -13.5q95 0 172 32.5t131.5 94t84.5 152t30 205.5q0 70 -11.5 168t-31.5 222q-16 63 -23 102t-10 60t-5 28t-8 7
t-19 -3.5t-38 -3.5q-17 0 -30.5 6t-23 16t-14.5 21.5t-5 23.5q0 19 13 33t42 14q28 0 61.5 -19.5t70.5 -51t76 -71.5t78.5 -81t78.5 -79.5t75 -66.5z" />
    <glyph glyph-name="afii57505" unicode="&#x6a4;" horiz-adv-x="1763" arabic-form="isolated" 
d="M1430 1484v-11q-39 -47 -72 -80t-65 -58q-13 8 -25.5 15.5t-24.5 15.5q-38 24 -74.5 47t-77.5 48q20 19 38 35t35 32q16 15 32.5 30t35.5 32zM1311 1241q14 13 29.5 27t30.5 27q12 11 23.5 21t22.5 20h12l93 -51q23 -13 47 -25.5t47 -26.5v-16q-21 -29 -54.5 -62.5
t-81.5 -75.5l-176 96q-23 -30 -49.5 -57.5t-50.5 -45.5q-49 31 -99 63t-99 63q19 18 35.5 34t32.5 31t34 31.5t35 33.5zM1472 153h-1122q-38 0 -150 95q-47 41 -81 75.5t-53 61.5q-31 45 -48.5 90t-17.5 83q0 60 34 133t97 155q35 32 100 100q32 35 50 59.5t18 36.5
q0 17 -11.5 20.5t-28.5 3.5h-56q-36 -9 -79.5 -19.5t-78.5 -19.5q9 18 15 28.5t11 21.5l16 31h369q-13 -21 -26.5 -41t-25.5 -39q-29 -45 -57 -88t-60 -94q-40 -59 -40 -141q0 -121 85 -247q45 -67 97 -106.5t110 -54.5q14 -3 34 -3l708 1q26 53 47 126l46 126
q-15 11 -37 19q-21 3 -36 13q-12 4 -24.5 7.5t-26.5 8.5l-9 3q-47 14 -82 28.5t-55 28.5q-62 47 -62 140q0 68 42 124q23 29 51 44t58 15q1 -1 3 -2q4 -2 8 -6h-1q108 -23 186.5 -55.5t125.5 -70.5q33 -27 56.5 -70.5t33.5 -93.5q8 -40 8 -120q0 -17 -0.5 -28t-1.5 -17z
M1353 600q4 -1 13 -1q14 0 24 9t16 24q2 8 4.5 22.5t3.5 36.5q2 23 3 40t1 29q0 50 -10 70q-18 44 -64 44q-14 0 -21 -5q-56 -41 -56 -145q0 -21 14 -57q10 -20 20.5 -34t24.5 -22q6 -2 11.5 -4t10.5 -4z" />
    <glyph glyph-name="uniFB6B" unicode="&#x6a4;" horiz-adv-x="1524" arabic-form="final" 
d="M1430 1484v-11q-39 -47 -72 -80t-65 -58q-13 8 -25.5 15.5t-24.5 15.5q-38 24 -74.5 47t-77.5 48q20 19 38 35t35 32q16 15 32.5 30t35.5 32zM1311 1241q14 13 29.5 27t30.5 27q12 11 23.5 21t22.5 20h12l93 -51q23 -13 47 -25.5t47 -26.5v-16q-21 -29 -54.5 -62.5
t-81.5 -75.5l-176 96q-23 -30 -49.5 -57.5t-50.5 -45.5q-49 31 -99 63t-99 63q19 18 35.5 34t32.5 31t34 31.5t35 33.5zM1472 153h-1122q-38 0 -150 95q-47 41 -81 75.5t-53 61.5q-31 45 -48.5 90t-17.5 83q0 60 34 133t97 155q35 32 100 100q32 35 50 59.5t18 36.5
q0 17 -11.5 20.5t-28.5 3.5h-56q-36 -9 -79.5 -19.5t-78.5 -19.5q9 18 15 28.5t11 21.5l16 31h369q-13 -21 -26.5 -41t-25.5 -39q-29 -45 -57 -88t-60 -94q-40 -59 -40 -141q0 -121 85 -247q45 -67 97 -106.5t110 -54.5q14 -3 34 -3l708 1q26 53 47 126l46 126
q-15 11 -37 19q-21 3 -36 13q-12 4 -24.5 7.5t-26.5 8.5l-9 3q-47 14 -82 28.5t-55 28.5q-62 47 -62 140q0 68 42 124q23 29 51 44t58 15q1 -1 3 -2q4 -2 8 -6h-1q108 -23 186.5 -55.5t125.5 -70.5q33 -27 56.5 -70.5t33.5 -93.5q8 -40 8 -120q0 -17 -0.5 -28t-1.5 -17z
M1353 600q4 -1 13 -1q14 0 24 9t16 24q2 8 4.5 22.5t3.5 36.5q2 23 3 40t1 29q0 50 -10 70q-18 44 -64 44q-14 0 -21 -5q-56 -41 -56 -145q0 -21 14 -57q10 -20 20.5 -34t24.5 -22q6 -2 11.5 -4t10.5 -4z" />
    <glyph glyph-name="uniFB6C" unicode="&#x6a4;" horiz-adv-x="993" arabic-form="initial" 
d="M653 1484v-11q-40 -47 -72.5 -80t-63.5 -58q-21 13 -41 25t-39 24q-29 18 -61 38.5t-63 38.5q20 19 38 35t35 32q17 15 33.5 30t35.5 32zM535 1241q12 11 24 22.5t25 22.5q14 12 28.5 25.5t27.5 24.5h12l36 -20l36 -20q28 -16 56.5 -31t57.5 -32v-16q-40 -56 -135 -138
l-175 96q-24 -30 -50 -57t-50 -46q-51 31 -101 63t-98 63q19 18 35.5 34t32.5 31q14 14 32.5 31t35.5 34zM538 580q-11 5 -23.5 8.5t-26.5 8.5q-4 2 -10.5 4t-4.5 1q-46 13 -81.5 27.5t-53.5 28.5q-65 48 -65 138q0 35 10.5 68t30.5 59q48 60 113 60q1 -1 3 -2t3.5 -2.5
t4.5 -3.5h-1q109 -26 187 -58.5t122 -69.5q32 -29 56 -70t35 -92q6 -39 6 -122v-26.5t-1 -17.5l-141 -366h-412q-39 16 -77.5 31t-77.5 31t-78 31.5t-78 30.5q-5 4 -8 6.5t-5 4.5l-15 12q6 5 9.5 8t7.5 7q2 2 3.5 3t3.5 3q20 -5 39.5 -9t37.5 -8l41 -9q25 -7 68.5 -13.5
t100.5 -13.5q35 -5 67.5 -7.5t55.5 -2.5q60 0 93 12t40 32q16 35 36 91q12 39 24.5 79t24.5 79q-18 11 -41 20q-13 3 -23 9zM583 600q4 -1 13 -1q14 0 24 9t16 24q2 8 4.5 22.5t3.5 36.5q2 23 3 40t1 29q0 50 -10 70q-18 44 -64 44q-14 0 -21 -5q-56 -41 -56 -145
q0 -21 14 -57q10 -20 20.5 -34t24.5 -22q6 -2 11.5 -4t10.5 -4z" />
    <glyph glyph-name="uniFB6D" unicode="&#x6a4;" horiz-adv-x="759" arabic-form="medial" 
d="M653 1484v-11q-40 -47 -72.5 -80t-63.5 -58q-21 13 -41 25t-39 24q-29 18 -61 38.5t-63 38.5q20 19 38 35t35 32q17 15 33.5 30t35.5 32zM535 1241q12 11 24 22.5t25 22.5q14 12 28.5 25.5t27.5 24.5h12l36 -20l36 -20q28 -16 56.5 -31t57.5 -32v-16q-40 -56 -135 -138
l-175 96q-24 -30 -50 -57t-50 -46q-51 31 -101 63t-98 63q19 18 35.5 34t32.5 31q14 14 32.5 31t35.5 34zM538 580q-11 5 -23.5 8.5t-26.5 8.5q-4 2 -10.5 4t-4.5 1q-46 13 -81.5 27.5t-53.5 28.5q-65 48 -65 138q0 35 10.5 68t30.5 59q48 60 113 60q1 -1 3 -2t3.5 -2.5
t4.5 -3.5h-1q109 -26 187 -58.5t122 -69.5q32 -29 56 -70t35 -92q6 -39 6 -122v-26.5t-1 -17.5l-141 -366h-412q-39 16 -77.5 31t-77.5 31t-78 31.5t-78 30.5q-5 4 -8 6.5t-5 4.5l-15 12q6 5 9.5 8t7.5 7q2 2 3.5 3t3.5 3q20 -5 39.5 -9t37.5 -8l41 -9q25 -7 68.5 -13.5
t100.5 -13.5q35 -5 67.5 -7.5t55.5 -2.5q60 0 93 12t40 32q16 35 36 91q12 39 24.5 79t24.5 79q-18 11 -41 20q-13 3 -23 9zM583 600q4 -1 13 -1q14 0 24 9t16 24q2 8 4.5 22.5t3.5 36.5q2 23 3 40t1 29q0 50 -10 70q-18 44 -64 44q-14 0 -21 -5q-56 -41 -56 -145
q0 -21 14 -57q10 -20 20.5 -34t24.5 -22q6 -2 11.5 -4t10.5 -4z" />
    <glyph glyph-name="uni06A9" unicode="&#x6a9;" horiz-adv-x="1757" arabic-form="isolated" 
d="M359 295q96 -6 169 -9.5t103 -3.5q177 0 293 5t168 14q52 12 80.5 31t30.5 42q-16 14 -59 49t-103 84t-132.5 107.5t-148 120t-149.5 121.5t-137 111t-110 89t-69 56q22 6 69 20t110 32.5t137 40t150.5 44t150 44.5t135.5 40t108 31.5t67 19.5q2 -21 5.5 -50.5
t10.5 -66.5q19 -52 45 -95t59 -74q-53 -39 -113 -39q-36 0 -72.5 14t-69.5 38.5t-58.5 57.5t-39.5 71q-76 -20 -155 -41t-155 -41q49 -47 100.5 -95t100.5 -95q16 -14 52.5 -46t85.5 -75t107.5 -94t118.5 -104t118 -104t107 -93.5t85.5 -74.5t52.5 -46v-178h-1382
q-10 -9 -41 -24l-5 -2q-1 0 -5 -2l-6 -3h1l-2 -2q-1 0 -1 7q0 29 -10 56.5t-30.5 55.5t-51.5 58t-74 66q46 27 77 47t53 39.5t36.5 41t27.5 49.5q7 -10 12.5 -17.5t11.5 -15t13.5 -16t17.5 -20.5h-1q20 -11 41.5 -23.5t41.5 -26.5q28 -45 28 -89v-37z" />
    <glyph glyph-name="uniFB8F" unicode="&#x6a9;" horiz-adv-x="1607" arabic-form="final" 
d="M359 295q96 -6 169 -9.5t103 -3.5q123 0 212.5 2t152.5 7t103 12.5t63 17.5t31.5 23.5t9.5 29.5q-16 14 -59 49t-103 84t-132.5 107.5t-148 120t-149.5 121.5t-137 111t-110 89t-69 56q22 6 69 20t110 32.5t137 40t150.5 44t150 44.5t135.5 40t108 31.5t67 19.5
q3 -37 11.5 -77t23.5 -78t36.5 -71.5t48.5 -59.5q-53 -39 -113 -39q-36 0 -72.5 14t-69.5 38.5t-58.5 57.5t-39.5 71q-76 -20 -155 -41t-155 -41q22 -20 69.5 -63.5t112 -101t140.5 -125.5t153.5 -137t152 -135t136 -120t105 -92.5t59.5 -52.5v-178h-1382q-10 -9 -41 -24
l-5 -2q-1 0 -5 -2l-6 -3h1l-2 -2q9 0 5.5 13.5t-15.5 35t-30.5 48.5t-40 54t-44 51.5t-42.5 40.5q46 27 77 47t53 39.5t36.5 41t27.5 49.5q7 -10 12.5 -17.5t11.5 -15t13.5 -16t17.5 -20.5h-1q23 -12 43 -25t35 -28.5t24 -36t9 -49.5v-37z" />
    <glyph glyph-name="uniFB90" unicode="&#x6a9;" horiz-adv-x="1589" arabic-form="initial" 
d="M127 1112q13 3 21.5 6.5t13.5 5.5q4 2 8 3.5t10 3.5l262 76t263 76q88 26 175 50.5t175 50.5q2 -23 6 -52.5t10 -65.5q19 -52 45.5 -95t59.5 -73q-53 -39 -114 -39q-68 0 -139 50q-35 26 -61 59t-40 72q-77 -20 -154 -41t-154 -41q48 -47 99 -95t99 -95
q42 -37 88.5 -77.5t93 -81.5t93 -81.5t88.5 -78.5q92 -81 182.5 -160t181.5 -158v-178h-1135q-44 16 -86 32t-85 33q-37 14 -75.5 29t-75.5 29q-7 7 -12 11.5t-11 9.5l-5 5q-2 2 -4 3q5 4 6.5 5t13.5 7l6 4q17 -3 33.5 -5.5t33.5 -5.5t32.5 -6t32.5 -6q27 -5 95.5 -7.5
t179.5 -2.5q175 0 305 8t214 23q52 12 81.5 29t31.5 40z" />
    <glyph glyph-name="uniFB91" unicode="&#x6a9;" horiz-adv-x="1439" arabic-form="medial" 
d="M127 1112q13 3 21.5 6.5t13.5 5.5q4 2 8 3.5t10 3.5l262 76t263 76q88 26 175 50.5t175 50.5q2 -23 6 -52.5t10 -65.5q19 -52 45.5 -95t59.5 -73q-53 -39 -114 -39q-68 0 -139 50q-35 26 -61 59t-40 72q-77 -20 -154 -41t-154 -41q48 -47 99 -95t99 -95
q42 -37 88.5 -77.5t93 -81.5t93 -81.5t88.5 -78.5q92 -81 182.5 -160t181.5 -158v-178h-1135q-44 16 -86 32t-85 33q-37 14 -75.5 29t-75.5 29q-7 7 -12 11.5t-11 9.5l-5 5q-2 2 -4 3q5 4 6.5 5t13.5 7l6 4q17 -3 33.5 -5.5t33.5 -5.5t32.5 -6t32.5 -6q27 -5 95.5 -7.5
t179.5 -2.5q175 0 305 8t214 23q52 12 81.5 29t31.5 40z" />
    <glyph glyph-name="uni06AD" unicode="&#x6ad;" horiz-adv-x="1757" arabic-form="isolated" 
d="M709 667q0 8 -28 15.5t-75 13.5q-38 4 -58 11.5t-20 18.5q0 24 15 44t43 36q30 17 69 34t87 34q3 -5 5.5 -11t3.5 -8l2 -4t3 -7q-38 -5 -64 -10.5t-37 -10.5q-36 -13 -36 -36q0 -17 30.5 -28.5t86.5 -18.5q91 -9 91 -40q0 -32 -55 -69q-57 -39 -141 -39q-24 0 -47 2.5
t-45 8.5q-5 2 -12 3t-12 3q-2 1 -4.5 1t-4.5 1v2q16 2 25.5 2.5t15.5 1t11 1t13 1.5q6 1 15 1.5t20 1.5q49 6 76 17t27 28zM1348 1906v-11q-40 -48 -72.5 -80t-63.5 -57q-17 11 -33 20.5t-31 18.5q-34 21 -67.5 42t-71.5 43q20 19 38.5 35.5t35.5 32.5q17 15 33 30t35 32z
M1229 1664q24 22 52.5 47t53.5 48h12q8 -5 16 -8.5t16 -8.5h-1l78 -44t78 -43v-16q-20 -28 -53.5 -62t-82.5 -76l-175 96q-24 -30 -50 -57t-49 -46q-51 32 -101 64t-98 63q19 18 35.5 34t32.5 31q14 14 32.5 31t35.5 34zM359 295q96 -6 169 -9.5t103 -3.5q177 0 293 5
t168 14q52 12 80.5 30.5t30.5 39.5q-22 126 -43.5 253t-44.5 252q-23 127 -44.5 252t-44.5 253q36 -2 70.5 -2.5t67.5 -2.5q35 -2 72 -3t74 -3q132 -11 196.5 -34t47.5 -58q-8 -31 -11.5 -60t-3.5 -57q0 -19 1.5 -37.5t6.5 -35.5h-14q-52 0 -100 31q-19 15 -25 9
q-20 16 -43.5 34t-52.5 38l28 -140l28 -140q59 -146 119 -293.5t120 -292.5v-181h-1382q-10 -9 -41 -24l-5 -2q-1 0 -5 -2l-6 -3h1q-2 -2 -2.5 -1.5t-0.5 6.5q0 31 -14 63.5t-37 61.5q-17 21 -48 51t-67 60q39 23 70 42t48 35q23 20 42.5 45.5t33.5 54.5q7 -10 12.5 -17.5
t11.5 -15t13.5 -16t17.5 -20.5h-1q20 -11 41.5 -23.5t41.5 -26.5q28 -45 28 -89v-37z" />
    <glyph glyph-name="uniFBD4" unicode="&#x6ad;" horiz-adv-x="1614" arabic-form="final" 
d="M1361 1890v-25q-42 -49 -78.5 -85t-69.5 -62l-224 137l161 148zM705 668q0 4 -88 13q-89 9 -89 45q0 26 17.5 50t47.5 41q31 17 74 36t95 37l25 -62q-91 -11 -115 -21q-25 -9 -25 -21q0 -20 101 -31q103 -10 103 -55q0 -40 -61 -80q-59 -40 -146 -40q-54 0 -94 10
q-20 5 -47 12.5t-60 17.5v2q43 5 86 9t88 8q42 5 65 12t23 17zM1227 1662q24 22 50 45t50 45h22l194 -109v-28q-43 -59 -147 -148l-169 93q-24 -30 -49 -55t-51 -45l-221 140l156 147zM392 318q94 -6 158 -9t94 -3q176 0 287.5 4.5t160.5 14.5q94 19 97 50
q-43 251 -88 504.5t-89 503.5l297 -12q146 -11 208 -38.5t45 -68.5q-8 -29 -11 -57.5t-3 -54.5q0 -48 10 -84q-8 -1 -15.5 -1.5t-15.5 -0.5q-40 0 -76 15q4 -3 7.5 -5.5t8.5 -5.5q14 -11 22.5 -16.5t8.5 -7.5t-42 25t-125 85q12 -60 24.5 -118t24.5 -118q58 -143 117 -287.5
t117 -287.5v-195h-1361q-3 -2 -15 -8.5t-31 -16.5q-15 -6 -23.5 -11t-12.5 -9l-2 1q4 13 4 33q0 56 -47 114q-35 48 -126 119q48 26 80.5 47t50.5 38q28 23 48 53.5t34 66.5q14 -22 30.5 -44t36.5 -45h-1q19 -10 40 -23t43 -29q30 -46 30 -96v-22z" />
    <glyph glyph-name="uniFBD5" unicode="&#x6ad;" horiz-adv-x="1589" arabic-form="initial" 
d="M745 1890v-25q-42 -49 -78.5 -85t-69.5 -62l-225 137l161 148zM611 1662q24 22 50 45t50 45h22l194 -109v-28q-43 -59 -147 -148l-169 93q-49 -62 -101 -100l-220 140l155 147zM127 1112q13 3 21.5 6.5t13.5 5.5q4 2 8 3.5t10 3.5l262 76t263 76q88 26 175 50.5t175 50.5
q2 -23 6 -52.5t10 -65.5q19 -52 45.5 -95t59.5 -73q-53 -39 -114 -39q-68 0 -139 50q-35 26 -61 59t-40 72q-77 -20 -154 -41t-154 -41q48 -47 99 -95t99 -95q42 -37 88.5 -77.5t93 -81.5t93 -81.5t88.5 -78.5q92 -81 182.5 -160t181.5 -158v-178h-1135q-44 16 -86 32
t-85 33q-37 14 -75.5 29t-75.5 29q-7 7 -12 11.5t-11 9.5l-5 5q-2 2 -4 3q5 4 6.5 5t13.5 7l6 4q17 -3 33.5 -5.5t33.5 -5.5t32.5 -6t32.5 -6q27 -5 95.5 -7.5t179.5 -2.5q175 0 305 8t214 23q52 12 81.5 29t31.5 40z" />
    <glyph glyph-name="uniFBD6" unicode="&#x6ad;" horiz-adv-x="1439" arabic-form="medial" 
d="M729 1890v-25q-42 -49 -78.5 -85t-69.5 -62l-225 137l161 148zM595 1662q24 22 50 45t50 45h22l194 -109v-28q-43 -59 -147 -148l-169 93q-49 -62 -101 -100l-220 140l155 147zM127 1112q13 3 21.5 6.5t13.5 5.5q4 2 8 3.5t10 3.5l262 76t263 76q88 26 175 50.5t175 50.5
q2 -23 6 -52.5t10 -65.5q19 -52 45.5 -95t59.5 -73q-53 -39 -114 -39q-68 0 -139 50q-35 26 -60.5 59.5t-40.5 71.5q-77 -20 -154 -41t-154 -41q48 -47 99 -95t99 -95q10 -9 38 -33.5t65 -57t78.5 -69t78.5 -69t65 -57t38 -33.5q92 -81 182.5 -160t181.5 -158v-178h-1135
q-7 3 -32 12.5t-58.5 22t-71.5 27t-71 27.5t-57.5 22t-31.5 12q-9 9 -16.5 15t-15.5 14q5 4 6.5 5t13.5 7l6 4q17 -3 33.5 -5.5t33.5 -5.5t32.5 -6t32.5 -6q27 -5 95.5 -7.5t179.5 -2.5q175 0 305 8t214 23q52 12 81.5 29t31.5 40z" />
    <glyph glyph-name="afii57509" unicode="&#x6af;" horiz-adv-x="1757" arabic-form="isolated" 
d="M388 1263l60 18q155 47 318 93.5t318 91.5q0 -26 17 -79l-395 -102q-63 -20 -127.5 -40.5t-127.5 -40.5zM359 295q96 -6 169 -9.5t103 -3.5q123 0 212.5 2t152.5 7t103 12.5t63 17.5t31.5 23.5t9.5 29.5q-16 14 -59 49t-103 84t-132.5 107.5t-148 120t-149.5 121.5
t-137 111t-110 89t-69 56q22 6 69 20t110 32.5t137 40t150.5 44t150 44.5t135.5 40t108 31.5t67 19.5q3 -37 11.5 -77t23.5 -78t36.5 -71.5t48.5 -59.5q-53 -39 -113 -39q-36 0 -72.5 14t-69.5 38.5t-58.5 57.5t-39.5 71q-76 -20 -155 -41t-155 -41q22 -20 69.5 -63.5
t112 -101t140.5 -125.5t153.5 -137t152 -135t136 -120t105 -92.5t59.5 -52.5v-178h-1382q-10 -9 -41 -24l-5 -2q-1 0 -5 -2l-6 -3h1l-2 -2q9 0 5.5 13.5t-15.5 35t-30.5 48.5t-40 54t-44 51.5t-42.5 40.5q46 27 77 47t53 39.5t36.5 41t27.5 49.5q7 -10 12.5 -17.5t11.5 -15
t13.5 -16t17.5 -20.5h-1q23 -12 43 -25t35 -28.5t24 -36t9 -49.5v-37z" />
    <glyph glyph-name="uniFB93" unicode="&#x6af;" horiz-adv-x="1607" arabic-form="final" 
d="M388 1263l60 18q155 47 318 93.5t318 91.5q0 -26 17 -79l-395 -102q-63 -20 -127.5 -40.5t-127.5 -40.5zM359 295q96 -6 169 -9.5t103 -3.5q123 0 212.5 2t152.5 7t103 12.5t63 17.5t31.5 23.5t9.5 29.5q-16 14 -59 49t-103 84t-132.5 107.5t-148 120t-149.5 121.5
t-137 111t-110 89t-69 56q22 6 69 20t110 32.5t137 40t150.5 44t150 44.5t135.5 40t108 31.5t67 19.5q3 -37 11.5 -77t23.5 -78t36.5 -71.5t48.5 -59.5q-53 -39 -113 -39q-36 0 -72.5 14t-69.5 38.5t-58.5 57.5t-39.5 71q-76 -20 -155 -41t-155 -41q22 -20 69.5 -63.5
t112 -101t140.5 -125.5t153.5 -137t152 -135t136 -120t105 -92.5t59.5 -52.5v-178h-1382q-10 -9 -41 -24l-5 -2q-1 0 -5 -2l-6 -3h1l-2 -2q9 0 5.5 13.5t-15.5 35t-30.5 48.5t-40 54t-44 51.5t-42.5 40.5q46 27 77 47t53 39.5t36.5 41t27.5 49.5q7 -10 12.5 -17.5t11.5 -15
t13.5 -16t17.5 -20.5h-1q23 -12 43 -25t35 -28.5t24 -36t9 -49.5v-37z" />
    <glyph glyph-name="uniFB94" unicode="&#x6af;" horiz-adv-x="1589" arabic-form="initial" 
d="M232 1263l57 18q156 45 319 92.5t320 92.5q0 -31 13 -79l-391 -102q-63 -20 -128 -40.5t-128 -40.5zM127 1112q13 3 21.5 6.5t13.5 5.5q4 2 8 3.5t10 3.5l262 76t263 76q88 26 175 50.5t175 50.5q2 -23 6 -52.5t10 -65.5q19 -52 45.5 -95t59.5 -73q-53 -39 -114 -39
q-68 0 -139 50q-35 26 -61 59t-40 72q-77 -20 -154 -41t-154 -41q48 -47 99 -95t99 -95q42 -37 88.5 -77.5t93 -81.5t93 -81.5t88.5 -78.5q92 -81 182.5 -160t181.5 -158v-178h-1135q-44 16 -86 32t-85 33q-37 14 -75.5 29t-75.5 29q-7 7 -12 11.5t-11 9.5l-5 5q-2 2 -4 3
q5 4 6.5 5t13.5 7l6 4q17 -3 33.5 -5.5t33.5 -5.5t32.5 -6t32.5 -6q27 -5 95.5 -7.5t179.5 -2.5q175 0 305 8t214 23q52 12 81.5 29t31.5 40z" />
    <glyph glyph-name="uniFB95" unicode="&#x6af;" horiz-adv-x="1439" arabic-form="medial" 
d="M216 1263l57 18q156 45 319 92.5t320 92.5q0 -14 3 -33.5t10 -45.5l-391 -102q-63 -20 -128 -40.5t-128 -40.5zM127 1112q13 3 21.5 6.5t13.5 5.5q4 2 8 3.5t10 3.5l262 76t263 76q88 26 175 50.5t175 50.5q2 -23 6 -52.5t10 -65.5q19 -52 45.5 -95t59.5 -73
q-53 -39 -114 -39q-68 0 -139 50q-35 26 -60.5 59.5t-40.5 71.5q-77 -20 -154 -41t-154 -41q48 -47 99 -95t99 -95q10 -9 38 -33.5t65 -57t78.5 -69t78.5 -69t65 -57t38 -33.5q92 -81 182.5 -160t181.5 -158v-178h-1135q-7 3 -32 12.5t-58.5 22t-71.5 27t-71 27.5t-57.5 22
t-31.5 12q-9 9 -16.5 15t-15.5 14q5 4 6.5 5t13.5 7l6 4q17 -3 33.5 -5.5t33.5 -5.5t32.5 -6t32.5 -6q27 -5 95.5 -7.5t179.5 -2.5q175 0 305 8t214 23q52 12 81.5 29t31.5 40z" />
    <glyph glyph-name="afii57514" unicode="&#x6ba;" horiz-adv-x="1134" arabic-form="isolated" 
d="M320 634q95 -46 183 -65q-72 -27 -123.5 -63.5t-86.5 -83.5t-54 -104.5t-25 -125.5q2 -80 46.5 -160t127.5 -149q78 24 139.5 74.5t104.5 126.5q37 66 55 145t18 167q0 71 -12 127t-37 97l378 2q-36 -41 -56.5 -95t-28.5 -122v-237q0 -75 -31 -145.5t-88.5 -128.5
t-139 -99t-182.5 -57q-508 295 -508 625q0 186 162 375q56 -42 96 -65.5t63 -38.5h-1z" />
    <glyph glyph-name="uniFB9F" unicode="&#x6ba;" horiz-adv-x="949" arabic-form="final" 
d="M320 634q95 -46 183 -65q-72 -27 -123.5 -63.5t-86.5 -83.5t-54 -104.5t-25 -125.5q2 -80 46.5 -160t127.5 -149q72 22 130.5 73t100 120t64 152t22.5 168q0 71 -12 127t-37 97l378 2q-36 -41 -56.5 -95t-28.5 -122v-237q0 -75 -31 -145.5t-88.5 -128.5t-139 -99
t-182.5 -57q-508 295 -508 625q0 186 162 375q56 -42 96 -65.5t63 -38.5h-1z" />
    <glyph glyph-name="uniFBAC" unicode="&#x6be;" horiz-adv-x="1297" arabic-form="initial" 
d="M853 713q-45 -90 -85.5 -167.5t-75.5 -142.5q51 -19 124.5 -39.5t163.5 -42.5q54 65 54 148q0 78 -47 140.5t-134 103.5zM753 760q-69 26 -140 53.5t-140 53.5q-1 7 -9 7q-18 0 -34.5 -16t-29 -40t-20.5 -52t-8 -52q0 -80 56.5 -147t163.5 -121zM254 581q7 61 14.5 98.5
t15.5 56.5l103 188q87 23 166 57t152 80l178 -63q19 36 38.5 74t39.5 74l131 28l-123 -229q88 -67 133 -157.5t45 -203.5q0 -165 -108 -290q-23 -16 -79.5 -40.5t-137.5 -55.5q-62 -23 -99 -48h-409l-322 123l-42 32l43 41l139 -27q102 -42 180 -42q45 0 45 26q0 4 -1 6v-1
q-102 116 -102 273z" />
    <glyph glyph-name="uniFBAD" unicode="&#x6be;" horiz-adv-x="993" arabic-form="medial" 
d="M587 442q84 -52 167 -52q47 0 97.5 18t100.5 52q-10 17 -31.5 50.5t-49 71t-58 73t-59.5 57.5zM376 150q-51 -83 -51 -133q0 -20 8.5 -35.5t26.5 -29t46.5 -27.5t67.5 -31q55 1 99.5 21t77.5 54t54 80t28 101h-357zM992 272q-92 0 -157 -86.5t-93 -266.5q-3 -18 -3.5 -35
t-0.5 -31q0 -44 14 -83q-13 -16 -20.5 -26t-20 -20t-34.5 -23t-63 -35q-34 -14 -66.5 -20.5t-63.5 -6.5q-56 0 -105 20.5t-87.5 58.5t-65.5 91.5t-41 119.5q22 35 43 75t52 99q5 11 10.5 23.5t10.5 23.5q-77 30 -154.5 62t-154.5 61l-42 37l43 36l135 -32q96 -28 176 -28
q29 0 51 4t40 13.5t34 26.5t33 43q97 155 199.5 316.5t199.5 316.5l232 -306q0 -104 -25.5 -194t-74.5 -163q1 -6 1 -16v-23v-21q-1 -4 -1 -6.5v-3.5z" />
    <glyph glyph-name="uni06C1" unicode="&#x6c1;" horiz-adv-x="838" arabic-form="isolated" 
d="M390 636q-13 17 -24.5 31.5t-22.5 28.5q-48 -60 -98.5 -123.5t-98.5 -123.5q123 -70 196 -70q26 0 62.5 10t95.5 36q-30 69 -55 118.5t-55 92.5zM665 646q23 -55 23 -106q0 -54 -17.5 -104.5t-48 -94t-70.5 -80t-85.5 -62t-93.5 -40t-94 -14.5q-58 0 -109 13t-88.5 37
t-59.5 57.5t-22 74.5q0 31 17 63l455 581z" />
    <glyph glyph-name="uniFBA7" unicode="&#x6c1;" horiz-adv-x="718" arabic-form="final" 
d="M718 272q-198 36 -263 190q-21 62 -52 62q-17 0 -40.5 -20t-50.5 -53.5t-56 -77t-55.5 -90.5t-49.5 -94.5t-39 -88.5q-31 -78 -55 -78q-37 0 -57 171q0 51 3.5 83.5t14.5 44.5q117 123 242 255t242 256q34 -57 59.5 -127t44.5 -154q37 -166 112 -206v-73z" />
    <glyph glyph-name="uniFBA8" unicode="&#x6c1;" horiz-adv-x="1273" arabic-form="initial" 
d="M695 -354q-87 0 -115 78q-3 11 -7 23.5t-4 24.5l3 34q1 4 3.5 9.5t6.5 9.5q0 2 0.5 3.5t0.5 3.5l14 13q0 6 3 9l175 174l26 -8v-13q-6 -4 -6 -7l-2 -6l-2 -4q-10 -5 -16 -14v1q-3 -5 -7 -11t-7 -11q-6 -10 -9.5 -19t-3.5 -20q0 -32 15 -51q15 -28 50 -64l-10 -23
q-1 -9 -8 -18v1q-3 -5 -5.5 -10.5t-5.5 -10.5q-2 -3 -4.5 -7.5t-4.5 -7.5l-33 -34q-9 -9 -20.5 -21t-25.5 -24h-1zM240 330q24 18 37.5 42t13.5 52v121q-6 12 -14.5 30t-13.5 30h305l-22 -63q5 -53 10 -106.5t10 -105.5q39 -11 81.5 -24t81.5 -24q57 2 94 31t51 82v385
q0 13 -5 29t-13 34q38 0 75 0.5t73 0.5h144q-12 -43 -12 -67v-364q0 -20 -1.5 -34t-1.5 -31q0 -37 -22.5 -72t-59 -62t-82.5 -44t-93 -17l-325 128q-17 -27 -43.5 -51t-56 -42t-60.5 -29t-57 -11q-7 0 -17 4q-51 20 -104.5 41.5t-104.5 41.5q-54 21 -109 43q-9 6 -22.5 14.5
t-26.5 16.5q5 2 10 3t7 2q8 2 13 3.5t18 4.5q5 -1 10.5 -2t13.5 -3q5 -1 9.5 -2t9.5 -2q26 -7 53 -12.5t38 -5.5q63 0 108 35z" />
    <glyph glyph-name="uniFBA9" unicode="&#x6c1;" horiz-adv-x="987" arabic-form="medial" 
d="M-18 272l-32 34l32 40h50q198 0 271 14q35 9 70 21.5t66 24t57 19.5t43 8q37 0 37 -58q0 -16 -3 -34q-5 -38 -7 -75.5t-2 -70.5v-34q0 -19 -6 -41.5t-13.5 -45t-13.5 -43.5t-6 -38q0 -25 19 -25q23 0 49 16.5t50 47t42.5 75t27.5 100.5q0 21 -2 40.5t-2 33.5q0 67 28 68
l5 -1.5t11 -3.5t12 -3.5t10 -1.5q42 0 72 85l140 -79v-73q-173 -76 -179 -182q-1 -26 -8.5 -61t-20.5 -70t-32.5 -67t-44.5 -52q-32 -27 -71 -51t-79 -42.5t-77 -29.5t-65 -11q-45 0 -55 43q0 19 3 46q18 41 30.5 81.5t21 75.5t12.5 62t4 42q0 29 -3.5 63t-8.5 74
q-9 79 -385 79h-47z" />
    <glyph glyph-name="uni06C7" unicode="&#x6c7;" horiz-adv-x="1164" arabic-form="isolated" 
d="M353 1240q40 -34 83 -34q2 0 5 0.5t7 0.5q5 1 11.5 1h9.5q45 0 59 -11q0 10 1 18.5t1 18.5q-6 33 -45 55q-40 23 -64 20l-81 -8q-2 -10 -2 -15q0 -23 15 -46zM570 1224l36 -80q-90 -28 -177 -65t-175 -85q0 7 -3 14q-10 29 -15 39q14 7 32.5 17t40.5 21h-1
q29 17 56.5 32.5t54.5 30.5q-8 4 -16 5t-19 1q-63 39 -63 112q0 26 7 47q0 2 2 4v-1q1 2 1.5 3.5t1.5 3.5q49 28 76 64q29 -24 68 -24q21 -11 35 -21t21 -18q4 -5 7 -15t7 -25l-3 -75zM515 764q-68 -30 -107 -82t-39 -121q0 -26 8 -63q16 -57 47 -111t73 -94
q35 -29 76.5 -52.5t83.5 -36.5q32 -9 75 -9h55q-1 72 -15 142.5t-38.5 135t-59.5 122t-78 105.5q-24 25 -45.5 45t-29.5 20zM995 199q-24 -112 -78.5 -199.5t-138.5 -153.5q-170 -131 -403 -131q-80 0 -168 17q-120 71 -207 250q73 2 131.5 18.5t112.5 47.5
q12 -43 30.5 -83.5t44.5 -75.5q35 -45 77 -74t90 -44q146 38 222.5 134t78.5 244q-14 2 -30 4.5t-30 4.5q-36 4 -74.5 8t-77 7t-74 4.5t-64.5 1.5q-56 0 -102 -3.5t-84 -10.5q-135 113 -135 350q0 33 75 111q47 47 99.5 88t109.5 73q71 38 144.5 58.5t144.5 20.5
q66 0 127 -16q198 -198 198 -484q0 -88 -19 -167z" />
    <glyph glyph-name="uniFBD8" unicode="&#x6c7;" horiz-adv-x="1014" arabic-form="final" 
d="M353 1240q40 -34 83 -34q2 0 5 0.5t7 0.5q5 1 11.5 1h9.5q45 0 59 -11q0 10 1 18.5t1 18.5q-6 33 -45 55q-40 23 -64 20l-81 -8q-2 -10 -2 -15q0 -23 15 -46zM570 1224l36 -80q-90 -28 -177 -65t-175 -85q0 7 -3 14q-10 29 -15 39q14 7 32.5 17t40.5 21h-1
q29 17 56.5 32.5t54.5 30.5q-8 4 -16 5t-19 1q-63 39 -63 112q0 26 7 47q0 2 2 4v-1q1 2 1.5 3.5t1.5 3.5q49 28 76 64q29 -24 68 -24q21 -11 35 -21t21 -18q4 -5 7 -15t7 -25l-3 -75zM515 764q-68 -30 -107 -82t-39 -121q0 -26 8 -63q16 -57 47 -111t73 -94
q35 -29 76.5 -52.5t83.5 -36.5q32 -9 75 -9h55q-1 72 -15 142.5t-38.5 135t-59.5 122t-78 105.5q-24 25 -45.5 45t-29.5 20zM995 199q-24 -112 -78.5 -199.5t-138.5 -153.5q-170 -131 -403 -131q-80 0 -168 17q-120 71 -207 250q73 2 131.5 18.5t112.5 47.5
q12 -43 30.5 -83.5t44.5 -75.5q35 -45 77 -74t90 -44q146 38 222.5 134t78.5 244q-14 2 -30 4.5t-30 4.5q-36 4 -74.5 8t-77 7t-74 4.5t-64.5 1.5q-56 0 -102 -3.5t-84 -10.5q-135 113 -135 350q0 33 75 111q47 47 99.5 88t109.5 73q71 38 144.5 58.5t144.5 20.5
q66 0 127 -16q198 -198 198 -484q0 -88 -19 -167z" />
    <glyph glyph-name="uni06C9" unicode="&#x6c9;" horiz-adv-x="1164" arabic-form="isolated" 
d="M475 1468l20 -18q2 -5 6.5 -15t10.5 -22q5 -11 11.5 -25t14.5 -30l41 -91q3 -6 7.5 -15.5t7.5 -15.5v1q17 -27 39 -54t41 -39h-1q2 -1 6 -2.5t6 -2.5l3 -3h-1q6 -2 7 -3q7 -5 14.5 -9.5t13.5 -9.5q3 -3 13 -8q3 -2 7.5 -4t8.5 -4l-72 -99l-5 7q-2 0 -3 0.5t-2 0.5l-4 4
q-18 14 -35.5 31.5t-31.5 36t-24.5 36t-14.5 31.5l-5 21q-4 18 -7.5 38t-7.5 38q0 1 -0.5 2t-0.5 3q-1 5 -1.5 11t-2.5 14q-5 17 -8.5 34t-8.5 34h-7q-32 -48 -65.5 -98.5t-65.5 -98.5q-11 47 -70 86zM515 764q-68 -30 -107 -82t-39 -121q0 -26 8 -63q16 -57 47 -111t73 -94
q35 -29 76.5 -52.5t83.5 -36.5q32 -9 75 -9h55q-1 72 -15 142.5t-38.5 135t-59.5 122t-78 105.5q-24 25 -45.5 45t-29.5 20zM995 199q-24 -112 -78.5 -199.5t-138.5 -153.5q-170 -131 -403 -131q-80 0 -168 17q-120 71 -207 250q73 2 131.5 18.5t112.5 47.5
q12 -43 30.5 -83.5t44.5 -75.5q35 -45 77 -74t90 -44q146 38 222.5 134t78.5 244q-14 2 -30 4.5t-30 4.5q-36 4 -74.5 8t-77 7t-74 4.5t-64.5 1.5q-56 0 -102 -3.5t-84 -10.5q-135 113 -135 350q0 33 75 111q47 47 99.5 88t109.5 73q71 38 144.5 58.5t144.5 20.5
q66 0 127 -16q198 -198 198 -484q0 -88 -19 -167z" />
    <glyph glyph-name="uniFBE3" unicode="&#x6c9;" horiz-adv-x="1014" arabic-form="final" 
d="M475 1468l20 -18q2 -5 6.5 -15t10.5 -22q5 -11 11.5 -25t14.5 -30l41 -91q3 -6 7.5 -15.5t7.5 -15.5v1q17 -27 39 -54t41 -39h-1q2 -1 6 -2.5t6 -2.5l3 -3h-1q6 -2 7 -3q7 -5 14.5 -9.5t13.5 -9.5q3 -3 13 -8q3 -2 7.5 -4t8.5 -4l-72 -99l-5 7q-2 0 -3 0.5t-2 0.5l-4 4
q-18 14 -35.5 31.5t-31.5 36t-24.5 36t-14.5 31.5l-5 21q-4 18 -7.5 38t-7.5 38q0 1 -0.5 2t-0.5 3q-1 5 -1.5 11t-2.5 14q-5 17 -8.5 34t-8.5 34h-7q-32 -48 -65.5 -98.5t-65.5 -98.5q-11 47 -70 86zM515 764q-68 -30 -107 -82t-39 -121q0 -26 8 -63q16 -57 47 -111t73 -94
q35 -29 76.5 -52.5t83.5 -36.5q32 -9 75 -9h55q-1 72 -15 142.5t-38.5 135t-59.5 122t-78 105.5q-24 25 -45.5 45t-29.5 20zM995 199q-24 -112 -78.5 -199.5t-138.5 -153.5q-170 -131 -403 -131q-80 0 -168 17q-120 71 -207 250q73 2 131.5 18.5t112.5 47.5
q12 -43 30.5 -83.5t44.5 -75.5q35 -45 77 -74t90 -44q146 38 222.5 134t78.5 244q-14 2 -30 4.5t-30 4.5q-36 4 -74.5 8t-77 7t-74 4.5t-64.5 1.5q-56 0 -102 -3.5t-84 -10.5q-135 113 -135 350q0 33 75 111q47 47 99.5 88t109.5 73q71 38 144.5 58.5t144.5 20.5
q66 0 127 -16q198 -198 198 -484q0 -88 -19 -167z" />
    <glyph glyph-name="uni06CC" unicode="&#x6cc;" horiz-adv-x="1405" arabic-form="isolated" 
d="M1107 358q-31 17 -91 35.5t-147 40.5q-42 11 -90 40t-96 75q-23 -2 -35.5 -15t-12.5 -39q0 -28 8.5 -46t28.5 -31.5t54 -26t85 -29t120.5 -40.5t161.5 -61q78 -32 120 -83.5t42 -115.5q0 -59 -26.5 -123.5t-74 -126t-113.5 -116.5t-145.5 -96.5t-169 -66t-184.5 -24.5
q-103 0 -201 39t-173.5 113t-121.5 180.5t-46 241.5q0 130 91.5 291.5t267.5 350.5l-7 21q-15 1 -33.5 1.5t-33.5 1.5q-45 -12 -92.5 -25t-92.5 -25l62 123h398l-186 -280v1q-73 -155 -73 -296q0 -88 20 -163.5t53 -136.5t75.5 -108t87 -79t88 -48.5t77.5 -16.5q69 0 131 21
t109 58.5t75 88t29 110.5q-14 24 -22 35t-21.5 19t-39.5 16.5t-76 27.5q-55 21 -111 43t-101.5 40t-74 29t-28.5 10q-124 76 -124 197q0 47 23 84t74 70t131 65.5t194 70.5q170 -127 317 -127q-37 -32 -57 -77.5t-22 -117.5h-1z" />
    <glyph glyph-name="uniFBFD" unicode="&#x6cc;" horiz-adv-x="1079" arabic-form="final" 
d="M1079 271q-17 10 -48 10q-45 0 -151 -25q-2 0 -4 -0.5t-4 -0.5q-29 0 -90 38h1q-30 17 -55.5 35t-44.5 35q-47 -3 -47 -50q0 -23 16 -46t46 -47q39 -28 120 -56q8 -3 48.5 -15t112.5 -33q38 -12 68 -21.5t50 -17.5q66 -30 103 -68.5t53 -91.5q3 -18 3 -41
q0 -57 -23.5 -119t-68.5 -129q-39 -52 -93 -98.5t-118.5 -84.5t-138 -66t-150.5 -42q-66 -12 -121 -12q-155 0 -274 76t-198 215q-34 63 -52.5 135t-18.5 146q0 130 91.5 292.5t267.5 351.5q-2 5 -3.5 10t-3.5 10q-14 0 -33 1t-33 1q-45 -12 -92 -24.5t-92 -24.5l60 121h400
l-187 -278v1q-73 -152 -73 -297q0 -57 13.5 -118.5t36.5 -121.5q59 -136 134 -213t165 -90q24 -7 53 -7q128 0 225 70q57 38 86 90t31 115q-13 23 -28.5 40.5t-29.5 24.5q-9 2 -34.5 10.5t-66.5 23.5l-198 78q-46 17 -79 29.5t-38 14.5q-124 79 -124 200q0 57 39.5 103
t114.5 80q30 15 71 32t87 35q8 3 18 7.5t22 9.5q14 5 30.5 12t36.5 15q11 -8 63.5 -52t148.5 -125v-53z" />
    <glyph glyph-name="uniFBFE" unicode="&#x6cc;" horiz-adv-x="788" arabic-form="initial" 
d="M480 -187q-10 -9 -21 -19t-22 -19q-32 -28 -64 -58h-9q-35 20 -67.5 38.5t-65.5 37.5q-13 8 -27.5 16.5t-27.5 15.5v11q22 29 57 65t83 79l173 -101q24 32 48 58.5t50 47.5q29 -18 55 -35l52 -34l46 -30t48 -31q-16 -15 -30 -28.5t-28 -26.5l-38 -36t-41 -39zM546 340
q0 -72 -67 -130q-34 -29 -67.5 -44t-68.5 -15q-4 0 -7 0.5t-7 0.5q-5 1 -16 1q-39 16 -78.5 31t-78.5 31t-78.5 32t-77.5 30l-8 5q-9 5 -20.5 12t-21.5 12q13 5 18.5 7t10.5 4q3 1 6.5 2t9.5 3l122 -27h15q56 0 103 28q56 44 56 101v121q-6 12 -14.5 30t-13.5 30h305
l-22 -62v-203z" />
    <glyph glyph-name="uniFBFF" unicode="&#x6cc;" horiz-adv-x="547" arabic-form="medial" 
d="M480 -187q-26 -24 -53.5 -48t-53.5 -48h-9q-35 20 -67.5 38.5t-65.5 37.5q-13 8 -27.5 16.5t-27.5 15.5v11q22 29 57 65t83 79l173 -101q24 32 48 58.5t50 47.5q29 -18 55 -35l52 -34l46 -30t48 -31q-16 -15 -30 -28.5t-28 -26.5l-38 -36t-41 -39zM546 340
q0 -72 -67 -130q-34 -29 -67.5 -44t-68.5 -15q-4 0 -7 0.5t-7 0.5q-5 1 -16 1q-39 16 -78.5 31t-78.5 31t-78.5 32t-77.5 30l-8 5q-9 5 -20.5 12t-21.5 12q13 5 18.5 7t10.5 4q3 1 6.5 2t9.5 3l122 -27h15q56 0 103 28q56 44 56 101v121q-6 12 -14.5 30t-13.5 30h305
l-22 -62v-203z" />
    <glyph glyph-name="uni06D0" unicode="&#x6d0;" horiz-adv-x="1405" arabic-form="isolated" 
d="M1136 -721q22 -25 45 -52t45 -52v-22l-114 -191h-25q-31 22 -68 59t-82 91l96 167q-29 25 -53 49t-45 50l142 224l146 -159zM1107 358q-31 17 -91 35.5t-147 40.5q-42 11 -90 40t-96 75q-23 -2 -35.5 -15t-12.5 -39q0 -28 8.5 -46t28.5 -31.5t54 -26t85 -29t120.5 -40.5
t161.5 -61q78 -32 120 -83.5t42 -115.5q0 -59 -26.5 -123.5t-74 -126t-113.5 -116.5t-145.5 -96.5t-169 -66t-184.5 -24.5q-103 0 -201 39t-173.5 113t-121.5 180.5t-46 241.5q0 130 91.5 291.5t267.5 350.5l-7 21q-15 1 -33.5 1.5t-33.5 1.5q-45 -12 -92.5 -25t-92.5 -25
l62 123h398l-186 -280v1q-73 -155 -73 -296q0 -88 20 -163.5t53 -136.5t75.5 -108t87 -79t88 -48.5t77.5 -16.5q69 0 131 21t109 58.5t75 88t29 110.5q-14 24 -22 35t-21.5 19t-39.5 16.5t-76 27.5q-55 21 -111 43t-101.5 40t-74 29t-28.5 10q-124 76 -124 197q0 47 23 84
t74 70t131 65.5t194 70.5q170 -127 317 -127q-37 -32 -57 -77.5t-22 -117.5h-1z" />
    <glyph glyph-name="uniFBE5" unicode="&#x6d0;" horiz-adv-x="1079" arabic-form="final" 
d="M1136 -923q22 -25 45 -52t45 -52v-22l-114 -190h-25q-31 22 -68 59t-82 91l96 166q-29 25 -53 49t-45 50l142 224l146 -159zM1079 271q-17 10 -48 10q-45 0 -151 -25q-2 0 -4 -0.5t-4 -0.5q-29 0 -90 38h1q-30 17 -55.5 35t-44.5 35q-47 -3 -47 -50q0 -23 16 -46t46 -47
q39 -28 120 -56q8 -3 48.5 -15t112.5 -33q38 -11 68 -21t50 -18q66 -30 103 -68.5t53 -91.5q3 -18 3 -41q0 -57 -23.5 -119t-68.5 -129q-39 -52 -93 -98.5t-118.5 -84.5t-138 -66t-150.5 -42q-66 -12 -121 -12q-155 0 -274 76t-198 215q-34 63 -52.5 135t-18.5 146
q0 130 91.5 292.5t267.5 351.5q-2 5 -3.5 10t-3.5 10q-14 0 -33 1t-33 1q-45 -12 -92 -24.5t-92 -24.5l60 121h400l-187 -278v1q-73 -152 -73 -297q0 -57 13.5 -118.5t36.5 -121.5q59 -136 134 -213t165 -90q24 -7 53 -7q128 0 225 70q57 38 86 90t31 115q-13 23 -28.5 40.5
t-29.5 24.5q-9 2 -34.5 10.5t-66.5 23.5l-198 78q-46 17 -79 29.5t-38 14.5q-124 79 -124 200q0 57 39.5 103t114.5 80q30 15 71 32t87 35q8 3 18 7.5t22 9.5q14 5 30.5 12t36.5 15q11 -8 63.5 -52t148.5 -125v-53z" />
    <glyph glyph-name="uniFBE6" unicode="&#x6d0;" horiz-adv-x="694" arabic-form="initial" 
d="M399 -310q16 -17 34.5 -38.5t35.5 -41.5q6 -8 12.5 -15t12.5 -14v-11q-10 -16 -19 -32t-19 -33v1q-17 -30 -35 -60.5t-36 -60.5h-12q-29 21 -63.5 56.5t-76.5 83.5l99 171q-30 24 -55.5 48.5t-45.5 49.5q27 42 51.5 81t49.5 79l28 43q12 -13 23 -25.5t22 -23.5
q20 -23 40 -44.5t43 -45.5zM547 340q0 -72 -67 -130q-34 -29 -67.5 -44t-68.5 -15q-4 0 -7 0.5t-7 0.5q-5 1 -16 1q-39 16 -78.5 31t-78.5 31t-79 32t-78 30l-8 5q-9 5 -20.5 12t-21.5 12q13 5 18.5 7t10.5 4q3 1 6.5 2t9.5 3l123 -27h15q56 0 103 28q56 44 56 101v121
q-6 12 -14.5 30t-13.5 30h305l-22 -62v-203z" />
    <glyph glyph-name="uniFBE7" unicode="&#x6d0;" horiz-adv-x="547" arabic-form="medial" 
d="M399 -310q22 -24 47 -54t48 -55v-11q-10 -16 -19 -32t-19 -33v1q-17 -30 -35 -60.5t-36 -60.5h-12q-29 21 -63.5 56.5t-76.5 83.5l99 171q-30 24 -55.5 48.5t-45.5 49.5q27 42 51.5 81t49.5 79l28 43q12 -13 23 -25.5t22 -23.5q20 -23 40 -44.5t43 -45.5zM547 340
q0 -72 -67 -130q-34 -29 -67.5 -44t-68.5 -15q-4 0 -7 0.5t-7 0.5q-5 1 -16 1q-39 16 -78.5 31t-78.5 31t-79 32t-78 30l-8 5q-9 5 -20.5 12t-21.5 12q13 5 18.5 7t10.5 4q3 1 6.5 2t9.5 3l123 -27h15q56 0 103 28q56 44 56 101v121q-6 12 -14.5 30t-13.5 30h305l-22 -62
v-203z" />
    <glyph glyph-name="afii57519" unicode="&#x6d2;" horiz-adv-x="2200" arabic-form="isolated" 
d="M660 359q-31 18 -91.5 37.5t-147.5 40.5q-42 10 -90 39.5t-96 75.5q-48 -5 -48 -54q0 -27 13.5 -50t51 -45.5t104.5 -46.5t175 -53q65 -21 111.5 -40.5t79 -42t52 -51t29.5 -66.5v1q4 -7 4 -39q0 -114 -98 -173q-3 -2 -5 -4l-4 -4v-3q1 -3 9.5 -5t21.5 -3.5t28.5 -2.5
t30.5 -1h4q40 0 78.5 1.5t78.5 1.5q312 0 563.5 -20.5t439.5 -62.5q7 12 15 27.5t15 27.5v152l140 -63l-154 -316q-355 24 -634 24q-108 0 -203 -3.5t-180 -10.5q-86 -8 -150 -13.5t-109.5 -9t-74.5 -5.5t-45 -3q-26 0 -53 -6.5t-53 -14.5q-9 -3 -17 -3q-19 0 -36.5 19.5
t-17.5 57.5q0 59 82 114q59 39 88.5 93.5t31.5 118.5q-13 23 -24 35.5t-26.5 21.5t-41 17.5t-68.5 23.5l-198 76q-54 24 -83 33.5t-34 12.5q-57 38 -90.5 89t-33.5 111q0 58 39.5 103.5t114.5 78.5q35 16 103.5 44t164.5 59q173 -125 317 -125q-34 -29 -55 -74.5t-23 -120.5
z" />
    <glyph glyph-name="uni06D3" unicode="&#x6d3;" horiz-adv-x="2200" arabic-form="isolated" 
d="M115 847q15 13 27.5 21.5t28.5 15t37.5 12.5t54.5 13q0 91 -45 151q65 49 65 118h2q64 -118 119 -118h10q26 0 26 38q0 21 -6 33l18 4q30 -6 30 -66q0 -83 -61 -83q-27 0 -46 21.5t-45 64.5q-25 -49 -25 -94q0 -11 4 -26t11 -34q15 0 32 0.5t33 1t30 2t21 4.5v-154h-148
q-14 -1 -31.5 0.5t-37.5 1.5h-15q-16 0 -30 -41h-2q0 7 -0.5 11t-3 9t-7.5 13t-14 23v-1q-6 10 -13.5 25t-18.5 34zM660 359q-31 18 -91.5 37.5t-147.5 40.5q-42 10 -90 39.5t-96 75.5q-48 -5 -48 -54q0 -27 13.5 -50t51 -45.5t104.5 -46.5t175 -53q65 -21 111.5 -40.5
t79 -42t52 -51t29.5 -66.5v1q4 -7 4 -39q0 -36 -7.5 -60t-22 -43t-34 -36.5t-43.5 -41.5v-3q1 -3 9.5 -5t21.5 -3.5t28.5 -2.5t30.5 -1h4q40 0 78.5 1.5t78.5 1.5q312 0 563.5 -20.5t439.5 -62.5q7 12 15 27.5t15 27.5v152l140 -63l-154 -316q-355 24 -634 24
q-108 0 -203 -3.5t-180 -10.5q-33 -3 -79 -7t-95.5 -8.5t-100 -9t-93 -9.5t-74 -9.5t-43.5 -8.5q-9 -3 -17 -3q-19 0 -36.5 19.5t-17.5 57.5q0 59 82 114q59 39 88.5 93.5t31.5 118.5q-13 23 -24 35.5t-26.5 21.5t-41 17.5t-68.5 23.5l-198 76q-54 24 -83 33.5t-34 12.5
q-57 38 -90.5 89t-33.5 111q0 58 39.5 103.5t114.5 78.5q35 16 103.5 44t164.5 59q173 -125 317 -125q-34 -29 -55 -74.5t-23 -120.5z" />
    <glyph glyph-name="uniFBAF" unicode="&#x6d2;" horiz-adv-x="2000" arabic-form="final" 
d="M661 358q-32 19 -93 38.5t-147 40.5q-42 10 -90 39.5t-96 75.5q-48 -5 -48 -54q0 -27 13.5 -50t51 -45.5t104.5 -46.5t175 -53q65 -21 111.5 -40.5t79 -42t52 -51t29.5 -66.5v1q4 -7 4 -39q0 -114 -98 -173q-9 -6 -9 -10q0 -5 26 -8.5t64 -4.5q52 2 107.5 2h105.5
q291 0 531.5 -21.5t419.5 -60.5q7 12 15 27.5t15 27.5v152l140 -63l-154 -316q-355 24 -634 24q-23 0 -70.5 -2t-109 -5.5t-131.5 -8l-140 -9t-134.5 -8.5t-113.5 -7.5t-78 -5.5t-28 -2q-24 0 -46 6t-38.5 16.5t-26.5 25.5t-10 34q0 15 14 32.5t34.5 38.5t45 45t45.5 52.5
t35 61t15 70.5q-13 23 -24 35.5t-26.5 21.5t-41 17.5t-68.5 23.5l-198 76q-65 29 -111 53t-75 51t-42 60.5t-13 81.5t33 87.5t90 74t134 65t165 58.5q51 -36 93 -56.5t81.5 -33t79.5 -20.5t86 -20q56 -9 111 -14.5t111 -5.5q61 0 121 6t123 17q118 22 206 70.5t145 114.5
q25 29 47 44t44 15q56 0 99 -110q38 -97 95 -185t136 -166v-64q-180 13 -243 90q-35 44 -80.5 66t-108.5 22q-112 0 -226 -55q-40 -19 -82.5 -30.5t-88 -19t-93 -11.5t-97.5 -7q-75 0 -156 10t-164 29v-8z" />
    <glyph glyph-name="uniFBB1" unicode="&#x6d3;" horiz-adv-x="2000" arabic-form="final" 
d="M115 847q15 13 27.5 21.5t28.5 15t37.5 12.5t54.5 13q0 91 -45 151q65 49 65 118h2q64 -118 119 -118h10q26 0 26 38q0 21 -6 33l18 4q30 -6 30 -66q0 -83 -61 -83q-19 0 -36.5 15t-30.5 32t-19.5 30t-4.5 9q-25 -49 -25 -94q0 -11 4 -26t11 -34q15 0 32 0.5t33 1t30 2
t21 4.5v-154h-148q-14 -1 -31.5 0.5t-37.5 1.5h-15q-16 0 -30 -41h-2q0 7 -0.5 11t-3 9t-7.5 13t-14 23v-1q-6 10 -13.5 25t-18.5 34zM661 358q-32 19 -93 38.5t-147 40.5q-42 10 -90 39.5t-96 75.5q-48 -5 -48 -54q0 -27 13.5 -50t51 -45.5t104.5 -46.5t175 -53
q65 -21 111.5 -40.5t79 -42t52 -51t29.5 -66.5v1q4 -7 4 -39q0 -114 -98 -173q-9 -6 -9 -10q0 -5 26 -8.5t64 -4.5q52 2 107.5 2h105.5q291 0 531.5 -21.5t419.5 -60.5q7 12 15 27.5t15 27.5v152l140 -63l-154 -316q-355 24 -634 24q-23 0 -70.5 -2t-109 -5.5t-131.5 -8
l-140 -9t-134.5 -8.5t-113.5 -7.5t-78 -5.5t-28 -2q-24 0 -46 6t-38.5 16.5t-26.5 25.5t-10 34q0 15 14 32.5t34.5 38.5t45 45t45.5 52.5t35 61t15 70.5q-13 23 -24 35.5t-26.5 21.5t-41 17.5t-68.5 23.5l-198 76q-65 29 -111 53t-75 51t-42 60.5t-13 81.5t33 87.5t90 74
t134 65t165 58.5q51 -36 93 -56.5t81.5 -33t79.5 -20.5t86 -20q56 -9 111 -14.5t111 -5.5q61 0 121 6t123 17q118 22 206 70.5t145 114.5q25 29 47 44t44 15q56 0 99 -110q38 -97 95 -185t136 -166v-64q-180 13 -243 90q-35 44 -80.5 66t-108.5 22q-112 0 -226 -55
q-40 -19 -82.5 -30.5t-88 -19t-93 -11.5t-97.5 -7q-75 0 -156 10t-164 29v-8z" />
    <glyph glyph-name="uniFCF2" unicode="&#xfcf2;" horiz-adv-x="400" arabic-form="medial" 
d="M41 1285q-47 -26 -47 -62q0 -16 12 -27q26 -24 64 -24t75 21q0 20 -0.5 52t-0.5 52q-10 3 -30 3q-40 0 -73 -15zM-13 272v74h426v-74h-426zM404 1483q-216 -18 -435 -96q-2 11 -5 28t-5 41q104 41 207.5 69.5t210.5 46.5zM530 1303v-2q-27 -4 -30 -17v-95q-7 -19 -38 -33
q-32 -12 -66 -10l-28 3l-124 27q-51 -34 -112 -34l-29 9q-35 7 -59 11.5t-33 7.5q-25 5 -47 15.5t-36 23.5q-12 9 -23 24q-4 8 -4 22q0 70 114 77l129 -24q2 4 14 10t31 14l102 -25l-33 -15v-102q17 -3 36 -6t36 -6l25.5 17l25.5 17v86q8 21 43 34z" />
    <glyph glyph-name="uniFCF3" unicode="&#xfcf3;" horiz-adv-x="400" arabic-form="medial" 
d="M133 1539q41 -35 82 -35q3 0 8.5 0.5t10.5 0.5h17q44 0 59 -9q0 10 1 18t1 18q-5 31 -44 53q-42 23 -66 22l-80 -5q-4 -10 -4 -17q0 -23 15 -46zM35 1163q-48 -28 -48 -61q0 -18 9 -27q27 -28 66 -28q17 0 36.5 6t37.5 17q0 22 -1 52.5t-1 53.5q-5 1 -11.5 1h-15.5
q-39 0 -72 -14zM-13 272v74h426v-74h-426zM352 1521l39 -79q-182 -57 -355 -151v6.5t-1 6.5q-6 13 -11 23.5t-7 15.5q16 9 34.5 19t38.5 20h-1q56 35 111 63q-14 7 -33 7q-63 41 -63 111q0 13 1.5 24.5t3.5 22.5q4 6 6 8q53 30 75 66q27 -24 67 -24q48 -27 56 -35
q9 -15 17 -45l-5 -74zM523 1181v-2q-26 -4 -31 -20v-91q-7 -22 -38 -32q-33 -13 -67 -11q-7 0 -13.5 0.5t-13.5 0.5l-125 29q-50 -33 -110 -33l-27 9q-10 2 -19.5 2.5t-17.5 2.5q-23 4 -38.5 6t-21.5 3q-26 9 -47 19.5t-36 21.5q-13 11 -22 23q-3 11 -3 23q0 71 114 78
l127 -24q10 8 43 24l104 -25l-30 -14v-102q17 -3 36 -6t36 -6q12 8 24.5 16.5t24.5 16.5v87q8 20 44 33z" />
    <glyph glyph-name="uniFCF4" unicode="&#xfcf4;" horiz-adv-x="400" arabic-form="medial" 
d="M47 1537q-47 -26 -47 -61q0 -14 12 -28q25 -28 65 -28q33 0 74 25v23.5t-0.5 28t-0.5 28v22.5q-10 3 -29 3q-44 0 -74 -13zM-13 272v74h426v-74h-426zM419 1214q-63 0 -124 -13l-90 -18q-47 -10 -103 -25.5t-120 -37.5q-3 5 -3 15l-2 21v22q-1 1 -1 3v4l65 26q15 6 32 12
t32 12l69 19q10 2 22.5 6.5t27.5 9.5l50 9q30 8 60 14t59 11zM537 1555v-2q-28 -6 -30 -17v-95q-4 -11 -14.5 -19t-24.5 -13q-15 -5 -33.5 -8.5t-33.5 -2.5q-5 0 -14 0.5t-14 0.5l-124 26q-48 -31 -110 -31l-30 8q-36 7 -59.5 10.5t-33.5 5.5q-53 15 -84 43l-9.5 9.5
t-13.5 12.5q-1 5 -1 11v13q0 71 113 78l129 -24q10 10 44 24l102 -25l-32 -16v-102q17 -4 36 -7.5t36 -7.5q13 9 27 18.5t26 18.5v84q6 24 40 37z" />
    <glyph glyph-name="uniFDFC" unicode="&#xfdfc;" horiz-adv-x="1079" arabic-form="isolated" 
d="M191 1035v-117h105q42 0 57.5 13t15.5 42q0 32 -16 47t-55 15h-107zM433 1071q14 -17 22.5 -37t8.5 -48q0 -32 -14.5 -62t-51.5 -43q30 -12 42 -35t12 -70v-14q20 14 40.5 28t41.5 28l17 -14l-88 -136q-15 -24 -33.5 -54.5t-35.5 -54.5v1q-53 -157 -53 -270
q0 -68 18 -130t54 -108.5t90 -74t127 -27.5q47 0 71.5 18.5t35 65t11.5 125.5t1 200v220q1 8 1 14.5v11.5v18q0 16 -4 61t-10.5 105t-15 127.5t-17.5 128t-17 108t-15 66.5q53 -20 93 -33t70 -20.5t51.5 -10.5t38.5 -3l55 2q-28 -47 -28 -72v-1117q-3 -26 -23 -53.5t-53 -54
t-77.5 -51.5t-97.5 -46l-34 -8q-31 -8 -63 -10.5t-58 -2.5q-103 0 -185.5 24.5t-140.5 73.5t-88.5 121t-30.5 168q0 28 12.5 73t33 98.5t47.5 111t56 110.5t58.5 96.5t54.5 68.5q0 13 -2 24t-3 23l-1 41q-1 41 -15 55.5t-55 14.5h-95v-174h-91v445h217q49 -1 73.5 -11.5
t42.5 -30.5z" />
    <glyph glyph-name="uniFE71" unicode="&#xfe71;" horiz-adv-x="400" arabic-form="medial" 
d="M-13 272v74h426v-74h-426zM413 1418q-223 -22 -439 -93q-1 1 -1 6.5v8.5q-3 5 -4 17v19q-1 2 -3 12q35 14 99.5 36t151.5 49q15 5 29.5 9t25.5 6q27 5 55.5 10.5t55.5 10.5zM448 1287q-220 -21 -438 -96v15l-3 21q-1 4 -1.5 9t-1.5 8l-2 14l100 36q9 3 21.5 7.5
t28.5 10.5q6 1 19 6q19 6 52 15.5t87 21.5l114 19z" />
    <glyph glyph-name="uniFE77" unicode="&#xfe77;" horiz-adv-x="400" arabic-form="medial" 
d="M-13 272v74h426v-74h-426zM432 1362q-109 -11 -217.5 -35.5t-218.5 -61.5q-2 9 -5 25.5t-5 40.5q208 82 422 117z" />
    <glyph glyph-name="uniFE79" unicode="&#xfe79;" horiz-adv-x="400" arabic-form="medial" 
d="M144 1403q40 -34 83 -34q2 0 5 0.5t7 0.5q5 1 11.5 1h9.5q45 0 59 -11q0 10 1 18.5t1 18.5q-6 33 -45 55q-40 23 -64 20l-81 -8q-2 -10 -2 -15q0 -23 15 -46zM-13 272v74h426v-74h-426zM361 1387l36 -80q-179 -56 -352 -151q0 7 -3 14q-10 29 -15 39q14 7 32.5 17
t40.5 22h-1q29 17 56.5 32.5t54.5 30.5q-8 4 -16 5t-19 1q-63 39 -63 112q0 26 7 47q0 2 2 4v-1q1 2 1.5 3.5t1.5 3.5q49 28 76 64q29 -24 68 -24q21 -11 35 -21t21 -18q4 -5 7 -15t7 -25l-3 -75z" />
    <glyph glyph-name="uniFE7B" unicode="&#xfe7b;" horiz-adv-x="400" arabic-form="medial" 
d="M-13 272v74h426v-74h-426zM316 -378q-61 0 -123 -13l-91 -20q-45 -8 -101 -23.5t-123 -37.5q-1 3 -1 15l-1 21v9l-1 8v6q-1 1 -1 4l66 30l66 21l65 18q11 4 23.5 8t28.5 8l51 12q23 4 44.5 8t42.5 8q8 2 16 3t16 3z" />
    <glyph glyph-name="uniFE7D" unicode="&#xfe7d;" horiz-adv-x="400" arabic-form="medial" 
d="M-39 1398q-47 -29 -47 -61q0 -5 2.5 -12.5t6.5 -12.5q14 -13 30 -20.5t33 -7.5t37 6.5t39 17.5v105q-5 1 -12.5 1h-16.5q-42 0 -73 -16h1zM-13 272v74h426v-74h-426zM450 1417q-27 -7 -29 -20v-90q-9 -23 -41 -38q-35 -11 -67 -9q-6 0 -12.5 1t-12.5 1l-127 24
q-51 -31 -110 -31l-29 11q-36 5 -60 9t-32 7q-26 8 -48.5 19t-35.5 24h1q-7 4 -12 9l-12 12q-3 11 -3 21q0 72 113 81l129 -25q5 4 15.5 10.5t24.5 14.5l103 -26l-29 -15v-99q18 -5 36.5 -10t36.5 -10q12 10 25 20.5t25 20.5v85q7 19 40 34z" />
    <glyph glyph-name="uniFE7F" unicode="&#xfe7f;" horiz-adv-x="400" arabic-form="medial" 
d="M101 1408q0 -4 -1 -9t-1 -8q0 -7 1 -8q0 -7 3 -15l5 -11l1 -4q22 -28 51.5 -43.5t64.5 -15.5q51 -8 73 -28q4 4 7 8.5t3 6.5l2 19q0 14 -6 29t-15 29q-47 54 -100 55h-41q-2 0 -9.5 2t-16.5 4q-4 1 -8 1.5t-6 2.5zM-13 272v74h426v-74h-426zM299 1446h-1q9 -4 16 -16v1
l15 -15q1 -2 1.5 -6t2.5 -8l2 -6t2 -7l2 -32q2 -20 -5 -49.5t-24 -65.5h-5l-4 2h-6l-6 6h-4q-11 -3 -26 -10t-29 -16q-4 -5 -8.5 -9.5t-10.5 -8.5q-10 8 -21 15t-25 15h1q-11 4 -22 8.5t-22 8.5q-46 40 -46 108q0 23 6.5 42.5t22.5 42.5q51 13 99 58q34 -33 83 -49z" />
    <glyph glyph-name="uniFC5E" unicode="&#xfc5e;" arabic-form="isolated" 
d="M460 2048q-1 0 0 1v-1zM303 2052q10 -10 39 -10q19 0 42 5l28 -5q9 -2 14.5 -3t9.5 -3q2 5 4 11t2 10q0 29 -31 54q-2 2 -5.5 4.5t-6.5 4.5q-32 26 -70 26q-11 -2 -23.5 -5t-23.5 -5h-18h-7t-7 -1q-2 -8 -2 -16q0 -17 17 -42q9 -11 19 -18t18 -7h1zM81 1684
q-47 -29 -47 -61q0 -16 10 -26q28 -26 65 -26t72 22v105q-5 1 -12 1h-15q-41 0 -74 -15h1zM569 1703v-2q-28 -6 -30 -17v-93q-7 -22 -38 -36q-37 -11 -69 -10l-26 3l-125 27q-23 -16 -50.5 -24.5t-59.5 -8.5l-28 10q-11 2 -21 3.5t-18 3.5q-22 4 -36 6t-20 4
q-25 6 -46.5 15.5t-37.5 23.5q-5 5 -9.5 10t-9.5 13q-6 12 -6 23q0 70 114 77l128 -24q9 9 44 24l102 -25l-29 -14v-100q18 -4 35.5 -7.5t35.5 -7.5q12 9 26 18t26 18v86q5 19 42 32zM270 1951q14 8 28.5 16.5t28.5 16.5q-11 8 -36 8q-50 35 -58 84q-1 2 -1 5.5v6.5
q0 40 12 71q17 7 31.5 18t25.5 23q4 5 8 11l8 12q27 -26 69 -26q68 -22 68 -93q0 -24 -0.5 -38.5t-1.5 -20.5q6 1 8 3q1 1 2.5 1.5t3.5 1.5h-1q3 2 6.5 3.5t11.5 4.5l32 -79q-195 -63 -354 -153q-2 7 -4 15.5t-5 18.5q-2 5 -2.5 9.5t-2.5 9.5q0 56 -25 97q-36 -83 -75 -83
q-53 0 -53 85q0 62 27 62h13q-3 -9 -3 -13q-4 -9 -4 -25q0 -22 20 -33h3t3 -1q30 2 60 32.5t57 91.5q7 -57 21.5 -98t37.5 -64q8 3 16.5 7t18.5 9q2 1 3.5 2t3.5 2h-1z" />
    <glyph glyph-name="uniFC5F" unicode="&#xfc5f;" arabic-form="isolated" 
d="M111 2076q-46 -27 -46 -63q0 -7 2.5 -14t6.5 -12q13 -11 29.5 -18t36.5 -7q36 0 71 22q0 20 -0.5 51.5t-0.5 51.5q-10 2 -27 2q-43 0 -73 -13h1zM449 1772q-34 0 -88 -7.5t-129 -21.5q-57 -11 -112.5 -26t-109.5 -35v14q-1 5 -2.5 10.5t-2.5 10.5l-1 18v10
q91 38 195 67.5t223 49.5zM488 1639q-29 0 -56 -2t-53 -6q-16 -2 -62 -11q-11 -2 -23 -4.5t-25 -4.5q-52 -12 -107.5 -28t-110.5 -35q-2 3 -2 8.5v8.5q-1 3 -2.5 8t-2.5 8v21l-2 14l23 9l20 6l48 17q22 8 45.5 16t45.5 16l87 22q58 15 148 29zM600 2093v-2q-30 -5 -31 -16
v-93q-8 -21 -38 -34q-16 -6 -34 -8.5t-34 -1.5q-5 0 -13 0.5t-13 0.5l-126 27q-23 -16 -50.5 -24.5t-58.5 -8.5l-28 12q-38 6 -63 9.5t-33 5.5q-49 10 -84 40q-3 3 -6 6.5t-8 8.5q-2 3 -7 8q-4 8 -4 22q0 70 113 77l128 -23q7 6 45 23l102 -24l-31 -15v-100q20 -4 38 -7.5
t38 -7.5q11 8 23.5 17.5t23.5 17.5v85q6 21 44 34z" />
    <glyph glyph-name="uniFC60" unicode="&#xfc60;" arabic-form="isolated" 
d="M81 1699q-47 -26 -47 -62q0 -16 12 -27q26 -24 64 -24t75 21q0 20 -0.5 52t-0.5 52q-10 3 -30 3q-40 0 -73 -15zM444 1896q-216 -18 -435 -96q-2 11 -5 28t-5 41q104 41 207.5 69.5t210.5 46.5zM570 1717v-2q-27 -4 -30 -17v-95q-7 -19 -38 -33q-32 -12 -66 -10l-28 3
l-124 27q-51 -34 -112 -34l-29 9q-35 7 -59 11.5t-33 7.5q-25 5 -46.5 15.5t-36.5 23.5q-12 9 -23 24q-4 8 -4 22q0 70 114 77l129 -24q2 4 14 10t31 14l102 -25l-33 -15v-102q17 -3 36 -6t36 -6l25.5 17l25.5 17v86q8 21 43 34z" />
    <glyph glyph-name="uniFC61" unicode="&#xfc61;" arabic-form="isolated" 
d="M190 2065q41 -35 82 -35q3 0 8.5 0.5t10.5 0.5h17q44 0 59 -9q0 10 1 18t1 18q-5 31 -44 53q-42 23 -66 22l-80 -5q-4 -10 -4 -17q0 -23 15 -46zM92 1690q-48 -28 -48 -61q0 -17 9 -28q27 -28 66 -28q17 0 36.5 6t37.5 17q0 23 -1 53.5t-1 53.5q-5 1 -11.5 1h-15.5
q-39 0 -72 -14zM409 2047l39 -79q-182 -57 -355 -151v6.5t-1 6.5q-6 13 -11 23.5t-7 15.5q16 9 34.5 19t38.5 20h-1q56 35 111 63q-14 7 -33 7q-63 41 -63 111q0 13 1.5 24.5t3.5 22.5q4 6 6 8q53 30 75 66q27 -24 67 -24q48 -27 56 -35q9 -15 17 -45l-5 -74zM580 1708v-2
q-26 -4 -31 -20v-92q-7 -22 -38 -32q-33 -13 -67 -11q-7 0 -13.5 0.5t-13.5 0.5l-125 29q-50 -33 -110 -33l-27 9q-10 2 -19.5 2.5t-17.5 2.5q-23 4 -38.5 6t-21.5 3q-26 9 -47 19.5t-36 22.5q-13 11 -22 23q-3 11 -3 23q0 71 114 78l127 -24q10 8 43 24l104 -25l-30 -14
v-103q17 -3 36 -6t36 -6q12 8 24.5 17t24.5 17v87q8 20 44 33z" />
    <glyph glyph-name="uniFC62" unicode="&#xfc62;" arabic-form="isolated" 
d="M95 1949q-47 -26 -47 -61q0 -14 12 -28q25 -28 65 -28q33 0 74 25v23.5t-0.5 28t-0.5 28v22.5q-10 3 -29 3q-44 0 -74 -13zM467 1627q-63 0 -124 -13l-90 -18q-47 -10 -103 -25.5t-120 -37.5q-3 5 -3 15l-2 21v22q-1 1 -1 3v4l65 26q15 6 32 12t32 12l69 19
q10 2 22.5 6.5t27.5 9.5l50 9q30 8 60 14t59 11zM585 1967v-2q-28 -6 -30 -17v-95q-4 -11 -14.5 -19t-24.5 -13q-15 -5 -33.5 -8.5t-33.5 -2.5q-5 0 -14 0.5t-14 0.5l-124 26q-48 -31 -110 -31l-30 8q-36 7 -59.5 10.5t-33.5 5.5q-53 15 -84 43l-9.5 9.5t-13.5 12.5
q-1 5 -1 11v13q0 71 113 78l129 -24q10 10 44 24l102 -25l-32 -16v-102q17 -4 36 -7.5t36 -7.5q13 9 27 18.5t26 18.5v84q6 24 40 37z" />
    <glyph glyph-name="uniFC63" unicode="&#xfc63;" arabic-form="isolated" 
d="M84 1669q-47 -29 -47 -61q0 -5 2.5 -12.5t6.5 -12.5q14 -13 30 -20.5t33 -7.5t37 6.5t39 17.5v105q-5 1 -12.5 1h-16.5q-42 0 -73 -16h1zM314 2133l-7 -27v-299l2.5 -7.5t2.5 -6.5h-103q11 11 12 27v286q-1 5 -3 11.5t-6 14.5zM573 1688q-27 -7 -29 -20v-90
q-9 -23 -41 -38q-35 -11 -67 -9q-6 0 -12.5 1t-12.5 1l-127 24q-51 -31 -110 -31l-29 11q-36 5 -60 9t-32 7q-26 8 -48.5 19t-35.5 24h1q-7 4 -12 9l-12 12q-3 11 -3 21q0 72 113 81l129 -25q5 4 15.5 10.5t24.5 14.5l103 -26l-29 -15v-99q18 -5 36.5 -10t36.5 -10
q12 10 25 20.5t25 20.5v85q7 19 40 34z" />
    <glyph glyph-name=".notdef" horiz-adv-x="1122" 
d="M624 299q0 -30 -22 -52.5t-54 -22.5q-30 0 -51.5 22.5t-21.5 52.5q0 32 21.5 53.5t54.5 21.5q30 0 51.5 -21.5t21.5 -53.5zM732 780q0 -43 -23.5 -70t-60.5 -27q-32 0 -51 18.5t-19 47.5q0 26 15.5 43.5t29.5 28.5q8 6 14 11.5t6 10.5q0 20 -19.5 32t-49.5 12
q-38 0 -62 -21t-24 -53q0 -13 6.5 -32t15.5 -38.5t19 -38t17 -32.5q5 -10 8.5 -16t4.5 -8q11 -29 17.5 -64.5t6.5 -70.5q0 -21 -1.5 -42.5t-3.5 -46.5h-39v18l4 30q0 33 -45 72q-73 65 -82 76q-45 53 -45 120q0 41 15 75.5t40.5 60t60 39.5t73.5 14q35 0 66.5 -10.5t55 -30
t37 -47t13.5 -61.5zM132 31h860v1091h-860v-1091zM100 0v1154h922v-1154h-922z" />
    <glyph glyph-name=".null" horiz-adv-x="0" 
 />
    <glyph glyph-name=".null" horiz-adv-x="0" 
 />
    <glyph glyph-name="nonmarkingreturn" unicode="&#xd;" horiz-adv-x="569" 
 />
    <glyph glyph-name="space" unicode=" " horiz-adv-x="500" 
 />
    <glyph glyph-name="exclam" unicode="!" horiz-adv-x="804" 
d="M390 371h17q39 -36 74.5 -70t72.5 -69l-8 -5h1q-43 -26 -89.5 -48.5t-88.5 -43.5l-14 3q-58 19 -155 108q1 3 1 7l4 7zM473 1200q2 -5 3.5 -8l2.5 -5l3 -6l6 -14t5 -13q-7 -169 -16.5 -289.5t-33 -201.5t-67 -128t-119.5 -70q-3 15 -6.5 30t-8.5 29l6 405v188z" />
    <glyph glyph-name="quotedbl" unicode="&#x22;" horiz-adv-x="971" 
d="M431 1474q-14 -152 -26 -299t-24 -299h-164q-5 77 -10.5 150.5t-11.5 148.5q-3 38 -5.5 74.5t-5.5 74.5q-3 37 -5.5 75.5t-5.5 74.5h258zM814 1474q-4 -60 -8.5 -117t-9.5 -115q-2 -17 -2.5 -33.5t-2.5 -33.5q-6 -74 -12 -148.5t-12 -150.5h-164q-6 87 -12.5 170
t-13.5 168q-2 28 -4.5 57t-4.5 58q-3 29 -6 60t-5 60q-1 5 -1 12.5t-1 12.5h259z" />
    <glyph glyph-name="numbersign" unicode="#" horiz-adv-x="1139" 
d="M618 557q21 77 44.5 157t44.5 157h-188q-20 -76 -43 -157t-43 -157h185zM45 557h206q20 75 42.5 157t42.5 157h-205q4 13 6.5 24.5t5.5 22.5q2 6 3.5 14t3.5 15l12 45q2 8 4 15.5t4 15.5h208q6 23 11.5 44.5t11.5 44.5q8 30 16 59.5t16 58.5q6 23 11.5 44.5t11.5 44.5
l30 112h184l-112 -408h189q6 23 11.5 44.5t11.5 44.5q8 30 16 59.5t16 58.5l42 159q2 11 5 21.5t5 20.5h182l-108 -408h205q-5 -20 -10 -37.5t-10 -36.5q-2 -8 -5 -18.5t-5 -19.5q-2 -10 -4.5 -20t-5.5 -20h-205q-21 -77 -43.5 -157t-43.5 -157h207q-2 -10 -5 -19.5
t-5 -18.5t-4.5 -18t-5.5 -19t-5.5 -20t-5.5 -21l-9 -36h-208q-8 -32 -18 -67.5t-18 -68.5l-18 -69q-6 -21 -12 -42.5t-11 -42.5l-30 -115h-183l109 405h-186q-13 -48 -28 -101.5t-29 -103.5q-9 -32 -17.5 -63t-16.5 -63q-5 -17 -10 -37t-10 -37h-180l109 405h-205z" />
    <glyph glyph-name="dollar" unicode="$" horiz-adv-x="1139" 
d="M530 1248q-97 -4 -145 -51.5t-48 -128.5q0 -42 18.5 -78.5t50.5 -63.5q20 -14 50 -28.5t74 -27.5v378zM607 169q42 5 77 16t54 25q30 26 49.5 70t19.5 98q0 42 -18 80t-47 65q-19 16 -54 33.5t-81 34.5v-422zM609 -241h-79v203q-96 11 -176 34t-126 50q-75 60 -121 156.5
t-46 224.5h255q13 -119 43 -166q21 -35 65 -59.5t106 -35.5v450q-14 4 -30 8.5t-31 9.5q-8 2 -15 4l-14 4q-42 14 -82.5 31.5t-75.5 37.5t-63.5 42t-46.5 45q-76 99 -76 238q0 93 30.5 168t84.5 129q33 35 72.5 59t82.5 38q25 8 66 14t98 11v135h77v-137q84 -8 152 -28
t112 -50q81 -54 124 -137.5t48 -198.5h-246q-4 40 -13.5 73t-20.5 53q-20 36 -59.5 58t-96.5 27v-402q115 -40 201.5 -79t127.5 -68q63 -53 98 -126t35 -167q0 -121 -49.5 -214t-134.5 -150q-53 -32 -125 -52.5t-151 -27.5v-205z" />
    <glyph glyph-name="percent" unicode="%" horiz-adv-x="1821" 
d="M1396 509q-70 0 -119 -51q-50 -49 -50 -120t49 -120q49 -50 120 -50q72 0 121 50q51 50 51 120q0 71 -51 120q-25 25 -54.5 38t-66.5 13zM583 1075q0 70 -50 120q-49 51 -119 51q-72 0 -122 -51q-50 -49 -50 -120q0 -72 50 -119q48 -51 122 -51q70 0 119 50q50 50 50 120
zM1240 1450h135l-66 -122t-65 -121q-68 -125 -135 -248t-136 -251q-11 -21 -23.5 -44t-23.5 -44q-42 -78 -87 -161t-91 -167.5t-91.5 -168t-88.5 -161.5h-138zM414 708q-154 0 -260 109q-109 106 -109 258q0 153 109 259q106 109 260 109q151 0 257 -109q109 -106 109 -259
q0 -152 -109 -258q-105 -109 -257 -109zM1396 -29q-151 0 -257 109q-109 106 -109 258q0 154 109 259q106 109 257 109q154 0 260 -109q109 -106 109 -259q0 -152 -109 -258q-106 -109 -260 -109z" />
    <glyph glyph-name="ampersand" unicode="&#x26;" horiz-adv-x="1479" 
d="M571 1052q9 -15 31.5 -44t51.5 -66q34 23 58.5 42.5t38.5 35.5q25 29 38.5 60.5t13.5 62.5q0 24 -8.5 46t-23.5 43q-17 18 -42.5 29t-57.5 11q-18 0 -38.5 -6t-37.5 -17q-25 -17 -40.5 -45t-15.5 -62q0 -21 7.5 -43.5t24.5 -46.5zM605 187q35 0 70.5 9t67.5 27
q30 16 59.5 36.5t52.5 42.5q-69 85 -142 175.5t-142 176.5q-57 -38 -96.5 -72t-56.5 -62q-20 -30 -28.5 -61.5t-8.5 -64.5q0 -77 62 -140q64 -67 162 -67zM434 824q-66 75 -103 151.5t-37 156.5q0 81 26.5 142t77.5 106q53 42 123.5 65.5t154.5 23.5q158 0 258 -91
q52 -46 76.5 -103t24.5 -130q0 -128 -62 -207q-30 -41 -78 -80t-111 -77q57 -69 113.5 -138t113.5 -138q38 57 60.5 120.5t24.5 128.5h238q-4 -63 -20.5 -129.5t-45.5 -132.5q-17 -39 -43.5 -84.5t-61.5 -90.5q12 -14 25 -30.5t26 -31.5q19 -23 37.5 -45.5t37.5 -45.5
q34 -42 69.5 -84t67.5 -80h-329l-105 130q-41 -37 -77.5 -65.5t-66.5 -43.5q-57 -28 -122.5 -42.5t-140.5 -14.5q-108 0 -196.5 34.5t-151.5 95.5q-56 63 -91 138.5t-35 152.5q0 65 18 122.5t48 102.5q32 45 89.5 95t126.5 95z" />
    <glyph glyph-name="quotesingle" unicode="'" horiz-adv-x="487" 
d="M381 1474q-6 -76 -12 -149.5t-13 -149.5q-6 -69 -12 -139.5t-12 -140.5q0 -4 -0.5 -9.5t-0.5 -9.5h-159q-6 76 -12 150t-13 149q-6 69 -12 138.5t-11 138.5q-1 5 -1 11t-1 11h259z" />
    <glyph glyph-name="parenleft" unicode="(" horiz-adv-x="680" 
d="M414 -245q-45 0 -91 40q-54 42 -102.5 130.5t-82.5 204.5q-17 64 -27.5 138t-10.5 146q0 105 23 230.5t61 249.5q10 21 19.5 42.5t20.5 42.5q14 28 27 56t27 56q23 48 47 100t47 99q10 14 41 14q17 0 31.5 -8t31.5 -24q-11 -56 -32 -100.5t-49 -73.5q-61 -63 -66 -74
q-24 -55 -44 -116t-35 -123.5t-23.5 -123.5t-8.5 -117q0 -100 17.5 -192t50 -174t79.5 -153t106 -128q5 -19 7 -35t2 -30q0 -36 -18 -56.5t-48 -20.5z" />
    <glyph glyph-name="parenright" unicode=")" horiz-adv-x="697" 
d="M465 351q-7 -17 -14 -33.5t-14 -33.5q-24 -59 -48.5 -119t-48.5 -117q-7 -11 -12.5 -21.5t-12.5 -21.5v1q-29 -50 -57.5 -100.5t-57.5 -99.5q-10 -4 -21.5 -6.5t-22.5 -2.5q-36 0 -56 17q2 61 40.5 121t108.5 115q47 66 78.5 154t44.5 183q1 3 1 8.5v9.5q0 2 0.5 4.5
t0.5 4.5v7q2 7 2.5 16.5t1.5 20.5l2 122l2 122q-25 150 -84.5 278t-150.5 220q5 45 20 78.5t35 56.5q71 -2 116 -61q35 -49 64 -104.5t51.5 -113t38.5 -116t25 -114.5v-248z" />
    <glyph glyph-name="asterisk" unicode="*" horiz-adv-x="797" 
d="M97 1305l213 -69v247h159v-247q22 7 48 15t49 16q11 4 23 7.5t24 7.5q18 6 35.5 11.5t34.5 10.5q4 -13 7 -24.5t7 -22.5q2 -5 4 -11l4 -12q4 -15 11 -34q2 -7 4.5 -14.5t4.5 -14.5l-218 -65q10 -13 22 -30.5t24 -35.5t24 -35.5t22 -31.5q11 -14 21.5 -29.5t20.5 -29.5
q6 -8 10 -14q-12 -9 -24.5 -17.5t-25.5 -16.5q-2 -2 -4.5 -3t-4.5 -3q-9 -7 -19 -13.5t-19 -13.5q-5 -3 -10 -7t-10 -7l-143 192q-28 -37 -60.5 -79t-62.5 -82q-6 -8 -12.5 -15.5t-11.5 -15.5q-26 20 -48 35l-9 6q-8 5 -14.5 10t-14.5 10t-15 10t-15 10l144 206
q-25 8 -55 17t-59 17q-15 5 -30 9.5t-30 9.5q-11 4 -21.5 7t-21.5 6z" />
    <glyph glyph-name="plus" unicode="+" horiz-adv-x="1196" 
d="M59 417v247h415v415h249v-415h415v-247h-415v-417h-249v417h-415z" />
    <glyph glyph-name="comma" unicode="," horiz-adv-x="569" 
d="M125 -257q85 26 126 88.5t49 168.5h-175v284h294v-253q0 -32 -5 -68t-13 -74q-8 -34 -26 -67t-41 -60q-25 -27 -56 -48t-66 -35q-29 -12 -51 -20t-36 -10v94z" />
    <glyph glyph-name="hyphen" unicode="-" horiz-adv-x="682" 
d="M52 697h564v-256h-564v256z" />
    <glyph glyph-name="hyphen" unicode="&#x2212;" horiz-adv-x="682" 
d="M52 697h564v-256h-564v256z" />
    <glyph glyph-name="hyphen" unicode="&#xad;" horiz-adv-x="682" 
d="M52 697h564v-256h-564v256z" />
    <glyph glyph-name="period" unicode="." horiz-adv-x="806" 
d="M392 391h13q41 -35 76.5 -69.5t74.5 -68.5q-46 -35 -91 -67t-92 -64h-26q-3 3 -20.5 18t-40 36t-46 44.5t-39.5 42.5q0 1 -0.5 2t-0.5 2l5 9z" />
    <glyph glyph-name="slash" unicode="/" horiz-adv-x="569" 
d="M468 1521h218q-14 -38 -29.5 -80.5t-32.5 -87.5q-37 -97 -77 -202.5t-79 -209.5t-76 -202.5t-68 -180.5q-35 -93 -70 -185t-70 -186q-17 -45 -35 -93.5t-35 -93.5h-216z" />
    <glyph glyph-name="zero" unicode="0" horiz-adv-x="1139" 
d="M564 180q69 0 112.5 35.5t64.5 105.5q20 68 30.5 164.5t10.5 225.5q0 268 -41 396q-21 66 -64.5 100t-112.5 34q-70 0 -114 -33.5t-65 -99.5q-20 -64 -31.5 -163t-11.5 -234q0 -129 11.5 -225.5t31.5 -164.5q44 -141 179 -141zM1060 711q0 -178 -29 -318t-81 -237
q-56 -93 -153.5 -142.5t-232.5 -49.5q-277 0 -387 192q-109 194 -109 555q0 180 29 320t80 237q57 93 154.5 142.5t232.5 49.5q137 0 233.5 -49.5t152.5 -141.5q52 -97 81 -237.5t29 -320.5z" />
    <glyph glyph-name="one" unicode="1" horiz-adv-x="1139" 
d="M147 1013v177q64 3 112 7.5t72 10.5q42 11 80.5 32t66.5 50q19 20 34 48t26 61q8 26 11 51h221v-1450h-278v1013h-345z" />
    <glyph glyph-name="two" unicode="2" horiz-adv-x="1139" 
d="M134 273q31 72 106.5 152t181.5 158q90 65 159.5 120t101.5 88q42 48 67 103t25 112q0 45 -14 86t-40 73q-27 29 -68 48t-87 19q-138 0 -188 -104q-14 -29 -22 -71.5t-11 -102.5h-261q5 88 22 160.5t43 128.5q57 106 158 160t245 54q231 0 365 -128q133 -123 133 -333
q0 -81 -24.5 -152t-69.5 -133q-15 -19 -37 -41.5t-49 -46.5t-58 -49t-64 -48q-17 -12 -35 -25q-20 -15 -39.5 -29.5t-39.5 -28.5q-52 -36 -91 -65t-60 -46q-20 -17 -40 -41.5t-37 -53.5h647v-237h-985z" />
    <glyph glyph-name="three" unicode="3" horiz-adv-x="1139" 
d="M321 432q0 -84 32 -140v1q29 -48 81 -80.5t117 -32.5q43 0 82 15t71 46q68 63 68 174q0 75 -32.5 125.5t-89.5 76.5q-33 13 -85.5 20.5t-121.5 7.5v189q64 2 114 9t79 18q48 23 74 69t26 112q0 44 -13 80.5t-38.5 63t-61.5 41t-83 14.5q-104 0 -155.5 -65t-51.5 -173
h-249q2 51 11.5 99t25.5 94q17 40 46 82.5t61 73.5q54 48 133 76.5t188 28.5q103 0 187.5 -28.5t146.5 -79.5q125 -105 125 -284q0 -62 -19.5 -116t-54.5 -97q-46 -48 -102 -75q0 -4 1 -8t1 -8q22 -2 51.5 -19t62.5 -46q48 -50 76.5 -119t28.5 -154q0 -184 -126 -322
q-63 -70 -155.5 -103.5t-219.5 -33.5q-307 0 -426 199q-58 104 -68 269h263z" />
    <glyph glyph-name="four" unicode="4" horiz-adv-x="1139" 
d="M638 524v675q-99 -170 -196.5 -337t-196.5 -338h393zM1069 316h-167v-316h-264v316h-582v242q17 28 33.5 55.5t33.5 54.5q25 41 50 82.5t50 82.5q52 85 106 173.5t105 173.5q38 65 78.5 130.5t79.5 130.5h310v-917h167v-208z" />
    <glyph glyph-name="five" unicode="5" horiz-adv-x="1139" 
d="M327 375q20 -97 69.5 -147t146.5 -50q111 0 170 80q59 79 59 194q0 112 -55 196q-28 37 -72.5 59t-98.5 22q-28 0 -52.5 -3t-43.5 -10q-30 -12 -55.5 -36t-44.5 -55l-40 2l-40 2q-33 2 -63 3q-11 1 -24 1t-26 1t-26 1t-26 1q6 45 11.5 90t10.5 90q3 24 6 47.5t6 46.5
q6 45 11.5 89.5t10.5 89.5q11 85 21.5 170.5t21.5 171.5h792v-228h-598q-14 -87 -29.5 -173t-29.5 -174q38 25 69 41.5t52 24.5q32 12 69.5 18.5t79.5 6.5q88 0 168.5 -33t145.5 -88q61 -61 95.5 -150t34.5 -201q0 -101 -32 -189.5t-95 -167.5q-126 -156 -384 -156
q-103 0 -188.5 29t-150.5 82q-62 53 -98 130t-45 172h267z" />
    <glyph glyph-name="six" unicode="6" horiz-adv-x="1139" 
d="M573 178q48 0 88.5 19.5t69.5 57.5q28 37 43.5 86t15.5 106q0 65 -17.5 115.5t-48.5 87.5q-32 30 -75.5 51t-85.5 21q-37 0 -72 -12t-64 -34q-42 -35 -66 -91t-24 -130q0 -60 17.5 -109.5t49.5 -87.5q33 -40 76 -60t93 -20zM762 1099q-2 16 -10 36t-19 37
q-25 35 -62.5 54.5t-85.5 19.5q-73 0 -125.5 -43t-83.5 -120q-14 -42 -27 -114.5t-21 -172.5q64 73 137 106.5t161 33.5q191 0 314 -129q122 -131 122 -336q0 -100 -31 -190t-88 -166q-60 -75 -153.5 -114t-220.5 -39q-133 0 -234.5 58.5t-167.5 167.5q-47 89 -73 206.5
t-26 258.5q0 81 3.5 149.5t10.5 120.5q13 91 38 171t57 139q31 51 71.5 93.5t90.5 73t110 47.5t129 17q203 0 321 -104q58 -49 89.5 -114.5t40.5 -146.5h-267z" />
    <glyph glyph-name="seven" unicode="7" horiz-adv-x="1139" 
d="M1078 1217q-33 -31 -79.5 -90.5t-99.5 -134.5q-28 -40 -55.5 -83t-52.5 -86.5t-47.5 -86.5t-39.5 -82q-29 -65 -58.5 -154t-53.5 -183q-23 -91 -36 -172.5t-13 -144.5h-282q8 197 73 399t185 410q157 262 281 380h-746q0 16 0.5 31.5t0.5 29.5v29.5t1 30.5q1 28 1.5 60.5
t0.5 60.5h1020v-214z" />
    </font>
</defs>
</svg>
